<svg xmlns="http://www.w3.org/2000/svg" width="400" height="560" viewBox="0 0 400 560">
  <rect width="400" height="560" fill="#0a0e14"/>
  <rect width="400" height="560" fill="#b8a877" opacity="0.10"/>
  <circle cx="185.5" cy="505.9" r="1.9" fill="#e8e6e1" opacity="0.59"/><circle cx="344.4" cy="191.4" r="1.3" fill="#e8e6e1" opacity="0.22"/><circle cx="223.4" cy="327.5" r="1.1" fill="#e8e6e1" opacity="0.15"/><circle cx="193.6" cy="242.4" r="1.8" fill="#e8e6e1" opacity="0.38"/><circle cx="165.3" cy="12.4" r="1.0" fill="#e8e6e1" opacity="0.31"/><circle cx="57.0" cy="394.7" r="0.6" fill="#e8e6e1" opacity="0.56"/><circle cx="312.4" cy="142.1" r="1.2" fill="#e8e6e1" opacity="0.39"/><circle cx="186.8" cy="559.3" r="1.9" fill="#e8e6e1" opacity="0.24"/><circle cx="373.4" cy="223.2" r="2.1" fill="#e8e6e1" opacity="0.64"/><circle cx="173.8" cy="407.5" r="2.0" fill="#e8e6e1" opacity="0.52"/><circle cx="90.3" cy="551.8" r="0.7" fill="#e8e6e1" opacity="0.46"/><circle cx="34.7" cy="8.9" r="1.1" fill="#e8e6e1" opacity="0.45"/><circle cx="311.3" cy="131.9" r="1.2" fill="#e8e6e1" opacity="0.37"/><circle cx="209.4" cy="235.1" r="0.6" fill="#e8e6e1" opacity="0.48"/><circle cx="397.4" cy="366.1" r="1.9" fill="#e8e6e1" opacity="0.20"/><circle cx="273.2" cy="240.3" r="0.8" fill="#e8e6e1" opacity="0.56"/><circle cx="357.0" cy="494.2" r="1.1" fill="#e8e6e1" opacity="0.27"/><circle cx="79.4" cy="532.6" r="0.7" fill="#e8e6e1" opacity="0.51"/><circle cx="268.2" cy="396.9" r="1.0" fill="#e8e6e1" opacity="0.16"/><circle cx="224.5" cy="32.1" r="1.8" fill="#e8e6e1" opacity="0.62"/><circle cx="59.5" cy="535.8" r="0.8" fill="#e8e6e1" opacity="0.57"/><circle cx="258.2" cy="280.4" r="2.0" fill="#e8e6e1" opacity="0.37"/><circle cx="246.2" cy="430.7" r="1.3" fill="#e8e6e1" opacity="0.28"/><circle cx="374.5" cy="238.8" r="1.8" fill="#e8e6e1" opacity="0.25"/><circle cx="247.8" cy="324.4" r="1.6" fill="#e8e6e1" opacity="0.38"/><circle cx="303.3" cy="5.8" r="1.3" fill="#e8e6e1" opacity="0.20"/><circle cx="151.3" cy="431.5" r="1.9" fill="#e8e6e1" opacity="0.63"/><circle cx="207.7" cy="141.7" r="0.8" fill="#e8e6e1" opacity="0.31"/><circle cx="170.8" cy="436.0" r="2.2" fill="#e8e6e1" opacity="0.64"/><circle cx="86.4" cy="549.4" r="1.4" fill="#e8e6e1" opacity="0.61"/><circle cx="278.0" cy="547.6" r="1.0" fill="#e8e6e1" opacity="0.33"/><circle cx="327.0" cy="548.8" r="1.6" fill="#e8e6e1" opacity="0.26"/><circle cx="216.4" cy="127.9" r="1.0" fill="#e8e6e1" opacity="0.35"/><circle cx="326.6" cy="118.3" r="1.1" fill="#e8e6e1" opacity="0.16"/><circle cx="143.3" cy="420.3" r="1.6" fill="#e8e6e1" opacity="0.27"/><circle cx="208.9" cy="192.8" r="0.8" fill="#e8e6e1" opacity="0.47"/><circle cx="343.5" cy="491.7" r="1.8" fill="#e8e6e1" opacity="0.56"/><circle cx="322.9" cy="399.0" r="1.9" fill="#e8e6e1" opacity="0.31"/><circle cx="398.2" cy="413.9" r="0.8" fill="#e8e6e1" opacity="0.25"/><circle cx="49.6" cy="370.7" r="1.5" fill="#e8e6e1" opacity="0.39"/><circle cx="228.7" cy="200.0" r="0.6" fill="#e8e6e1" opacity="0.51"/><circle cx="223.0" cy="555.8" r="0.8" fill="#e8e6e1" opacity="0.29"/><circle cx="48.3" cy="551.7" r="1.6" fill="#e8e6e1" opacity="0.53"/><circle cx="357.9" cy="319.8" r="0.8" fill="#e8e6e1" opacity="0.45"/><circle cx="84.7" cy="74.8" r="1.9" fill="#e8e6e1" opacity="0.33"/><circle cx="390.2" cy="271.9" r="1.8" fill="#e8e6e1" opacity="0.25"/><circle cx="184.9" cy="471.4" r="1.4" fill="#e8e6e1" opacity="0.61"/><circle cx="174.0" cy="352.4" r="1.0" fill="#e8e6e1" opacity="0.52"/><circle cx="57.2" cy="83.0" r="1.0" fill="#e8e6e1" opacity="0.44"/><circle cx="37.8" cy="528.2" r="2.1" fill="#e8e6e1" opacity="0.40"/><circle cx="206.6" cy="503.7" r="2.0" fill="#e8e6e1" opacity="0.45"/><circle cx="381.1" cy="362.7" r="0.7" fill="#e8e6e1" opacity="0.37"/><circle cx="353.8" cy="537.5" r="1.3" fill="#e8e6e1" opacity="0.17"/><circle cx="40.3" cy="548.6" r="1.2" fill="#e8e6e1" opacity="0.52"/><circle cx="42.8" cy="386.1" r="1.2" fill="#e8e6e1" opacity="0.25"/><circle cx="82.5" cy="146.6" r="0.7" fill="#e8e6e1" opacity="0.61"/><circle cx="198.6" cy="496.0" r="1.8" fill="#e8e6e1" opacity="0.46"/><circle cx="18.2" cy="163.9" r="1.7" fill="#e8e6e1" opacity="0.18"/><circle cx="289.6" cy="471.2" r="1.7" fill="#e8e6e1" opacity="0.24"/><circle cx="199.2" cy="136.4" r="1.1" fill="#e8e6e1" opacity="0.51"/><circle cx="70.0" cy="109.3" r="2.0" fill="#e8e6e1" opacity="0.29"/><circle cx="174.1" cy="314.5" r="2.2" fill="#e8e6e1" opacity="0.25"/><circle cx="101.8" cy="466.1" r="1.5" fill="#e8e6e1" opacity="0.29"/><circle cx="182.0" cy="141.1" r="0.6" fill="#e8e6e1" opacity="0.43"/><circle cx="45.9" cy="527.1" r="1.6" fill="#e8e6e1" opacity="0.63"/><circle cx="208.0" cy="302.3" r="1.2" fill="#e8e6e1" opacity="0.44"/><circle cx="322.3" cy="196.1" r="0.9" fill="#e8e6e1" opacity="0.52"/><circle cx="12.1" cy="363.9" r="2.0" fill="#e8e6e1" opacity="0.49"/><circle cx="229.4" cy="91.7" r="0.7" fill="#e8e6e1" opacity="0.16"/><circle cx="365.5" cy="519.0" r="1.2" fill="#e8e6e1" opacity="0.27"/><circle cx="46.4" cy="77.0" r="1.2" fill="#e8e6e1" opacity="0.58"/><circle cx="103.3" cy="530.0" r="1.7" fill="#e8e6e1" opacity="0.15"/><circle cx="160.8" cy="303.8" r="2.2" fill="#e8e6e1" opacity="0.63"/><circle cx="310.7" cy="57.2" r="0.9" fill="#e8e6e1" opacity="0.16"/><circle cx="127.3" cy="542.5" r="0.7" fill="#e8e6e1" opacity="0.17"/><circle cx="70.3" cy="276.5" r="0.9" fill="#e8e6e1" opacity="0.47"/><circle cx="169.9" cy="366.7" r="1.5" fill="#e8e6e1" opacity="0.59"/><circle cx="226.7" cy="310.4" r="1.7" fill="#e8e6e1" opacity="0.37"/><circle cx="75.2" cy="532.2" r="2.1" fill="#e8e6e1" opacity="0.57"/><circle cx="295.0" cy="54.3" r="1.1" fill="#e8e6e1" opacity="0.62"/><circle cx="50.7" cy="385.5" r="1.1" fill="#e8e6e1" opacity="0.40"/><circle cx="234.7" cy="531.8" r="1.3" fill="#e8e6e1" opacity="0.15"/><circle cx="222.7" cy="160.5" r="1.6" fill="#e8e6e1" opacity="0.17"/><circle cx="26.5" cy="440.3" r="2.0" fill="#e8e6e1" opacity="0.28"/><circle cx="230.2" cy="251.8" r="1.3" fill="#e8e6e1" opacity="0.45"/><circle cx="114.2" cy="193.6" r="1.7" fill="#e8e6e1" opacity="0.59"/><circle cx="78.3" cy="71.1" r="1.8" fill="#e8e6e1" opacity="0.64"/><circle cx="82.7" cy="507.5" r="0.7" fill="#e8e6e1" opacity="0.59"/><circle cx="6.5" cy="348.0" r="1.5" fill="#e8e6e1" opacity="0.48"/><circle cx="145.5" cy="359.4" r="1.8" fill="#e8e6e1" opacity="0.19"/>
  <text x="48" y="150" font-family="'SFMono-Regular','Menlo',monospace" font-size="20" fill="#b8a877" letter-spacing="3">01</text>
  <text x="48" y="330" font-family="'Noto Serif SC','Songti SC',serif" font-size="58" fill="#e8e6e1" letter-spacing="8">三体</text>
  <text x="50" y="390" font-family="'PingFang SC','Microsoft YaHei',sans-serif" font-size="24" fill="#9aa0a8" letter-spacing="6">地球往事</text>
</svg>