<svg xmlns="http://www.w3.org/2000/svg" width="1600" height="900" viewBox="0 0 1600 900">
  <defs>
    <linearGradient id="bg" x1="0" y1="0" x2="0.6" y2="1">
      <stop offset="0" stop-color="#0a0e14"/><stop offset="1" stop-color="#2f8f8f"/>
    </linearGradient>
    <radialGradient id="glow" cx="0.78" cy="0.18" r="0.75">
      <stop offset="0" stop-color="#2f8f8f" stop-opacity="0.5"/><stop offset="1" stop-color="#2f8f8f" stop-opacity="0"/>
    </radialGradient>
  </defs><rect width="1600" height="900" fill="url(#bg)"/><rect width="1600" height="900" fill="url(#glow)"/>
  <circle cx="1204.3" cy="411.6" r="0.8" fill="#e8e6e1" opacity="0.29"/><circle cx="30.2" cy="542.3" r="0.9" fill="#e8e6e1" opacity="0.17"/><circle cx="1509.4" cy="211.6" r="0.9" fill="#e8e6e1" opacity="0.49"/><circle cx="1322.4" cy="33.4" r="0.9" fill="#e8e6e1" opacity="0.44"/><circle cx="825.1" cy="594.4" r="1.5" fill="#e8e6e1" opacity="0.29"/><circle cx="366.6" cy="223.4" r="0.7" fill="#e8e6e1" opacity="0.47"/><circle cx="1217.8" cy="496.5" r="1.4" fill="#e8e6e1" opacity="0.38"/><circle cx="348.7" cy="270.7" r="1.8" fill="#e8e6e1" opacity="0.36"/><circle cx="4.4" cy="458.8" r="1.3" fill="#e8e6e1" opacity="0.26"/><circle cx="126.2" cy="266.8" r="1.8" fill="#e8e6e1" opacity="0.51"/><circle cx="572.4" cy="509.5" r="1.0" fill="#e8e6e1" opacity="0.43"/><circle cx="1416.3" cy="622.2" r="0.6" fill="#e8e6e1" opacity="0.45"/><circle cx="320.0" cy="722.5" r="1.0" fill="#e8e6e1" opacity="0.35"/><circle cx="318.1" cy="467.5" r="1.3" fill="#e8e6e1" opacity="0.34"/><circle cx="952.3" cy="91.6" r="0.6" fill="#e8e6e1" opacity="0.14"/><circle cx="688.1" cy="56.4" r="0.9" fill="#e8e6e1" opacity="0.51"/><circle cx="500.8" cy="186.0" r="1.5" fill="#e8e6e1" opacity="0.29"/><circle cx="38.9" cy="49.6" r="1.7" fill="#e8e6e1" opacity="0.20"/><circle cx="13.3" cy="780.4" r="0.9" fill="#e8e6e1" opacity="0.20"/><circle cx="196.2" cy="576.0" r="1.4" fill="#e8e6e1" opacity="0.49"/><circle cx="1201.4" cy="402.5" r="1.9" fill="#e8e6e1" opacity="0.17"/><circle cx="1063.7" cy="259.7" r="0.9" fill="#e8e6e1" opacity="0.44"/><circle cx="382.2" cy="274.1" r="1.2" fill="#e8e6e1" opacity="0.12"/><circle cx="496.9" cy="651.0" r="1.7" fill="#e8e6e1" opacity="0.18"/><circle cx="852.1" cy="369.7" r="1.8" fill="#e8e6e1" opacity="0.23"/><circle cx="1336.3" cy="719.0" r="1.1" fill="#e8e6e1" opacity="0.20"/><circle cx="425.3" cy="105.0" r="1.3" fill="#e8e6e1" opacity="0.25"/><circle cx="90.8" cy="233.8" r="1.5" fill="#e8e6e1" opacity="0.18"/><circle cx="313.5" cy="713.0" r="1.5" fill="#e8e6e1" opacity="0.26"/><circle cx="647.8" cy="579.7" r="2.0" fill="#e8e6e1" opacity="0.12"/><circle cx="906.4" cy="602.5" r="0.9" fill="#e8e6e1" opacity="0.18"/><circle cx="261.9" cy="432.5" r="1.7" fill="#e8e6e1" opacity="0.22"/><circle cx="440.6" cy="871.7" r="1.1" fill="#e8e6e1" opacity="0.33"/><circle cx="40.0" cy="657.5" r="1.3" fill="#e8e6e1" opacity="0.18"/><circle cx="163.2" cy="198.2" r="1.8" fill="#e8e6e1" opacity="0.42"/><circle cx="1127.0" cy="84.5" r="1.0" fill="#e8e6e1" opacity="0.35"/><circle cx="209.9" cy="827.5" r="1.1" fill="#e8e6e1" opacity="0.26"/><circle cx="309.4" cy="134.3" r="1.1" fill="#e8e6e1" opacity="0.47"/><circle cx="901.9" cy="571.8" r="1.6" fill="#e8e6e1" opacity="0.29"/><circle cx="1271.6" cy="314.1" r="1.2" fill="#e8e6e1" opacity="0.21"/><circle cx="46.8" cy="505.3" r="1.8" fill="#e8e6e1" opacity="0.17"/><circle cx="102.6" cy="81.5" r="1.4" fill="#e8e6e1" opacity="0.15"/><circle cx="1311.3" cy="244.0" r="1.7" fill="#e8e6e1" opacity="0.27"/><circle cx="477.3" cy="498.4" r="1.3" fill="#e8e6e1" opacity="0.26"/><circle cx="489.1" cy="838.1" r="0.9" fill="#e8e6e1" opacity="0.37"/><circle cx="1272.9" cy="574.7" r="1.4" fill="#e8e6e1" opacity="0.52"/><circle cx="854.5" cy="281.6" r="1.2" fill="#e8e6e1" opacity="0.46"/><circle cx="292.8" cy="682.9" r="1.2" fill="#e8e6e1" opacity="0.15"/><circle cx="914.6" cy="655.6" r="1.8" fill="#e8e6e1" opacity="0.17"/><circle cx="363.1" cy="640.6" r="1.7" fill="#e8e6e1" opacity="0.23"/><circle cx="589.7" cy="856.1" r="1.9" fill="#e8e6e1" opacity="0.48"/><circle cx="508.6" cy="509.1" r="0.6" fill="#e8e6e1" opacity="0.42"/><circle cx="333.4" cy="878.1" r="1.9" fill="#e8e6e1" opacity="0.22"/><circle cx="30.5" cy="804.3" r="0.6" fill="#e8e6e1" opacity="0.18"/><circle cx="680.4" cy="695.8" r="1.6" fill="#e8e6e1" opacity="0.30"/><circle cx="176.0" cy="793.5" r="1.7" fill="#e8e6e1" opacity="0.23"/><circle cx="747.6" cy="569.0" r="1.1" fill="#e8e6e1" opacity="0.48"/><circle cx="333.7" cy="785.6" r="0.6" fill="#e8e6e1" opacity="0.50"/><circle cx="19.0" cy="304.4" r="0.8" fill="#e8e6e1" opacity="0.41"/><circle cx="936.8" cy="167.4" r="1.6" fill="#e8e6e1" opacity="0.42"/><circle cx="624.4" cy="409.6" r="1.2" fill="#e8e6e1" opacity="0.46"/><circle cx="390.4" cy="831.2" r="1.7" fill="#e8e6e1" opacity="0.45"/><circle cx="442.7" cy="293.2" r="0.7" fill="#e8e6e1" opacity="0.15"/><circle cx="1483.3" cy="843.7" r="1.7" fill="#e8e6e1" opacity="0.34"/><circle cx="278.3" cy="222.2" r="1.1" fill="#e8e6e1" opacity="0.17"/><circle cx="1316.4" cy="765.2" r="0.8" fill="#e8e6e1" opacity="0.13"/><circle cx="1023.4" cy="201.1" r="1.3" fill="#e8e6e1" opacity="0.42"/><circle cx="586.2" cy="443.5" r="1.8" fill="#e8e6e1" opacity="0.18"/><circle cx="553.2" cy="653.3" r="1.7" fill="#e8e6e1" opacity="0.51"/><circle cx="1144.7" cy="74.8" r="1.2" fill="#e8e6e1" opacity="0.23"/><circle cx="497.3" cy="724.1" r="0.9" fill="#e8e6e1" opacity="0.39"/><circle cx="1386.2" cy="134.4" r="1.0" fill="#e8e6e1" opacity="0.16"/><circle cx="201.3" cy="272.8" r="1.9" fill="#e8e6e1" opacity="0.35"/><circle cx="149.0" cy="748.7" r="1.4" fill="#e8e6e1" opacity="0.29"/><circle cx="614.1" cy="311.6" r="1.7" fill="#e8e6e1" opacity="0.44"/><circle cx="1265.8" cy="427.1" r="1.3" fill="#e8e6e1" opacity="0.42"/><circle cx="1477.9" cy="621.8" r="2.0" fill="#e8e6e1" opacity="0.27"/><circle cx="91.2" cy="573.6" r="0.8" fill="#e8e6e1" opacity="0.36"/><circle cx="1188.3" cy="102.9" r="0.6" fill="#e8e6e1" opacity="0.47"/><circle cx="128.3" cy="650.3" r="0.6" fill="#e8e6e1" opacity="0.44"/><circle cx="647.4" cy="212.4" r="1.0" fill="#e8e6e1" opacity="0.39"/><circle cx="1595.4" cy="24.6" r="0.9" fill="#e8e6e1" opacity="0.36"/><circle cx="397.4" cy="210.2" r="1.4" fill="#e8e6e1" opacity="0.35"/><circle cx="1390.2" cy="839.0" r="1.0" fill="#e8e6e1" opacity="0.28"/><circle cx="963.4" cy="774.4" r="1.5" fill="#e8e6e1" opacity="0.20"/><circle cx="1177.4" cy="781.5" r="1.7" fill="#e8e6e1" opacity="0.32"/><circle cx="1479.5" cy="640.0" r="0.7" fill="#e8e6e1" opacity="0.35"/><circle cx="1209.9" cy="61.6" r="1.1" fill="#e8e6e1" opacity="0.51"/><circle cx="1052.3" cy="200.8" r="0.7" fill="#e8e6e1" opacity="0.31"/><circle cx="1466.9" cy="109.6" r="0.8" fill="#e8e6e1" opacity="0.28"/><circle cx="867.6" cy="800.0" r="0.9" fill="#e8e6e1" opacity="0.51"/><circle cx="60.8" cy="109.0" r="0.6" fill="#e8e6e1" opacity="0.36"/><circle cx="843.4" cy="306.6" r="1.3" fill="#e8e6e1" opacity="0.12"/><circle cx="1003.4" cy="377.7" r="1.0" fill="#e8e6e1" opacity="0.52"/><circle cx="144.7" cy="279.7" r="1.6" fill="#e8e6e1" opacity="0.26"/><circle cx="290.8" cy="544.4" r="1.4" fill="#e8e6e1" opacity="0.26"/><circle cx="1325.8" cy="428.0" r="1.8" fill="#e8e6e1" opacity="0.34"/><circle cx="691.3" cy="897.6" r="2.0" fill="#e8e6e1" opacity="0.25"/><circle cx="686.7" cy="847.7" r="1.1" fill="#e8e6e1" opacity="0.42"/><circle cx="1077.4" cy="164.7" r="2.0" fill="#e8e6e1" opacity="0.43"/><circle cx="272.3" cy="214.9" r="1.7" fill="#e8e6e1" opacity="0.48"/><circle cx="100.5" cy="738.8" r="1.8" fill="#e8e6e1" opacity="0.33"/><circle cx="339.3" cy="341.3" r="0.8" fill="#e8e6e1" opacity="0.21"/><circle cx="1010.4" cy="518.8" r="1.0" fill="#e8e6e1" opacity="0.32"/><circle cx="1338.3" cy="292.4" r="1.1" fill="#e8e6e1" opacity="0.28"/><circle cx="1075.9" cy="528.9" r="0.7" fill="#e8e6e1" opacity="0.32"/><circle cx="25.2" cy="393.6" r="0.9" fill="#e8e6e1" opacity="0.18"/><circle cx="350.1" cy="335.0" r="1.0" fill="#e8e6e1" opacity="0.15"/><circle cx="324.4" cy="477.6" r="1.0" fill="#e8e6e1" opacity="0.12"/><circle cx="874.9" cy="856.2" r="1.1" fill="#e8e6e1" opacity="0.42"/><circle cx="1407.0" cy="416.0" r="0.7" fill="#e8e6e1" opacity="0.27"/><circle cx="174.9" cy="806.7" r="1.0" fill="#e8e6e1" opacity="0.27"/><circle cx="669.3" cy="451.8" r="1.1" fill="#e8e6e1" opacity="0.51"/><circle cx="34.2" cy="806.1" r="1.7" fill="#e8e6e1" opacity="0.49"/><circle cx="1538.9" cy="310.6" r="1.0" fill="#e8e6e1" opacity="0.30"/><circle cx="671.9" cy="780.9" r="1.6" fill="#e8e6e1" opacity="0.12"/><circle cx="1348.8" cy="73.1" r="1.3" fill="#e8e6e1" opacity="0.19"/><circle cx="914.6" cy="475.6" r="0.8" fill="#e8e6e1" opacity="0.17"/><circle cx="1338.4" cy="509.5" r="0.8" fill="#e8e6e1" opacity="0.45"/><circle cx="217.3" cy="297.3" r="0.8" fill="#e8e6e1" opacity="0.31"/><circle cx="1484.1" cy="482.9" r="1.4" fill="#e8e6e1" opacity="0.47"/><circle cx="517.0" cy="574.6" r="0.8" fill="#e8e6e1" opacity="0.47"/><circle cx="264.8" cy="190.8" r="1.3" fill="#e8e6e1" opacity="0.29"/><circle cx="1021.5" cy="494.9" r="0.8" fill="#e8e6e1" opacity="0.21"/><circle cx="1505.5" cy="433.5" r="1.1" fill="#e8e6e1" opacity="0.37"/><circle cx="316.7" cy="240.6" r="1.3" fill="#e8e6e1" opacity="0.46"/><circle cx="806.6" cy="355.7" r="1.6" fill="#e8e6e1" opacity="0.36"/><circle cx="78.2" cy="864.8" r="0.9" fill="#e8e6e1" opacity="0.45"/><circle cx="1591.2" cy="237.3" r="1.6" fill="#e8e6e1" opacity="0.49"/><circle cx="1338.3" cy="773.3" r="0.7" fill="#e8e6e1" opacity="0.32"/><circle cx="1572.9" cy="0.1" r="1.2" fill="#e8e6e1" opacity="0.39"/><circle cx="1036.9" cy="464.8" r="0.9" fill="#e8e6e1" opacity="0.42"/><circle cx="924.1" cy="209.9" r="1.9" fill="#e8e6e1" opacity="0.40"/><circle cx="92.9" cy="31.4" r="1.7" fill="#e8e6e1" opacity="0.17"/><circle cx="644.2" cy="91.5" r="1.1" fill="#e8e6e1" opacity="0.33"/><circle cx="1082.5" cy="734.0" r="0.7" fill="#e8e6e1" opacity="0.35"/><circle cx="153.8" cy="876.1" r="1.5" fill="#e8e6e1" opacity="0.41"/><circle cx="900.4" cy="37.9" r="1.4" fill="#e8e6e1" opacity="0.46"/><circle cx="424.8" cy="499.9" r="1.2" fill="#e8e6e1" opacity="0.47"/><circle cx="1324.2" cy="240.4" r="0.7" fill="#e8e6e1" opacity="0.15"/><circle cx="160.5" cy="401.8" r="0.9" fill="#e8e6e1" opacity="0.14"/><circle cx="1300.4" cy="731.0" r="1.5" fill="#e8e6e1" opacity="0.50"/><circle cx="154.9" cy="506.6" r="1.0" fill="#e8e6e1" opacity="0.15"/><circle cx="1142.6" cy="498.0" r="1.1" fill="#e8e6e1" opacity="0.13"/><circle cx="167.8" cy="779.1" r="1.3" fill="#e8e6e1" opacity="0.18"/><circle cx="491.1" cy="822.2" r="0.8" fill="#e8e6e1" opacity="0.22"/><circle cx="327.6" cy="503.4" r="1.7" fill="#e8e6e1" opacity="0.25"/><circle cx="878.7" cy="92.3" r="1.8" fill="#e8e6e1" opacity="0.39"/><circle cx="490.5" cy="509.4" r="2.0" fill="#e8e6e1" opacity="0.24"/><circle cx="817.0" cy="140.8" r="0.7" fill="#e8e6e1" opacity="0.33"/><circle cx="900.1" cy="158.2" r="1.0" fill="#e8e6e1" opacity="0.49"/><circle cx="822.5" cy="611.5" r="1.2" fill="#e8e6e1" opacity="0.42"/><circle cx="157.8" cy="6.6" r="1.2" fill="#e8e6e1" opacity="0.43"/><circle cx="553.7" cy="481.1" r="1.5" fill="#e8e6e1" opacity="0.13"/><circle cx="1033.4" cy="442.0" r="1.3" fill="#e8e6e1" opacity="0.51"/><circle cx="74.0" cy="894.1" r="1.8" fill="#e8e6e1" opacity="0.38"/><circle cx="864.4" cy="697.5" r="1.0" fill="#e8e6e1" opacity="0.14"/><circle cx="629.3" cy="560.3" r="1.4" fill="#e8e6e1" opacity="0.35"/><circle cx="341.4" cy="569.8" r="0.9" fill="#e8e6e1" opacity="0.43"/><circle cx="576.7" cy="278.0" r="1.5" fill="#e8e6e1" opacity="0.51"/><circle cx="1309.9" cy="795.3" r="0.7" fill="#e8e6e1" opacity="0.18"/><circle cx="1036.6" cy="89.3" r="2.0" fill="#e8e6e1" opacity="0.15"/><circle cx="842.8" cy="751.7" r="0.7" fill="#e8e6e1" opacity="0.46"/><circle cx="1468.6" cy="513.5" r="0.8" fill="#e8e6e1" opacity="0.44"/><circle cx="726.9" cy="335.5" r="1.9" fill="#e8e6e1" opacity="0.48"/><circle cx="571.7" cy="89.6" r="1.9" fill="#e8e6e1" opacity="0.38"/><circle cx="474.1" cy="238.8" r="1.8" fill="#e8e6e1" opacity="0.51"/><circle cx="955.7" cy="476.3" r="1.4" fill="#e8e6e1" opacity="0.34"/><circle cx="294.7" cy="594.0" r="1.6" fill="#e8e6e1" opacity="0.15"/><circle cx="1320.9" cy="613.9" r="1.4" fill="#e8e6e1" opacity="0.15"/><circle cx="572.9" cy="406.9" r="1.7" fill="#e8e6e1" opacity="0.17"/><circle cx="592.2" cy="147.8" r="1.3" fill="#e8e6e1" opacity="0.25"/><circle cx="1331.0" cy="168.4" r="1.4" fill="#e8e6e1" opacity="0.31"/><circle cx="1166.4" cy="196.8" r="1.5" fill="#e8e6e1" opacity="0.38"/><circle cx="1282.7" cy="409.0" r="1.5" fill="#e8e6e1" opacity="0.16"/><circle cx="832.3" cy="575.5" r="1.6" fill="#e8e6e1" opacity="0.33"/><circle cx="178.0" cy="833.6" r="1.0" fill="#e8e6e1" opacity="0.27"/><circle cx="136.4" cy="541.2" r="1.2" fill="#e8e6e1" opacity="0.23"/><circle cx="1372.6" cy="528.0" r="1.0" fill="#e8e6e1" opacity="0.40"/><circle cx="605.9" cy="838.1" r="1.0" fill="#e8e6e1" opacity="0.15"/><circle cx="1190.3" cy="525.6" r="1.4" fill="#e8e6e1" opacity="0.36"/><circle cx="333.3" cy="517.7" r="1.7" fill="#e8e6e1" opacity="0.22"/><circle cx="402.5" cy="831.1" r="1.6" fill="#e8e6e1" opacity="0.40"/><circle cx="1220.9" cy="323.1" r="1.9" fill="#e8e6e1" opacity="0.15"/><circle cx="285.3" cy="196.1" r="1.7" fill="#e8e6e1" opacity="0.39"/><circle cx="531.0" cy="664.0" r="1.6" fill="#e8e6e1" opacity="0.49"/><circle cx="1153.9" cy="776.3" r="1.6" fill="#e8e6e1" opacity="0.36"/><circle cx="1166.7" cy="86.5" r="1.0" fill="#e8e6e1" opacity="0.18"/><circle cx="1496.8" cy="769.9" r="1.0" fill="#e8e6e1" opacity="0.38"/><circle cx="803.0" cy="524.4" r="0.8" fill="#e8e6e1" opacity="0.38"/><circle cx="1127.2" cy="788.6" r="1.9" fill="#e8e6e1" opacity="0.30"/><circle cx="12.1" cy="223.6" r="1.3" fill="#e8e6e1" opacity="0.51"/><circle cx="149.7" cy="322.7" r="1.0" fill="#e8e6e1" opacity="0.25"/><circle cx="347.8" cy="426.4" r="1.0" fill="#e8e6e1" opacity="0.15"/><circle cx="54.9" cy="501.0" r="0.9" fill="#e8e6e1" opacity="0.44"/><circle cx="960.2" cy="249.2" r="1.6" fill="#e8e6e1" opacity="0.16"/><circle cx="1086.3" cy="680.1" r="0.6" fill="#e8e6e1" opacity="0.37"/><circle cx="386.0" cy="319.5" r="1.4" fill="#e8e6e1" opacity="0.48"/><circle cx="461.0" cy="221.7" r="1.6" fill="#e8e6e1" opacity="0.42"/><circle cx="1215.8" cy="681.0" r="0.9" fill="#e8e6e1" opacity="0.20"/><circle cx="1490.3" cy="873.1" r="1.0" fill="#e8e6e1" opacity="0.40"/><circle cx="1230.8" cy="40.2" r="1.7" fill="#e8e6e1" opacity="0.14"/><circle cx="1230.1" cy="729.0" r="1.1" fill="#e8e6e1" opacity="0.47"/><circle cx="141.0" cy="719.5" r="1.4" fill="#e8e6e1" opacity="0.27"/><circle cx="470.9" cy="779.5" r="1.9" fill="#e8e6e1" opacity="0.38"/><circle cx="1268.2" cy="25.9" r="0.6" fill="#e8e6e1" opacity="0.39"/><circle cx="1209.4" cy="21.1" r="1.8" fill="#e8e6e1" opacity="0.23"/><circle cx="1140.9" cy="390.8" r="2.0" fill="#e8e6e1" opacity="0.37"/><circle cx="1209.7" cy="561.1" r="1.0" fill="#e8e6e1" opacity="0.37"/><circle cx="1121.3" cy="46.5" r="0.7" fill="#e8e6e1" opacity="0.27"/><circle cx="1553.1" cy="690.6" r="1.4" fill="#e8e6e1" opacity="0.46"/><circle cx="290.8" cy="52.0" r="1.0" fill="#e8e6e1" opacity="0.47"/><circle cx="1260.3" cy="80.4" r="0.7" fill="#e8e6e1" opacity="0.51"/><circle cx="701.0" cy="354.7" r="1.2" fill="#e8e6e1" opacity="0.32"/><circle cx="797.4" cy="582.3" r="0.6" fill="#e8e6e1" opacity="0.26"/><circle cx="567.6" cy="37.0" r="1.9" fill="#e8e6e1" opacity="0.19"/><circle cx="1515.4" cy="477.6" r="1.9" fill="#e8e6e1" opacity="0.21"/><circle cx="834.4" cy="796.1" r="1.9" fill="#e8e6e1" opacity="0.24"/><circle cx="526.0" cy="51.8" r="0.7" fill="#e8e6e1" opacity="0.40"/><circle cx="1134.7" cy="418.6" r="1.5" fill="#e8e6e1" opacity="0.13"/><circle cx="139.3" cy="228.0" r="1.9" fill="#e8e6e1" opacity="0.13"/><circle cx="589.5" cy="133.5" r="1.9" fill="#e8e6e1" opacity="0.36"/><circle cx="281.7" cy="437.1" r="1.3" fill="#e8e6e1" opacity="0.24"/><circle cx="648.8" cy="523.8" r="2.0" fill="#e8e6e1" opacity="0.22"/><circle cx="287.8" cy="137.1" r="0.7" fill="#e8e6e1" opacity="0.29"/><circle cx="1534.0" cy="217.0" r="1.3" fill="#e8e6e1" opacity="0.52"/><circle cx="1147.1" cy="256.0" r="1.9" fill="#e8e6e1" opacity="0.47"/><circle cx="1367.2" cy="25.4" r="1.2" fill="#e8e6e1" opacity="0.36"/><circle cx="963.7" cy="793.9" r="1.3" fill="#e8e6e1" opacity="0.20"/><circle cx="620.7" cy="236.9" r="1.2" fill="#e8e6e1" opacity="0.23"/><circle cx="1501.9" cy="801.4" r="1.4" fill="#e8e6e1" opacity="0.18"/><circle cx="1038.0" cy="708.4" r="0.9" fill="#e8e6e1" opacity="0.37"/><circle cx="1595.6" cy="592.6" r="1.7" fill="#e8e6e1" opacity="0.18"/><circle cx="1056.7" cy="187.4" r="1.6" fill="#e8e6e1" opacity="0.17"/><circle cx="1463.2" cy="818.7" r="1.3" fill="#e8e6e1" opacity="0.28"/><circle cx="246.2" cy="754.3" r="1.6" fill="#e8e6e1" opacity="0.22"/><circle cx="65.0" cy="174.3" r="1.7" fill="#e8e6e1" opacity="0.21"/><circle cx="1174.5" cy="219.9" r="1.0" fill="#e8e6e1" opacity="0.15"/><circle cx="1215.7" cy="245.4" r="1.4" fill="#e8e6e1" opacity="0.20"/><circle cx="740.4" cy="275.6" r="1.7" fill="#e8e6e1" opacity="0.14"/>
  <line x1="0" y1="0" x2="0" y2="900" stroke="#e8e6e1" stroke-width="0.5" opacity="0.05"/><line x1="96" y1="0" x2="96" y2="900" stroke="#e8e6e1" stroke-width="0.5" opacity="0.05"/><line x1="192" y1="0" x2="192" y2="900" stroke="#e8e6e1" stroke-width="0.5" opacity="0.05"/><line x1="288" y1="0" x2="288" y2="900" stroke="#e8e6e1" stroke-width="0.5" opacity="0.05"/><line x1="384" y1="0" x2="384" y2="900" stroke="#e8e6e1" stroke-width="0.5" opacity="0.05"/><line x1="480" y1="0" x2="480" y2="900" stroke="#e8e6e1" stroke-width="0.5" opacity="0.05"/><line x1="576" y1="0" x2="576" y2="900" stroke="#e8e6e1" stroke-width="0.5" opacity="0.05"/><line x1="672" y1="0" x2="672" y2="900" stroke="#e8e6e1" stroke-width="0.5" opacity="0.05"/><line x1="768" y1="0" x2="768" y2="900" stroke="#e8e6e1" stroke-width="0.5" opacity="0.05"/><line x1="864" y1="0" x2="864" y2="900" stroke="#e8e6e1" stroke-width="0.5" opacity="0.05"/><line x1="960" y1="0" x2="960" y2="900" stroke="#e8e6e1" stroke-width="0.5" opacity="0.05"/><line x1="1056" y1="0" x2="1056" y2="900" stroke="#e8e6e1" stroke-width="0.5" opacity="0.05"/><line x1="1152" y1="0" x2="1152" y2="900" stroke="#e8e6e1" stroke-width="0.5" opacity="0.05"/><line x1="1248" y1="0" x2="1248" y2="900" stroke="#e8e6e1" stroke-width="0.5" opacity="0.05"/><line x1="1344" y1="0" x2="1344" y2="900" stroke="#e8e6e1" stroke-width="0.5" opacity="0.05"/><line x1="1440" y1="0" x2="1440" y2="900" stroke="#e8e6e1" stroke-width="0.5" opacity="0.05"/><line x1="1536" y1="0" x2="1536" y2="900" stroke="#e8e6e1" stroke-width="0.5" opacity="0.05"/><line x1="0" y1="0" x2="1600" y2="0" stroke="#e8e6e1" stroke-width="0.5" opacity="0.05"/><line x1="0" y1="96" x2="1600" y2="96" stroke="#e8e6e1" stroke-width="0.5" opacity="0.05"/><line x1="0" y1="192" x2="1600" y2="192" stroke="#e8e6e1" stroke-width="0.5" opacity="0.05"/><line x1="0" y1="288" x2="1600" y2="288" stroke="#e8e6e1" stroke-width="0.5" opacity="0.05"/><line x1="0" y1="384" x2="1600" y2="384" stroke="#e8e6e1" stroke-width="0.5" opacity="0.05"/><line x1="0" y1="480" x2="1600" y2="480" stroke="#e8e6e1" stroke-width="0.5" opacity="0.05"/><line x1="0" y1="576" x2="1600" y2="576" stroke="#e8e6e1" stroke-width="0.5" opacity="0.05"/><line x1="0" y1="672" x2="1600" y2="672" stroke="#e8e6e1" stroke-width="0.5" opacity="0.05"/><line x1="0" y1="768" x2="1600" y2="768" stroke="#e8e6e1" stroke-width="0.5" opacity="0.05"/><line x1="0" y1="864" x2="1600" y2="864" stroke="#e8e6e1" stroke-width="0.5" opacity="0.05"/>
  <text x="1500" y="120" text-anchor="end" font-family="'SFMono-Regular','Menlo','Consolas',monospace" font-size="20" fill="#2f8f8f" letter-spacing="6">广播纪元 1–3 年</text>
  <circle cx="1330" cy="170" r="120" fill="none" stroke="#2f8f8f" stroke-width="1" opacity="0.35"/>
  <circle cx="1330" cy="170" r="70" fill="none" stroke="#2f8f8f" stroke-width="1" opacity="0.5"/>
  <rect x="1500" y="504" width="1.5" height="120" fill="#2f8f8f" opacity="0.7"/>
  <text x="120" y="560" font-family="'Noto Serif CJK SC','Songti SC','STSong','SimSun',serif" font-size="132" fill="#e8e6e1" letter-spacing="14">坐标已暴露</text>
  <line x1="128" y1="616" x2="820" y2="616" stroke="#2f8f8f" stroke-width="2" opacity="0.8"/>
  <text x="124" y="676" font-family="'Noto Serif CJK SC','Songti SC','STSong','SimSun',serif" font-size="44" fill="#b8a877" letter-spacing="10">广播纪元</text>
  <text x="126" y="728" font-family="'PingFang SC','Hiragino Sans GB','Microsoft YaHei',sans-serif" font-size="21" fill="#9aa0a8" letter-spacing="2" opacity="0.9">公元 2276 年，威慑失败，引力波天线向宇宙广播了三体世界的坐标。等待人类的，是来自宇宙深处的</text>
  <text x="1576" y="878" text-anchor="end" font-family="'SFMono-Regular','Menlo','Consolas',monospace" font-size="13" fill="#e8e6e1" opacity="0.45" letter-spacing="3">三体世界图鉴</text>
  <g><rect x="16" y="886" width="1568" height="2" fill="#2f8f8f" opacity="0.8"/><rect x="28" y="886" width="1544" height="2" fill="#2f8f8f" opacity="0.5800000000000001"/><rect x="40" y="886" width="1520" height="2" fill="#2f8f8f" opacity="0.36000000000000004"/></g>
</svg>