<svg xmlns="http://www.w3.org/2000/svg" width="960" height="540" viewBox="0 0 960 540">
  <defs>
    <linearGradient id="bg" x1="0" y1="0" x2="0.6" y2="1">
      <stop offset="0" stop-color="#0a0e14"/><stop offset="1" stop-color="#8a6d3b"/>
    </linearGradient>
    <radialGradient id="glow" cx="0.78" cy="0.18" r="0.75">
      <stop offset="0" stop-color="#8a6d3b" stop-opacity="0.5"/><stop offset="1" stop-color="#8a6d3b" stop-opacity="0"/>
    </radialGradient>
  </defs><rect width="960" height="540" fill="url(#bg)"/><rect width="960" height="540" fill="url(#glow)"/>
  <circle cx="406.3" cy="73.3" r="0.8" fill="#e8e6e1" opacity="0.39"/><circle cx="38.5" cy="323.7" r="0.9" fill="#e8e6e1" opacity="0.32"/><circle cx="463.1" cy="339.7" r="1.9" fill="#e8e6e1" opacity="0.32"/><circle cx="486.1" cy="127.9" r="1.0" fill="#e8e6e1" opacity="0.39"/><circle cx="529.1" cy="227.1" r="1.1" fill="#e8e6e1" opacity="0.48"/><circle cx="573.7" cy="406.3" r="1.8" fill="#e8e6e1" opacity="0.30"/><circle cx="814.3" cy="82.1" r="0.7" fill="#e8e6e1" opacity="0.39"/><circle cx="22.0" cy="190.7" r="0.9" fill="#e8e6e1" opacity="0.22"/><circle cx="651.6" cy="460.9" r="1.9" fill="#e8e6e1" opacity="0.33"/><circle cx="230.0" cy="363.9" r="1.2" fill="#e8e6e1" opacity="0.42"/><circle cx="643.4" cy="202.5" r="2.0" fill="#e8e6e1" opacity="0.46"/><circle cx="957.0" cy="180.6" r="0.9" fill="#e8e6e1" opacity="0.16"/><circle cx="588.7" cy="183.8" r="0.7" fill="#e8e6e1" opacity="0.29"/><circle cx="757.2" cy="17.8" r="1.8" fill="#e8e6e1" opacity="0.47"/><circle cx="477.2" cy="237.2" r="1.9" fill="#e8e6e1" opacity="0.40"/><circle cx="818.8" cy="15.0" r="1.8" fill="#e8e6e1" opacity="0.42"/><circle cx="781.2" cy="533.8" r="1.9" fill="#e8e6e1" opacity="0.50"/><circle cx="234.6" cy="183.1" r="1.8" fill="#e8e6e1" opacity="0.30"/><circle cx="902.7" cy="74.6" r="0.7" fill="#e8e6e1" opacity="0.34"/><circle cx="478.8" cy="270.7" r="2.0" fill="#e8e6e1" opacity="0.40"/><circle cx="136.2" cy="485.1" r="1.2" fill="#e8e6e1" opacity="0.19"/><circle cx="472.2" cy="351.5" r="1.6" fill="#e8e6e1" opacity="0.24"/><circle cx="229.7" cy="462.7" r="1.5" fill="#e8e6e1" opacity="0.38"/><circle cx="784.2" cy="73.5" r="1.8" fill="#e8e6e1" opacity="0.23"/><circle cx="939.4" cy="468.4" r="1.2" fill="#e8e6e1" opacity="0.41"/><circle cx="820.8" cy="454.3" r="1.1" fill="#e8e6e1" opacity="0.45"/><circle cx="386.8" cy="371.6" r="1.4" fill="#e8e6e1" opacity="0.43"/><circle cx="422.8" cy="63.6" r="1.9" fill="#e8e6e1" opacity="0.26"/><circle cx="726.0" cy="316.3" r="1.3" fill="#e8e6e1" opacity="0.15"/><circle cx="727.5" cy="47.6" r="0.7" fill="#e8e6e1" opacity="0.14"/><circle cx="363.6" cy="248.3" r="0.9" fill="#e8e6e1" opacity="0.13"/><circle cx="655.3" cy="434.0" r="1.0" fill="#e8e6e1" opacity="0.25"/><circle cx="414.2" cy="420.3" r="1.7" fill="#e8e6e1" opacity="0.45"/><circle cx="544.1" cy="306.9" r="0.8" fill="#e8e6e1" opacity="0.21"/><circle cx="854.5" cy="226.7" r="1.7" fill="#e8e6e1" opacity="0.26"/><circle cx="953.2" cy="252.6" r="1.4" fill="#e8e6e1" opacity="0.28"/><circle cx="365.7" cy="156.8" r="1.2" fill="#e8e6e1" opacity="0.13"/><circle cx="737.3" cy="286.3" r="1.6" fill="#e8e6e1" opacity="0.25"/><circle cx="787.6" cy="333.0" r="1.9" fill="#e8e6e1" opacity="0.35"/><circle cx="127.9" cy="215.1" r="1.2" fill="#e8e6e1" opacity="0.44"/><circle cx="504.6" cy="195.3" r="1.4" fill="#e8e6e1" opacity="0.13"/><circle cx="915.0" cy="511.1" r="1.9" fill="#e8e6e1" opacity="0.27"/><circle cx="884.1" cy="464.0" r="1.4" fill="#e8e6e1" opacity="0.15"/><circle cx="604.7" cy="379.3" r="1.5" fill="#e8e6e1" opacity="0.15"/><circle cx="164.3" cy="345.1" r="0.7" fill="#e8e6e1" opacity="0.29"/><circle cx="517.0" cy="325.7" r="1.8" fill="#e8e6e1" opacity="0.32"/><circle cx="760.4" cy="190.2" r="1.6" fill="#e8e6e1" opacity="0.37"/><circle cx="209.0" cy="334.5" r="2.0" fill="#e8e6e1" opacity="0.44"/><circle cx="864.3" cy="327.4" r="2.0" fill="#e8e6e1" opacity="0.18"/><circle cx="284.2" cy="491.3" r="1.5" fill="#e8e6e1" opacity="0.34"/><circle cx="585.3" cy="320.4" r="1.4" fill="#e8e6e1" opacity="0.45"/><circle cx="89.0" cy="115.8" r="0.8" fill="#e8e6e1" opacity="0.18"/><circle cx="907.6" cy="137.8" r="1.5" fill="#e8e6e1" opacity="0.28"/><circle cx="21.7" cy="395.5" r="1.0" fill="#e8e6e1" opacity="0.44"/><circle cx="180.0" cy="174.1" r="1.9" fill="#e8e6e1" opacity="0.38"/><circle cx="860.4" cy="445.8" r="1.0" fill="#e8e6e1" opacity="0.41"/><circle cx="746.6" cy="530.5" r="0.7" fill="#e8e6e1" opacity="0.13"/><circle cx="300.3" cy="417.0" r="1.1" fill="#e8e6e1" opacity="0.32"/><circle cx="959.8" cy="460.2" r="0.9" fill="#e8e6e1" opacity="0.46"/><circle cx="182.9" cy="386.9" r="1.9" fill="#e8e6e1" opacity="0.28"/><circle cx="427.8" cy="217.7" r="0.7" fill="#e8e6e1" opacity="0.31"/><circle cx="346.9" cy="140.6" r="0.8" fill="#e8e6e1" opacity="0.52"/><circle cx="784.0" cy="22.4" r="1.0" fill="#e8e6e1" opacity="0.51"/><circle cx="123.0" cy="211.9" r="1.5" fill="#e8e6e1" opacity="0.36"/><circle cx="555.4" cy="76.1" r="1.3" fill="#e8e6e1" opacity="0.34"/><circle cx="861.7" cy="136.5" r="1.4" fill="#e8e6e1" opacity="0.15"/><circle cx="577.2" cy="66.6" r="1.5" fill="#e8e6e1" opacity="0.24"/><circle cx="685.2" cy="52.4" r="0.8" fill="#e8e6e1" opacity="0.35"/><circle cx="686.8" cy="505.9" r="1.9" fill="#e8e6e1" opacity="0.25"/><circle cx="392.8" cy="529.0" r="0.6" fill="#e8e6e1" opacity="0.48"/><circle cx="482.6" cy="295.5" r="1.6" fill="#e8e6e1" opacity="0.19"/><circle cx="244.6" cy="289.4" r="1.2" fill="#e8e6e1" opacity="0.51"/><circle cx="249.0" cy="479.0" r="1.0" fill="#e8e6e1" opacity="0.16"/><circle cx="207.3" cy="389.9" r="0.6" fill="#e8e6e1" opacity="0.23"/><circle cx="805.2" cy="326.5" r="0.9" fill="#e8e6e1" opacity="0.29"/><circle cx="763.2" cy="128.9" r="0.8" fill="#e8e6e1" opacity="0.20"/><circle cx="60.5" cy="194.2" r="0.8" fill="#e8e6e1" opacity="0.39"/><circle cx="72.0" cy="167.5" r="2.0" fill="#e8e6e1" opacity="0.40"/><circle cx="94.1" cy="165.4" r="1.6" fill="#e8e6e1" opacity="0.27"/><circle cx="170.5" cy="53.6" r="1.0" fill="#e8e6e1" opacity="0.31"/><circle cx="211.8" cy="216.0" r="1.2" fill="#e8e6e1" opacity="0.50"/><circle cx="121.2" cy="334.3" r="1.1" fill="#e8e6e1" opacity="0.48"/><circle cx="867.6" cy="338.4" r="1.7" fill="#e8e6e1" opacity="0.31"/><circle cx="877.9" cy="206.0" r="1.4" fill="#e8e6e1" opacity="0.34"/><circle cx="286.2" cy="367.3" r="1.6" fill="#e8e6e1" opacity="0.26"/><circle cx="661.0" cy="114.1" r="1.5" fill="#e8e6e1" opacity="0.28"/><circle cx="313.1" cy="167.3" r="1.0" fill="#e8e6e1" opacity="0.29"/><circle cx="774.2" cy="285.6" r="1.7" fill="#e8e6e1" opacity="0.22"/><circle cx="623.4" cy="451.6" r="1.9" fill="#e8e6e1" opacity="0.32"/><circle cx="814.9" cy="209.9" r="0.7" fill="#e8e6e1" opacity="0.46"/><circle cx="398.0" cy="191.0" r="0.9" fill="#e8e6e1" opacity="0.31"/><circle cx="239.7" cy="178.7" r="1.7" fill="#e8e6e1" opacity="0.39"/><circle cx="96.7" cy="175.5" r="1.1" fill="#e8e6e1" opacity="0.42"/><circle cx="953.3" cy="102.2" r="1.0" fill="#e8e6e1" opacity="0.30"/><circle cx="648.9" cy="273.1" r="1.6" fill="#e8e6e1" opacity="0.28"/><circle cx="904.6" cy="282.9" r="1.5" fill="#e8e6e1" opacity="0.37"/><circle cx="630.1" cy="129.6" r="1.5" fill="#e8e6e1" opacity="0.26"/><circle cx="459.1" cy="192.6" r="0.6" fill="#e8e6e1" opacity="0.16"/><circle cx="822.5" cy="437.2" r="1.6" fill="#e8e6e1" opacity="0.37"/><circle cx="207.4" cy="417.7" r="0.8" fill="#e8e6e1" opacity="0.51"/><circle cx="506.6" cy="271.0" r="0.9" fill="#e8e6e1" opacity="0.16"/><circle cx="458.9" cy="167.9" r="0.8" fill="#e8e6e1" opacity="0.26"/><circle cx="23.1" cy="294.1" r="1.9" fill="#e8e6e1" opacity="0.25"/><circle cx="242.2" cy="31.3" r="1.2" fill="#e8e6e1" opacity="0.30"/><circle cx="702.1" cy="132.3" r="1.0" fill="#e8e6e1" opacity="0.46"/><circle cx="203.0" cy="116.0" r="1.9" fill="#e8e6e1" opacity="0.23"/><circle cx="740.3" cy="419.3" r="1.1" fill="#e8e6e1" opacity="0.25"/><circle cx="886.7" cy="360.5" r="1.8" fill="#e8e6e1" opacity="0.49"/><circle cx="102.7" cy="196.0" r="1.7" fill="#e8e6e1" opacity="0.44"/><circle cx="146.4" cy="482.6" r="1.2" fill="#e8e6e1" opacity="0.51"/>
  <line x1="0" y1="0" x2="0" y2="540" stroke="#e8e6e1" stroke-width="0.5" opacity="0.05"/><line x1="96" y1="0" x2="96" y2="540" stroke="#e8e6e1" stroke-width="0.5" opacity="0.05"/><line x1="192" y1="0" x2="192" y2="540" stroke="#e8e6e1" stroke-width="0.5" opacity="0.05"/><line x1="288" y1="0" x2="288" y2="540" stroke="#e8e6e1" stroke-width="0.5" opacity="0.05"/><line x1="384" y1="0" x2="384" y2="540" stroke="#e8e6e1" stroke-width="0.5" opacity="0.05"/><line x1="480" y1="0" x2="480" y2="540" stroke="#e8e6e1" stroke-width="0.5" opacity="0.05"/><line x1="576" y1="0" x2="576" y2="540" stroke="#e8e6e1" stroke-width="0.5" opacity="0.05"/><line x1="672" y1="0" x2="672" y2="540" stroke="#e8e6e1" stroke-width="0.5" opacity="0.05"/><line x1="768" y1="0" x2="768" y2="540" stroke="#e8e6e1" stroke-width="0.5" opacity="0.05"/><line x1="864" y1="0" x2="864" y2="540" stroke="#e8e6e1" stroke-width="0.5" opacity="0.05"/><line x1="960" y1="0" x2="960" y2="540" stroke="#e8e6e1" stroke-width="0.5" opacity="0.05"/><line x1="0" y1="0" x2="960" y2="0" stroke="#e8e6e1" stroke-width="0.5" opacity="0.05"/><line x1="0" y1="96" x2="960" y2="96" stroke="#e8e6e1" stroke-width="0.5" opacity="0.05"/><line x1="0" y1="192" x2="960" y2="192" stroke="#e8e6e1" stroke-width="0.5" opacity="0.05"/><line x1="0" y1="288" x2="960" y2="288" stroke="#e8e6e1" stroke-width="0.5" opacity="0.05"/><line x1="0" y1="384" x2="960" y2="384" stroke="#e8e6e1" stroke-width="0.5" opacity="0.05"/><line x1="0" y1="480" x2="960" y2="480" stroke="#e8e6e1" stroke-width="0.5" opacity="0.05"/>
  <text x="44" y="64" font-family="'SFMono-Regular','Menlo','Consolas',monospace" font-size="18" fill="#8a6d3b" letter-spacing="4">危机纪元 4 年</text>
  <text x="44" y="104" font-family="'PingFang SC','Hiragino Sans GB','Microsoft YaHei',sans-serif" font-size="15" fill="#9aa0a8" letter-spacing="2">《死神永生》 · 红岸与危机纪元</text>
  <line x1="44" y1="126" x2="916" y2="126" stroke="#e8e6e1" stroke-width="0.5" opacity="0.25"/>
  <text x="44" y="330" font-family="'Noto Serif CJK SC','Songti SC','STSong','SimSun',serif" font-size="40" fill="#e8e6e1" letter-spacing="4">阶梯计划</text>
  <text x="44" y="388" font-family="'Noto Serif CJK SC','Songti SC','STSong','SimSun',serif" font-size="40" fill="#e8e6e1" letter-spacing="4">把大脑送向三体</text>
  
  <text x="936" y="518" text-anchor="end" font-family="'SFMono-Regular','Menlo','Consolas',monospace" font-size="13" fill="#e8e6e1" opacity="0.45" letter-spacing="3">三体世界图鉴</text>
  <g><rect x="16" y="526" width="928" height="2" fill="#8a6d3b" opacity="0.8"/><rect x="28" y="526" width="904" height="2" fill="#8a6d3b" opacity="0.5800000000000001"/><rect x="40" y="526" width="880" height="2" fill="#8a6d3b" opacity="0.36000000000000004"/></g>
</svg>