<svg xmlns="http://www.w3.org/2000/svg" width="960" height="540" viewBox="0 0 960 540">
  <rect width="960" height="540" fill="#0a0e14"/>
  <rect width="960" height="540" fill="#8a6d3b" opacity="0.12"/>
  <line x1="0" y1="0" x2="0" y2="540" stroke="#e8e6e1" stroke-width="0.5"/><line x1="80" y1="0" x2="80" y2="540" stroke="#e8e6e1" stroke-width="0.5"/><line x1="160" y1="0" x2="160" y2="540" stroke="#e8e6e1" stroke-width="0.5"/><line x1="240" y1="0" x2="240" y2="540" stroke="#e8e6e1" stroke-width="0.5"/><line x1="320" y1="0" x2="320" y2="540" stroke="#e8e6e1" stroke-width="0.5"/><line x1="400" y1="0" x2="400" y2="540" stroke="#e8e6e1" stroke-width="0.5"/><line x1="480" y1="0" x2="480" y2="540" stroke="#e8e6e1" stroke-width="0.5"/><line x1="560" y1="0" x2="560" y2="540" stroke="#e8e6e1" stroke-width="0.5"/><line x1="640" y1="0" x2="640" y2="540" stroke="#e8e6e1" stroke-width="0.5"/><line x1="720" y1="0" x2="720" y2="540" stroke="#e8e6e1" stroke-width="0.5"/><line x1="800" y1="0" x2="800" y2="540" stroke="#e8e6e1" stroke-width="0.5"/><line x1="880" y1="0" x2="880" y2="540" stroke="#e8e6e1" stroke-width="0.5"/><line x1="960" y1="0" x2="960" y2="540" stroke="#e8e6e1" stroke-width="0.5"/><line x1="0" y1="0" x2="960" y2="0" stroke="#e8e6e1" stroke-width="0.5"/><line x1="0" y1="80" x2="960" y2="80" stroke="#e8e6e1" stroke-width="0.5"/><line x1="0" y1="160" x2="960" y2="160" stroke="#e8e6e1" stroke-width="0.5"/><line x1="0" y1="240" x2="960" y2="240" stroke="#e8e6e1" stroke-width="0.5"/><line x1="0" y1="320" x2="960" y2="320" stroke="#e8e6e1" stroke-width="0.5"/><line x1="0" y1="400" x2="960" y2="400" stroke="#e8e6e1" stroke-width="0.5"/><line x1="0" y1="480" x2="960" y2="480" stroke="#e8e6e1" stroke-width="0.5"/>
  <circle cx="610.1" cy="417.5" r="0.8" fill="#e8e6e1" opacity="0.26"/><circle cx="38.5" cy="302.7" r="1.4" fill="#e8e6e1" opacity="0.37"/><circle cx="26.9" cy="70.5" r="1.3" fill="#e8e6e1" opacity="0.42"/><circle cx="404.7" cy="171.7" r="2.1" fill="#e8e6e1" opacity="0.63"/><circle cx="868.2" cy="328.7" r="0.7" fill="#e8e6e1" opacity="0.45"/><circle cx="33.5" cy="301.4" r="1.0" fill="#e8e6e1" opacity="0.33"/><circle cx="942.4" cy="266.4" r="2.1" fill="#e8e6e1" opacity="0.47"/><circle cx="775.8" cy="497.1" r="0.6" fill="#e8e6e1" opacity="0.30"/><circle cx="317.2" cy="275.9" r="1.9" fill="#e8e6e1" opacity="0.26"/><circle cx="71.3" cy="499.4" r="1.7" fill="#e8e6e1" opacity="0.25"/><circle cx="307.1" cy="213.0" r="1.2" fill="#e8e6e1" opacity="0.42"/><circle cx="473.7" cy="217.1" r="1.8" fill="#e8e6e1" opacity="0.23"/><circle cx="398.8" cy="436.2" r="1.3" fill="#e8e6e1" opacity="0.33"/><circle cx="142.1" cy="186.4" r="1.6" fill="#e8e6e1" opacity="0.19"/><circle cx="281.5" cy="185.9" r="1.0" fill="#e8e6e1" opacity="0.21"/><circle cx="771.6" cy="391.2" r="1.9" fill="#e8e6e1" opacity="0.42"/><circle cx="256.7" cy="5.3" r="1.6" fill="#e8e6e1" opacity="0.50"/><circle cx="693.1" cy="288.8" r="1.3" fill="#e8e6e1" opacity="0.64"/><circle cx="694.2" cy="225.3" r="0.9" fill="#e8e6e1" opacity="0.59"/><circle cx="447.0" cy="240.1" r="1.6" fill="#e8e6e1" opacity="0.54"/><circle cx="734.6" cy="194.8" r="1.9" fill="#e8e6e1" opacity="0.52"/><circle cx="693.1" cy="463.9" r="1.2" fill="#e8e6e1" opacity="0.17"/><circle cx="783.5" cy="536.6" r="1.7" fill="#e8e6e1" opacity="0.46"/><circle cx="576.4" cy="536.5" r="0.7" fill="#e8e6e1" opacity="0.59"/><circle cx="281.5" cy="111.6" r="1.5" fill="#e8e6e1" opacity="0.48"/><circle cx="545.3" cy="276.6" r="1.9" fill="#e8e6e1" opacity="0.27"/><circle cx="815.9" cy="29.4" r="1.1" fill="#e8e6e1" opacity="0.30"/><circle cx="574.5" cy="212.1" r="2.0" fill="#e8e6e1" opacity="0.17"/><circle cx="768.0" cy="364.4" r="1.5" fill="#e8e6e1" opacity="0.29"/><circle cx="106.2" cy="522.5" r="1.9" fill="#e8e6e1" opacity="0.19"/><circle cx="883.9" cy="420.4" r="2.0" fill="#e8e6e1" opacity="0.45"/><circle cx="932.4" cy="457.1" r="1.1" fill="#e8e6e1" opacity="0.31"/><circle cx="273.5" cy="415.5" r="1.8" fill="#e8e6e1" opacity="0.46"/><circle cx="808.6" cy="10.1" r="0.8" fill="#e8e6e1" opacity="0.45"/><circle cx="214.9" cy="277.1" r="1.0" fill="#e8e6e1" opacity="0.24"/><circle cx="494.3" cy="226.2" r="1.1" fill="#e8e6e1" opacity="0.36"/><circle cx="93.4" cy="82.1" r="1.8" fill="#e8e6e1" opacity="0.21"/><circle cx="345.8" cy="146.2" r="1.0" fill="#e8e6e1" opacity="0.50"/><circle cx="182.2" cy="510.2" r="2.2" fill="#e8e6e1" opacity="0.63"/><circle cx="913.9" cy="512.9" r="2.0" fill="#e8e6e1" opacity="0.37"/><circle cx="191.4" cy="533.0" r="1.6" fill="#e8e6e1" opacity="0.21"/><circle cx="59.2" cy="219.5" r="2.1" fill="#e8e6e1" opacity="0.51"/><circle cx="240.4" cy="492.7" r="1.9" fill="#e8e6e1" opacity="0.53"/><circle cx="549.0" cy="84.4" r="2.0" fill="#e8e6e1" opacity="0.45"/><circle cx="0.4" cy="20.6" r="0.9" fill="#e8e6e1" opacity="0.30"/><circle cx="235.5" cy="196.8" r="1.1" fill="#e8e6e1" opacity="0.25"/><circle cx="948.9" cy="451.9" r="1.8" fill="#e8e6e1" opacity="0.20"/><circle cx="742.2" cy="147.9" r="0.8" fill="#e8e6e1" opacity="0.45"/><circle cx="141.3" cy="168.7" r="1.5" fill="#e8e6e1" opacity="0.39"/><circle cx="869.5" cy="149.3" r="1.9" fill="#e8e6e1" opacity="0.23"/><circle cx="129.5" cy="372.2" r="2.1" fill="#e8e6e1" opacity="0.29"/><circle cx="869.3" cy="531.6" r="0.7" fill="#e8e6e1" opacity="0.30"/><circle cx="49.7" cy="6.3" r="1.3" fill="#e8e6e1" opacity="0.32"/><circle cx="539.6" cy="265.9" r="1.1" fill="#e8e6e1" opacity="0.24"/><circle cx="632.4" cy="451.4" r="0.8" fill="#e8e6e1" opacity="0.29"/><circle cx="751.4" cy="21.9" r="1.3" fill="#e8e6e1" opacity="0.55"/><circle cx="863.3" cy="284.6" r="2.0" fill="#e8e6e1" opacity="0.19"/><circle cx="559.8" cy="499.0" r="0.8" fill="#e8e6e1" opacity="0.22"/><circle cx="605.9" cy="294.8" r="0.8" fill="#e8e6e1" opacity="0.28"/><circle cx="406.6" cy="347.2" r="1.3" fill="#e8e6e1" opacity="0.61"/><circle cx="614.2" cy="138.8" r="1.4" fill="#e8e6e1" opacity="0.60"/><circle cx="557.3" cy="147.9" r="2.1" fill="#e8e6e1" opacity="0.22"/><circle cx="811.0" cy="340.3" r="0.8" fill="#e8e6e1" opacity="0.42"/><circle cx="245.3" cy="453.2" r="1.2" fill="#e8e6e1" opacity="0.63"/><circle cx="152.2" cy="436.7" r="1.4" fill="#e8e6e1" opacity="0.48"/><circle cx="38.0" cy="307.0" r="1.9" fill="#e8e6e1" opacity="0.32"/><circle cx="437.9" cy="277.4" r="1.8" fill="#e8e6e1" opacity="0.44"/><circle cx="567.7" cy="428.4" r="1.6" fill="#e8e6e1" opacity="0.40"/><circle cx="870.3" cy="182.4" r="2.1" fill="#e8e6e1" opacity="0.49"/><circle cx="842.6" cy="156.2" r="0.7" fill="#e8e6e1" opacity="0.27"/><circle cx="508.1" cy="356.1" r="1.4" fill="#e8e6e1" opacity="0.45"/><circle cx="2.4" cy="526.5" r="0.8" fill="#e8e6e1" opacity="0.25"/><circle cx="783.2" cy="221.4" r="0.9" fill="#e8e6e1" opacity="0.55"/><circle cx="360.1" cy="46.6" r="1.9" fill="#e8e6e1" opacity="0.51"/><circle cx="100.7" cy="397.3" r="1.5" fill="#e8e6e1" opacity="0.27"/><circle cx="563.4" cy="342.4" r="2.0" fill="#e8e6e1" opacity="0.42"/><circle cx="877.4" cy="216.7" r="2.1" fill="#e8e6e1" opacity="0.53"/><circle cx="823.9" cy="526.6" r="2.0" fill="#e8e6e1" opacity="0.15"/><circle cx="608.6" cy="518.8" r="1.6" fill="#e8e6e1" opacity="0.48"/><circle cx="313.2" cy="105.6" r="2.1" fill="#e8e6e1" opacity="0.61"/><circle cx="37.6" cy="509.2" r="2.1" fill="#e8e6e1" opacity="0.42"/><circle cx="468.3" cy="490.7" r="1.5" fill="#e8e6e1" opacity="0.20"/><circle cx="169.9" cy="427.9" r="1.2" fill="#e8e6e1" opacity="0.49"/><circle cx="30.1" cy="256.5" r="0.9" fill="#e8e6e1" opacity="0.15"/><circle cx="909.6" cy="411.6" r="2.1" fill="#e8e6e1" opacity="0.45"/><circle cx="750.8" cy="312.3" r="1.8" fill="#e8e6e1" opacity="0.29"/><circle cx="51.5" cy="192.9" r="1.1" fill="#e8e6e1" opacity="0.46"/><circle cx="321.7" cy="344.2" r="1.1" fill="#e8e6e1" opacity="0.26"/><circle cx="135.6" cy="5.9" r="0.6" fill="#e8e6e1" opacity="0.23"/><circle cx="950.8" cy="323.7" r="0.8" fill="#e8e6e1" opacity="0.41"/><circle cx="859.3" cy="522.8" r="1.4" fill="#e8e6e1" opacity="0.39"/><circle cx="82.4" cy="217.5" r="1.9" fill="#e8e6e1" opacity="0.38"/><circle cx="948.7" cy="76.5" r="1.6" fill="#e8e6e1" opacity="0.28"/><circle cx="122.4" cy="126.9" r="1.2" fill="#e8e6e1" opacity="0.57"/><circle cx="422.8" cy="76.7" r="0.9" fill="#e8e6e1" opacity="0.52"/><circle cx="847.2" cy="204.5" r="0.6" fill="#e8e6e1" opacity="0.56"/><circle cx="349.2" cy="321.1" r="0.7" fill="#e8e6e1" opacity="0.47"/><circle cx="35.4" cy="532.8" r="1.1" fill="#e8e6e1" opacity="0.26"/><circle cx="934.7" cy="243.2" r="1.4" fill="#e8e6e1" opacity="0.25"/><circle cx="391.4" cy="119.3" r="1.2" fill="#e8e6e1" opacity="0.18"/><circle cx="454.3" cy="336.8" r="0.9" fill="#e8e6e1" opacity="0.21"/><circle cx="526.7" cy="201.4" r="1.9" fill="#e8e6e1" opacity="0.24"/><circle cx="713.5" cy="341.5" r="0.8" fill="#e8e6e1" opacity="0.49"/><circle cx="88.6" cy="348.7" r="1.5" fill="#e8e6e1" opacity="0.32"/><circle cx="36.3" cy="209.4" r="0.8" fill="#e8e6e1" opacity="0.58"/><circle cx="834.7" cy="360.6" r="0.6" fill="#e8e6e1" opacity="0.33"/><circle cx="718.8" cy="379.2" r="1.4" fill="#e8e6e1" opacity="0.55"/><circle cx="714.9" cy="178.0" r="1.1" fill="#e8e6e1" opacity="0.40"/><circle cx="218.4" cy="447.4" r="2.1" fill="#e8e6e1" opacity="0.23"/><circle cx="706.8" cy="475.8" r="1.4" fill="#e8e6e1" opacity="0.25"/><circle cx="796.8" cy="531.2" r="1.0" fill="#e8e6e1" opacity="0.27"/><circle cx="353.0" cy="146.8" r="1.8" fill="#e8e6e1" opacity="0.51"/><circle cx="724.6" cy="47.8" r="2.1" fill="#e8e6e1" opacity="0.55"/><circle cx="823.2" cy="186.1" r="2.0" fill="#e8e6e1" opacity="0.38"/><circle cx="137.9" cy="94.6" r="2.0" fill="#e8e6e1" opacity="0.27"/><circle cx="672.3" cy="123.3" r="1.6" fill="#e8e6e1" opacity="0.29"/><circle cx="909.8" cy="213.0" r="1.8" fill="#e8e6e1" opacity="0.32"/><circle cx="273.9" cy="7.1" r="1.3" fill="#e8e6e1" opacity="0.51"/><circle cx="274.5" cy="434.6" r="1.3" fill="#e8e6e1" opacity="0.63"/><circle cx="332.7" cy="252.7" r="0.7" fill="#e8e6e1" opacity="0.39"/>
  <text x="56" y="84" font-family="'SFMono-Regular','Menlo',monospace" font-size="20" fill="#8a6d3b" letter-spacing="4">危机纪元 208 年</text>
  <text x="56" y="300" font-family="'Noto Serif SC','Songti SC',serif" font-size="52" fill="#e8e6e1" letter-spacing="4">水滴抵达太阳系</text>
  <text x="58" y="352" font-family="'PingFang SC','Microsoft YaHei',sans-serif" font-size="24" fill="#9aa0a8">黑暗森林 · 红岸与危机纪元</text>
  <polyline points="0,271 16,268 32,278 48,246 64,229 80,268 96,256 112,263 128,260 144,236 160,251 176,274 192,239 208,230 224,262 240,270 256,243 272,269 288,245 304,237 320,241 336,239 352,264 368,239 384,239 400,241 416,251 432,252 448,277 464,231 480,260 496,269 512,265 528,232 544,236 560,231 576,271 592,272 608,249 624,235 640,250 656,250 672,262 688,270 704,271 720,232 736,234 752,271 768,239 784,271 800,227 816,266 832,225 848,266 864,274 880,238 896,237 912,229 928,228 944,232 960,235" fill="none" stroke="#8a6d3b" stroke-width="1.5" opacity="0.55"/>
</svg>