<svg xmlns="http://www.w3.org/2000/svg" width="960" height="540" viewBox="0 0 960 540">
  <defs>
    <linearGradient id="bg" x1="0" y1="0" x2="0.6" y2="1">
      <stop offset="0" stop-color="#0a0e14"/><stop offset="1" stop-color="#8a6d3b"/>
    </linearGradient>
    <radialGradient id="glow" cx="0.78" cy="0.18" r="0.75">
      <stop offset="0" stop-color="#8a6d3b" stop-opacity="0.5"/><stop offset="1" stop-color="#8a6d3b" stop-opacity="0"/>
    </radialGradient>
  </defs><rect width="960" height="540" fill="url(#bg)"/><rect width="960" height="540" fill="url(#glow)"/>
  <circle cx="672.9" cy="202.0" r="2.0" fill="#e8e6e1" opacity="0.34"/><circle cx="625.5" cy="141.2" r="1.8" fill="#e8e6e1" opacity="0.39"/><circle cx="717.9" cy="153.1" r="1.9" fill="#e8e6e1" opacity="0.38"/><circle cx="917.4" cy="265.3" r="2.0" fill="#e8e6e1" opacity="0.48"/><circle cx="619.9" cy="187.4" r="0.8" fill="#e8e6e1" opacity="0.21"/><circle cx="645.2" cy="15.7" r="1.4" fill="#e8e6e1" opacity="0.23"/><circle cx="724.0" cy="291.1" r="1.1" fill="#e8e6e1" opacity="0.19"/><circle cx="898.0" cy="450.6" r="1.8" fill="#e8e6e1" opacity="0.29"/><circle cx="378.3" cy="311.1" r="1.3" fill="#e8e6e1" opacity="0.37"/><circle cx="103.6" cy="467.8" r="1.7" fill="#e8e6e1" opacity="0.32"/><circle cx="103.5" cy="214.3" r="0.7" fill="#e8e6e1" opacity="0.41"/><circle cx="496.6" cy="50.7" r="1.0" fill="#e8e6e1" opacity="0.31"/><circle cx="948.2" cy="160.5" r="1.5" fill="#e8e6e1" opacity="0.41"/><circle cx="669.9" cy="185.8" r="1.0" fill="#e8e6e1" opacity="0.50"/><circle cx="433.8" cy="394.7" r="0.9" fill="#e8e6e1" opacity="0.35"/><circle cx="655.0" cy="0.5" r="1.2" fill="#e8e6e1" opacity="0.48"/><circle cx="128.5" cy="241.2" r="2.0" fill="#e8e6e1" opacity="0.15"/><circle cx="481.6" cy="519.1" r="1.2" fill="#e8e6e1" opacity="0.16"/><circle cx="344.8" cy="433.6" r="1.0" fill="#e8e6e1" opacity="0.21"/><circle cx="34.6" cy="233.3" r="1.5" fill="#e8e6e1" opacity="0.21"/><circle cx="569.6" cy="372.4" r="1.7" fill="#e8e6e1" opacity="0.42"/><circle cx="511.4" cy="395.0" r="0.7" fill="#e8e6e1" opacity="0.38"/><circle cx="642.4" cy="284.1" r="1.9" fill="#e8e6e1" opacity="0.39"/><circle cx="584.7" cy="355.5" r="1.7" fill="#e8e6e1" opacity="0.24"/><circle cx="802.8" cy="482.5" r="1.8" fill="#e8e6e1" opacity="0.44"/><circle cx="637.2" cy="466.4" r="1.2" fill="#e8e6e1" opacity="0.46"/><circle cx="333.8" cy="303.1" r="1.6" fill="#e8e6e1" opacity="0.34"/><circle cx="643.9" cy="377.0" r="1.1" fill="#e8e6e1" opacity="0.48"/><circle cx="819.2" cy="95.5" r="1.2" fill="#e8e6e1" opacity="0.13"/><circle cx="488.3" cy="262.7" r="1.5" fill="#e8e6e1" opacity="0.45"/><circle cx="919.9" cy="18.4" r="1.6" fill="#e8e6e1" opacity="0.47"/><circle cx="69.0" cy="193.2" r="1.8" fill="#e8e6e1" opacity="0.44"/><circle cx="709.9" cy="416.0" r="2.0" fill="#e8e6e1" opacity="0.49"/><circle cx="545.1" cy="480.1" r="0.9" fill="#e8e6e1" opacity="0.41"/><circle cx="456.8" cy="305.2" r="1.8" fill="#e8e6e1" opacity="0.23"/><circle cx="952.0" cy="485.3" r="1.2" fill="#e8e6e1" opacity="0.25"/><circle cx="104.2" cy="31.2" r="1.7" fill="#e8e6e1" opacity="0.35"/><circle cx="369.2" cy="249.3" r="0.9" fill="#e8e6e1" opacity="0.48"/><circle cx="713.7" cy="31.1" r="0.6" fill="#e8e6e1" opacity="0.26"/><circle cx="252.6" cy="474.1" r="0.7" fill="#e8e6e1" opacity="0.23"/><circle cx="607.9" cy="139.2" r="1.0" fill="#e8e6e1" opacity="0.17"/><circle cx="529.2" cy="539.0" r="0.7" fill="#e8e6e1" opacity="0.37"/><circle cx="715.7" cy="139.2" r="1.9" fill="#e8e6e1" opacity="0.24"/><circle cx="769.9" cy="485.6" r="0.7" fill="#e8e6e1" opacity="0.19"/><circle cx="421.3" cy="83.0" r="0.7" fill="#e8e6e1" opacity="0.24"/><circle cx="115.2" cy="5.6" r="1.3" fill="#e8e6e1" opacity="0.32"/><circle cx="486.4" cy="81.5" r="1.1" fill="#e8e6e1" opacity="0.46"/><circle cx="26.9" cy="509.6" r="1.7" fill="#e8e6e1" opacity="0.39"/><circle cx="781.0" cy="379.9" r="1.2" fill="#e8e6e1" opacity="0.23"/><circle cx="205.5" cy="375.9" r="1.6" fill="#e8e6e1" opacity="0.14"/><circle cx="369.6" cy="381.1" r="1.3" fill="#e8e6e1" opacity="0.35"/><circle cx="548.7" cy="406.1" r="0.8" fill="#e8e6e1" opacity="0.45"/><circle cx="739.4" cy="220.2" r="0.6" fill="#e8e6e1" opacity="0.15"/><circle cx="947.4" cy="129.4" r="1.9" fill="#e8e6e1" opacity="0.20"/><circle cx="749.5" cy="31.8" r="1.8" fill="#e8e6e1" opacity="0.40"/><circle cx="790.1" cy="306.9" r="1.4" fill="#e8e6e1" opacity="0.48"/><circle cx="523.0" cy="533.0" r="0.9" fill="#e8e6e1" opacity="0.16"/><circle cx="215.0" cy="96.6" r="1.0" fill="#e8e6e1" opacity="0.17"/><circle cx="693.5" cy="71.2" r="1.7" fill="#e8e6e1" opacity="0.41"/><circle cx="343.6" cy="341.1" r="1.4" fill="#e8e6e1" opacity="0.40"/><circle cx="137.5" cy="539.0" r="2.0" fill="#e8e6e1" opacity="0.41"/><circle cx="357.7" cy="250.0" r="1.5" fill="#e8e6e1" opacity="0.13"/><circle cx="336.5" cy="285.6" r="0.7" fill="#e8e6e1" opacity="0.16"/><circle cx="136.2" cy="413.2" r="1.2" fill="#e8e6e1" opacity="0.22"/><circle cx="642.0" cy="355.2" r="0.6" fill="#e8e6e1" opacity="0.15"/><circle cx="577.2" cy="354.1" r="0.8" fill="#e8e6e1" opacity="0.40"/><circle cx="813.8" cy="450.1" r="2.0" fill="#e8e6e1" opacity="0.32"/><circle cx="925.7" cy="118.6" r="1.2" fill="#e8e6e1" opacity="0.38"/><circle cx="359.7" cy="204.9" r="1.5" fill="#e8e6e1" opacity="0.18"/><circle cx="364.5" cy="273.3" r="0.7" fill="#e8e6e1" opacity="0.49"/><circle cx="571.8" cy="528.6" r="0.9" fill="#e8e6e1" opacity="0.48"/><circle cx="291.4" cy="60.6" r="1.2" fill="#e8e6e1" opacity="0.51"/><circle cx="199.8" cy="287.0" r="1.3" fill="#e8e6e1" opacity="0.42"/><circle cx="146.4" cy="12.3" r="0.7" fill="#e8e6e1" opacity="0.50"/><circle cx="924.7" cy="281.1" r="1.4" fill="#e8e6e1" opacity="0.36"/><circle cx="134.2" cy="185.0" r="0.9" fill="#e8e6e1" opacity="0.19"/><circle cx="141.3" cy="365.3" r="0.8" fill="#e8e6e1" opacity="0.13"/><circle cx="555.4" cy="192.1" r="1.7" fill="#e8e6e1" opacity="0.30"/><circle cx="420.2" cy="69.3" r="1.6" fill="#e8e6e1" opacity="0.18"/><circle cx="744.2" cy="300.9" r="0.8" fill="#e8e6e1" opacity="0.51"/><circle cx="578.4" cy="435.7" r="0.7" fill="#e8e6e1" opacity="0.31"/><circle cx="867.1" cy="349.5" r="1.8" fill="#e8e6e1" opacity="0.13"/><circle cx="944.3" cy="516.2" r="1.0" fill="#e8e6e1" opacity="0.47"/><circle cx="528.7" cy="84.2" r="0.7" fill="#e8e6e1" opacity="0.30"/><circle cx="459.1" cy="101.2" r="1.8" fill="#e8e6e1" opacity="0.40"/><circle cx="613.2" cy="282.7" r="2.0" fill="#e8e6e1" opacity="0.32"/><circle cx="358.2" cy="148.9" r="1.5" fill="#e8e6e1" opacity="0.40"/><circle cx="568.0" cy="219.2" r="1.2" fill="#e8e6e1" opacity="0.30"/><circle cx="941.1" cy="134.7" r="0.7" fill="#e8e6e1" opacity="0.15"/><circle cx="326.3" cy="26.6" r="1.3" fill="#e8e6e1" opacity="0.47"/><circle cx="493.6" cy="461.8" r="1.1" fill="#e8e6e1" opacity="0.21"/><circle cx="839.6" cy="57.5" r="1.4" fill="#e8e6e1" opacity="0.48"/><circle cx="45.8" cy="312.0" r="1.0" fill="#e8e6e1" opacity="0.19"/><circle cx="364.2" cy="521.6" r="0.8" fill="#e8e6e1" opacity="0.35"/><circle cx="714.9" cy="536.8" r="0.6" fill="#e8e6e1" opacity="0.48"/><circle cx="722.3" cy="447.6" r="0.8" fill="#e8e6e1" opacity="0.26"/><circle cx="202.7" cy="156.7" r="2.0" fill="#e8e6e1" opacity="0.49"/><circle cx="652.8" cy="533.9" r="0.7" fill="#e8e6e1" opacity="0.41"/><circle cx="455.2" cy="480.8" r="1.9" fill="#e8e6e1" opacity="0.35"/><circle cx="757.1" cy="229.6" r="0.8" fill="#e8e6e1" opacity="0.16"/><circle cx="258.6" cy="448.4" r="1.0" fill="#e8e6e1" opacity="0.14"/><circle cx="437.8" cy="288.8" r="0.7" fill="#e8e6e1" opacity="0.18"/><circle cx="889.1" cy="536.2" r="1.5" fill="#e8e6e1" opacity="0.29"/><circle cx="352.8" cy="213.4" r="0.8" fill="#e8e6e1" opacity="0.33"/><circle cx="882.6" cy="106.4" r="1.6" fill="#e8e6e1" opacity="0.27"/><circle cx="800.2" cy="56.3" r="1.4" fill="#e8e6e1" opacity="0.20"/><circle cx="801.4" cy="532.7" r="1.5" fill="#e8e6e1" opacity="0.25"/><circle cx="75.0" cy="438.5" r="1.5" fill="#e8e6e1" opacity="0.13"/><circle cx="948.5" cy="295.5" r="1.1" fill="#e8e6e1" opacity="0.46"/><circle cx="329.6" cy="89.3" r="1.3" fill="#e8e6e1" opacity="0.28"/>
  <line x1="0" y1="0" x2="0" y2="540" stroke="#e8e6e1" stroke-width="0.5" opacity="0.05"/><line x1="96" y1="0" x2="96" y2="540" stroke="#e8e6e1" stroke-width="0.5" opacity="0.05"/><line x1="192" y1="0" x2="192" y2="540" stroke="#e8e6e1" stroke-width="0.5" opacity="0.05"/><line x1="288" y1="0" x2="288" y2="540" stroke="#e8e6e1" stroke-width="0.5" opacity="0.05"/><line x1="384" y1="0" x2="384" y2="540" stroke="#e8e6e1" stroke-width="0.5" opacity="0.05"/><line x1="480" y1="0" x2="480" y2="540" stroke="#e8e6e1" stroke-width="0.5" opacity="0.05"/><line x1="576" y1="0" x2="576" y2="540" stroke="#e8e6e1" stroke-width="0.5" opacity="0.05"/><line x1="672" y1="0" x2="672" y2="540" stroke="#e8e6e1" stroke-width="0.5" opacity="0.05"/><line x1="768" y1="0" x2="768" y2="540" stroke="#e8e6e1" stroke-width="0.5" opacity="0.05"/><line x1="864" y1="0" x2="864" y2="540" stroke="#e8e6e1" stroke-width="0.5" opacity="0.05"/><line x1="960" y1="0" x2="960" y2="540" stroke="#e8e6e1" stroke-width="0.5" opacity="0.05"/><line x1="0" y1="0" x2="960" y2="0" stroke="#e8e6e1" stroke-width="0.5" opacity="0.05"/><line x1="0" y1="96" x2="960" y2="96" stroke="#e8e6e1" stroke-width="0.5" opacity="0.05"/><line x1="0" y1="192" x2="960" y2="192" stroke="#e8e6e1" stroke-width="0.5" opacity="0.05"/><line x1="0" y1="288" x2="960" y2="288" stroke="#e8e6e1" stroke-width="0.5" opacity="0.05"/><line x1="0" y1="384" x2="960" y2="384" stroke="#e8e6e1" stroke-width="0.5" opacity="0.05"/><line x1="0" y1="480" x2="960" y2="480" stroke="#e8e6e1" stroke-width="0.5" opacity="0.05"/>
  <text x="44" y="64" font-family="'SFMono-Regular','Menlo','Consolas',monospace" font-size="18" fill="#8a6d3b" letter-spacing="4">危机纪元 3 年</text>
  <text x="44" y="104" font-family="'PingFang SC','Hiragino Sans GB','Microsoft YaHei',sans-serif" font-size="15" fill="#9aa0a8" letter-spacing="2">《黑暗森林》 · 红岸与危机纪元</text>
  <line x1="44" y1="126" x2="916" y2="126" stroke="#e8e6e1" stroke-width="0.5" opacity="0.25"/>
  <text x="44" y="330" font-family="'Noto Serif CJK SC','Songti SC','STSong','SimSun',serif" font-size="49" fill="#e8e6e1" letter-spacing="4">章北海</text>
  <text x="44" y="397" font-family="'Noto Serif CJK SC','Songti SC','STSong','SimSun',serif" font-size="49" fill="#e8e6e1" letter-spacing="4">增援未来</text>
  
  <text x="936" y="518" text-anchor="end" font-family="'SFMono-Regular','Menlo','Consolas',monospace" font-size="13" fill="#e8e6e1" opacity="0.45" letter-spacing="3">三体世界图鉴</text>
  <g><rect x="16" y="526" width="928" height="2" fill="#8a6d3b" opacity="0.8"/><rect x="28" y="526" width="904" height="2" fill="#8a6d3b" opacity="0.5800000000000001"/><rect x="40" y="526" width="880" height="2" fill="#8a6d3b" opacity="0.36000000000000004"/></g>
</svg>