<svg xmlns="http://www.w3.org/2000/svg" width="960" height="540" viewBox="0 0 960 540">
  <rect width="960" height="540" fill="#0a0e14"/>
  <rect width="960" height="540" fill="#8a6d3b" opacity="0.12"/>
  <line x1="0" y1="0" x2="0" y2="540" stroke="#e8e6e1" stroke-width="0.5"/><line x1="80" y1="0" x2="80" y2="540" stroke="#e8e6e1" stroke-width="0.5"/><line x1="160" y1="0" x2="160" y2="540" stroke="#e8e6e1" stroke-width="0.5"/><line x1="240" y1="0" x2="240" y2="540" stroke="#e8e6e1" stroke-width="0.5"/><line x1="320" y1="0" x2="320" y2="540" stroke="#e8e6e1" stroke-width="0.5"/><line x1="400" y1="0" x2="400" y2="540" stroke="#e8e6e1" stroke-width="0.5"/><line x1="480" y1="0" x2="480" y2="540" stroke="#e8e6e1" stroke-width="0.5"/><line x1="560" y1="0" x2="560" y2="540" stroke="#e8e6e1" stroke-width="0.5"/><line x1="640" y1="0" x2="640" y2="540" stroke="#e8e6e1" stroke-width="0.5"/><line x1="720" y1="0" x2="720" y2="540" stroke="#e8e6e1" stroke-width="0.5"/><line x1="800" y1="0" x2="800" y2="540" stroke="#e8e6e1" stroke-width="0.5"/><line x1="880" y1="0" x2="880" y2="540" stroke="#e8e6e1" stroke-width="0.5"/><line x1="960" y1="0" x2="960" y2="540" stroke="#e8e6e1" stroke-width="0.5"/><line x1="0" y1="0" x2="960" y2="0" stroke="#e8e6e1" stroke-width="0.5"/><line x1="0" y1="80" x2="960" y2="80" stroke="#e8e6e1" stroke-width="0.5"/><line x1="0" y1="160" x2="960" y2="160" stroke="#e8e6e1" stroke-width="0.5"/><line x1="0" y1="240" x2="960" y2="240" stroke="#e8e6e1" stroke-width="0.5"/><line x1="0" y1="320" x2="960" y2="320" stroke="#e8e6e1" stroke-width="0.5"/><line x1="0" y1="400" x2="960" y2="400" stroke="#e8e6e1" stroke-width="0.5"/><line x1="0" y1="480" x2="960" y2="480" stroke="#e8e6e1" stroke-width="0.5"/>
  <circle cx="492.0" cy="54.7" r="1.1" fill="#e8e6e1" opacity="0.15"/><circle cx="854.3" cy="331.5" r="1.8" fill="#e8e6e1" opacity="0.63"/><circle cx="803.3" cy="290.7" r="1.9" fill="#e8e6e1" opacity="0.41"/><circle cx="937.8" cy="276.0" r="1.0" fill="#e8e6e1" opacity="0.61"/><circle cx="347.1" cy="290.2" r="1.8" fill="#e8e6e1" opacity="0.35"/><circle cx="137.2" cy="508.2" r="1.4" fill="#e8e6e1" opacity="0.55"/><circle cx="272.2" cy="360.5" r="1.6" fill="#e8e6e1" opacity="0.63"/><circle cx="769.8" cy="512.2" r="2.0" fill="#e8e6e1" opacity="0.56"/><circle cx="299.5" cy="529.7" r="1.2" fill="#e8e6e1" opacity="0.63"/><circle cx="14.2" cy="326.2" r="1.1" fill="#e8e6e1" opacity="0.56"/><circle cx="84.7" cy="176.2" r="2.1" fill="#e8e6e1" opacity="0.45"/><circle cx="8.3" cy="354.3" r="0.7" fill="#e8e6e1" opacity="0.42"/><circle cx="746.3" cy="321.0" r="1.1" fill="#e8e6e1" opacity="0.21"/><circle cx="392.8" cy="102.2" r="1.3" fill="#e8e6e1" opacity="0.34"/><circle cx="429.3" cy="311.6" r="1.4" fill="#e8e6e1" opacity="0.39"/><circle cx="298.9" cy="501.5" r="0.8" fill="#e8e6e1" opacity="0.57"/><circle cx="374.7" cy="157.3" r="2.2" fill="#e8e6e1" opacity="0.17"/><circle cx="179.5" cy="84.3" r="2.1" fill="#e8e6e1" opacity="0.31"/><circle cx="157.9" cy="482.0" r="1.7" fill="#e8e6e1" opacity="0.37"/><circle cx="514.9" cy="11.3" r="2.0" fill="#e8e6e1" opacity="0.57"/><circle cx="179.6" cy="506.9" r="0.7" fill="#e8e6e1" opacity="0.49"/><circle cx="381.3" cy="295.3" r="1.0" fill="#e8e6e1" opacity="0.19"/><circle cx="469.4" cy="504.3" r="2.1" fill="#e8e6e1" opacity="0.33"/><circle cx="576.5" cy="502.2" r="1.2" fill="#e8e6e1" opacity="0.62"/><circle cx="22.2" cy="214.8" r="2.0" fill="#e8e6e1" opacity="0.28"/><circle cx="389.5" cy="338.4" r="2.1" fill="#e8e6e1" opacity="0.65"/><circle cx="290.2" cy="524.1" r="1.3" fill="#e8e6e1" opacity="0.25"/><circle cx="675.7" cy="43.1" r="1.1" fill="#e8e6e1" opacity="0.29"/><circle cx="74.6" cy="364.0" r="1.8" fill="#e8e6e1" opacity="0.33"/><circle cx="706.3" cy="31.3" r="1.5" fill="#e8e6e1" opacity="0.61"/><circle cx="225.8" cy="336.1" r="1.9" fill="#e8e6e1" opacity="0.59"/><circle cx="480.1" cy="267.5" r="0.6" fill="#e8e6e1" opacity="0.50"/><circle cx="842.7" cy="208.4" r="1.0" fill="#e8e6e1" opacity="0.33"/><circle cx="485.7" cy="353.8" r="1.0" fill="#e8e6e1" opacity="0.30"/><circle cx="445.8" cy="113.7" r="1.1" fill="#e8e6e1" opacity="0.18"/><circle cx="78.1" cy="130.2" r="1.4" fill="#e8e6e1" opacity="0.62"/><circle cx="408.5" cy="261.1" r="1.3" fill="#e8e6e1" opacity="0.45"/><circle cx="675.4" cy="222.9" r="1.4" fill="#e8e6e1" opacity="0.21"/><circle cx="709.1" cy="181.4" r="1.0" fill="#e8e6e1" opacity="0.59"/><circle cx="752.9" cy="364.2" r="1.7" fill="#e8e6e1" opacity="0.40"/><circle cx="459.7" cy="385.0" r="0.9" fill="#e8e6e1" opacity="0.40"/><circle cx="643.1" cy="514.5" r="1.0" fill="#e8e6e1" opacity="0.54"/><circle cx="559.5" cy="0.3" r="1.8" fill="#e8e6e1" opacity="0.25"/><circle cx="678.7" cy="98.6" r="0.8" fill="#e8e6e1" opacity="0.17"/><circle cx="827.2" cy="219.7" r="0.6" fill="#e8e6e1" opacity="0.37"/><circle cx="350.2" cy="232.5" r="1.7" fill="#e8e6e1" opacity="0.37"/><circle cx="214.4" cy="67.6" r="2.0" fill="#e8e6e1" opacity="0.18"/><circle cx="260.6" cy="275.5" r="1.9" fill="#e8e6e1" opacity="0.30"/><circle cx="105.1" cy="219.1" r="1.7" fill="#e8e6e1" opacity="0.34"/><circle cx="718.0" cy="313.6" r="0.9" fill="#e8e6e1" opacity="0.25"/><circle cx="330.5" cy="74.8" r="1.6" fill="#e8e6e1" opacity="0.28"/><circle cx="50.1" cy="405.7" r="2.1" fill="#e8e6e1" opacity="0.36"/><circle cx="628.2" cy="302.7" r="0.9" fill="#e8e6e1" opacity="0.48"/><circle cx="207.7" cy="534.2" r="1.5" fill="#e8e6e1" opacity="0.55"/><circle cx="417.1" cy="79.1" r="1.7" fill="#e8e6e1" opacity="0.45"/><circle cx="953.0" cy="333.6" r="1.5" fill="#e8e6e1" opacity="0.17"/><circle cx="93.1" cy="307.9" r="2.0" fill="#e8e6e1" opacity="0.53"/><circle cx="540.9" cy="184.4" r="2.1" fill="#e8e6e1" opacity="0.53"/><circle cx="132.4" cy="344.1" r="1.4" fill="#e8e6e1" opacity="0.30"/><circle cx="131.1" cy="448.0" r="2.0" fill="#e8e6e1" opacity="0.44"/><circle cx="57.1" cy="1.5" r="1.2" fill="#e8e6e1" opacity="0.16"/><circle cx="572.6" cy="74.9" r="1.4" fill="#e8e6e1" opacity="0.26"/><circle cx="793.9" cy="62.2" r="1.0" fill="#e8e6e1" opacity="0.38"/><circle cx="739.3" cy="86.1" r="0.8" fill="#e8e6e1" opacity="0.30"/><circle cx="720.7" cy="207.2" r="1.2" fill="#e8e6e1" opacity="0.49"/><circle cx="629.2" cy="516.6" r="1.7" fill="#e8e6e1" opacity="0.44"/><circle cx="378.2" cy="461.2" r="2.1" fill="#e8e6e1" opacity="0.20"/><circle cx="696.2" cy="525.1" r="0.9" fill="#e8e6e1" opacity="0.21"/><circle cx="901.9" cy="277.5" r="1.9" fill="#e8e6e1" opacity="0.49"/><circle cx="821.9" cy="386.2" r="0.6" fill="#e8e6e1" opacity="0.28"/><circle cx="365.8" cy="329.0" r="1.0" fill="#e8e6e1" opacity="0.51"/><circle cx="512.7" cy="137.3" r="1.8" fill="#e8e6e1" opacity="0.40"/><circle cx="692.3" cy="329.0" r="1.1" fill="#e8e6e1" opacity="0.55"/><circle cx="842.5" cy="468.0" r="1.1" fill="#e8e6e1" opacity="0.52"/><circle cx="246.0" cy="211.4" r="1.7" fill="#e8e6e1" opacity="0.18"/><circle cx="237.4" cy="474.1" r="1.1" fill="#e8e6e1" opacity="0.34"/><circle cx="29.4" cy="459.9" r="1.8" fill="#e8e6e1" opacity="0.35"/><circle cx="188.8" cy="418.2" r="1.1" fill="#e8e6e1" opacity="0.59"/><circle cx="627.6" cy="220.4" r="1.6" fill="#e8e6e1" opacity="0.39"/><circle cx="47.4" cy="275.0" r="0.7" fill="#e8e6e1" opacity="0.31"/><circle cx="842.3" cy="407.6" r="2.0" fill="#e8e6e1" opacity="0.37"/><circle cx="412.7" cy="4.7" r="2.0" fill="#e8e6e1" opacity="0.24"/><circle cx="657.2" cy="146.0" r="1.6" fill="#e8e6e1" opacity="0.28"/><circle cx="651.5" cy="325.5" r="0.8" fill="#e8e6e1" opacity="0.39"/><circle cx="114.1" cy="181.8" r="1.8" fill="#e8e6e1" opacity="0.29"/><circle cx="638.0" cy="345.8" r="0.9" fill="#e8e6e1" opacity="0.21"/><circle cx="73.9" cy="320.7" r="1.5" fill="#e8e6e1" opacity="0.54"/><circle cx="7.5" cy="432.3" r="1.8" fill="#e8e6e1" opacity="0.64"/><circle cx="526.8" cy="309.4" r="1.7" fill="#e8e6e1" opacity="0.42"/><circle cx="510.2" cy="493.9" r="1.9" fill="#e8e6e1" opacity="0.15"/><circle cx="735.5" cy="173.1" r="1.7" fill="#e8e6e1" opacity="0.21"/><circle cx="86.9" cy="445.8" r="2.2" fill="#e8e6e1" opacity="0.52"/><circle cx="219.3" cy="131.5" r="2.0" fill="#e8e6e1" opacity="0.56"/><circle cx="268.4" cy="110.8" r="1.9" fill="#e8e6e1" opacity="0.24"/><circle cx="430.8" cy="434.3" r="0.9" fill="#e8e6e1" opacity="0.17"/><circle cx="275.0" cy="142.5" r="1.3" fill="#e8e6e1" opacity="0.58"/><circle cx="25.0" cy="110.1" r="1.5" fill="#e8e6e1" opacity="0.61"/><circle cx="519.0" cy="153.2" r="1.7" fill="#e8e6e1" opacity="0.61"/><circle cx="781.8" cy="5.9" r="0.8" fill="#e8e6e1" opacity="0.57"/><circle cx="507.5" cy="36.5" r="2.1" fill="#e8e6e1" opacity="0.57"/><circle cx="737.4" cy="245.6" r="1.7" fill="#e8e6e1" opacity="0.61"/><circle cx="458.6" cy="395.4" r="1.0" fill="#e8e6e1" opacity="0.32"/><circle cx="129.1" cy="139.0" r="0.8" fill="#e8e6e1" opacity="0.51"/><circle cx="55.7" cy="107.2" r="0.6" fill="#e8e6e1" opacity="0.43"/><circle cx="597.0" cy="98.1" r="2.1" fill="#e8e6e1" opacity="0.31"/><circle cx="600.8" cy="260.5" r="0.6" fill="#e8e6e1" opacity="0.43"/><circle cx="105.9" cy="124.3" r="1.8" fill="#e8e6e1" opacity="0.41"/><circle cx="265.0" cy="534.1" r="0.9" fill="#e8e6e1" opacity="0.60"/><circle cx="98.2" cy="292.5" r="1.6" fill="#e8e6e1" opacity="0.39"/><circle cx="8.4" cy="506.4" r="1.0" fill="#e8e6e1" opacity="0.49"/><circle cx="858.2" cy="214.9" r="0.6" fill="#e8e6e1" opacity="0.35"/><circle cx="688.4" cy="179.7" r="1.6" fill="#e8e6e1" opacity="0.39"/><circle cx="68.0" cy="12.9" r="1.8" fill="#e8e6e1" opacity="0.38"/><circle cx="773.7" cy="277.8" r="1.9" fill="#e8e6e1" opacity="0.40"/><circle cx="257.6" cy="374.7" r="1.0" fill="#e8e6e1" opacity="0.53"/><circle cx="738.6" cy="97.1" r="1.5" fill="#e8e6e1" opacity="0.36"/><circle cx="197.5" cy="308.7" r="1.8" fill="#e8e6e1" opacity="0.29"/><circle cx="426.0" cy="347.4" r="1.9" fill="#e8e6e1" opacity="0.42"/><circle cx="255.8" cy="474.9" r="1.6" fill="#e8e6e1" opacity="0.45"/><circle cx="17.8" cy="509.5" r="0.8" fill="#e8e6e1" opacity="0.37"/>
  <text x="56" y="84" font-family="'SFMono-Regular','Menlo',monospace" font-size="20" fill="#8a6d3b" letter-spacing="4">2007</text>
  <text x="56" y="300" font-family="'Noto Serif SC','Songti SC',serif" font-size="52" fill="#e8e6e1" letter-spacing="4">宇宙闪烁</text>
  <text x="58" y="352" font-family="'PingFang SC','Microsoft YaHei',sans-serif" font-size="24" fill="#9aa0a8">三体 · 红岸与危机纪元</text>
  <polyline points="0,238 16,278 32,236 48,244 64,245 80,253 96,253 112,234 128,263 144,246 160,258 176,266 192,268 208,268 224,268 240,248 256,242 272,222 288,241 304,226 320,250 336,238 352,261 368,268 384,235 400,267 416,228 432,239 448,239 464,259 480,269 496,270 512,246 528,231 544,232 560,245 576,277 592,269 608,266 624,236 640,247 656,228 672,235 688,258 704,226 720,271 736,270 752,269 768,239 784,267 800,232 816,258 832,273 848,230 864,271 880,261 896,272 912,242 928,240 944,264 960,248" fill="none" stroke="#8a6d3b" stroke-width="1.5" opacity="0.55"/>
</svg>