<svg xmlns="http://www.w3.org/2000/svg" width="960" height="540" viewBox="0 0 960 540">
  <rect width="960" height="540" fill="#0a0e14"/>
  <rect width="960" height="540" fill="#7a6a92" opacity="0.12"/>
  <line x1="0" y1="0" x2="0" y2="540" stroke="#e8e6e1" stroke-width="0.5"/><line x1="80" y1="0" x2="80" y2="540" stroke="#e8e6e1" stroke-width="0.5"/><line x1="160" y1="0" x2="160" y2="540" stroke="#e8e6e1" stroke-width="0.5"/><line x1="240" y1="0" x2="240" y2="540" stroke="#e8e6e1" stroke-width="0.5"/><line x1="320" y1="0" x2="320" y2="540" stroke="#e8e6e1" stroke-width="0.5"/><line x1="400" y1="0" x2="400" y2="540" stroke="#e8e6e1" stroke-width="0.5"/><line x1="480" y1="0" x2="480" y2="540" stroke="#e8e6e1" stroke-width="0.5"/><line x1="560" y1="0" x2="560" y2="540" stroke="#e8e6e1" stroke-width="0.5"/><line x1="640" y1="0" x2="640" y2="540" stroke="#e8e6e1" stroke-width="0.5"/><line x1="720" y1="0" x2="720" y2="540" stroke="#e8e6e1" stroke-width="0.5"/><line x1="800" y1="0" x2="800" y2="540" stroke="#e8e6e1" stroke-width="0.5"/><line x1="880" y1="0" x2="880" y2="540" stroke="#e8e6e1" stroke-width="0.5"/><line x1="960" y1="0" x2="960" y2="540" stroke="#e8e6e1" stroke-width="0.5"/><line x1="0" y1="0" x2="960" y2="0" stroke="#e8e6e1" stroke-width="0.5"/><line x1="0" y1="80" x2="960" y2="80" stroke="#e8e6e1" stroke-width="0.5"/><line x1="0" y1="160" x2="960" y2="160" stroke="#e8e6e1" stroke-width="0.5"/><line x1="0" y1="240" x2="960" y2="240" stroke="#e8e6e1" stroke-width="0.5"/><line x1="0" y1="320" x2="960" y2="320" stroke="#e8e6e1" stroke-width="0.5"/><line x1="0" y1="400" x2="960" y2="400" stroke="#e8e6e1" stroke-width="0.5"/><line x1="0" y1="480" x2="960" y2="480" stroke="#e8e6e1" stroke-width="0.5"/>
  <circle cx="303.4" cy="345.7" r="1.4" fill="#e8e6e1" opacity="0.43"/><circle cx="196.1" cy="195.8" r="0.7" fill="#e8e6e1" opacity="0.21"/><circle cx="90.2" cy="429.6" r="2.2" fill="#e8e6e1" opacity="0.44"/><circle cx="750.0" cy="262.1" r="1.3" fill="#e8e6e1" opacity="0.48"/><circle cx="304.8" cy="533.8" r="2.0" fill="#e8e6e1" opacity="0.25"/><circle cx="97.7" cy="497.9" r="0.8" fill="#e8e6e1" opacity="0.42"/><circle cx="551.7" cy="248.3" r="1.8" fill="#e8e6e1" opacity="0.48"/><circle cx="242.0" cy="446.5" r="0.7" fill="#e8e6e1" opacity="0.30"/><circle cx="56.6" cy="100.9" r="1.6" fill="#e8e6e1" opacity="0.44"/><circle cx="99.2" cy="430.2" r="2.2" fill="#e8e6e1" opacity="0.28"/><circle cx="948.6" cy="176.2" r="0.7" fill="#e8e6e1" opacity="0.58"/><circle cx="656.6" cy="473.3" r="0.7" fill="#e8e6e1" opacity="0.51"/><circle cx="71.1" cy="206.5" r="1.0" fill="#e8e6e1" opacity="0.21"/><circle cx="69.8" cy="471.5" r="2.0" fill="#e8e6e1" opacity="0.28"/><circle cx="494.7" cy="208.3" r="1.2" fill="#e8e6e1" opacity="0.54"/><circle cx="337.2" cy="331.6" r="0.7" fill="#e8e6e1" opacity="0.29"/><circle cx="628.5" cy="441.7" r="1.4" fill="#e8e6e1" opacity="0.35"/><circle cx="867.9" cy="507.6" r="2.0" fill="#e8e6e1" opacity="0.57"/><circle cx="117.3" cy="289.8" r="1.7" fill="#e8e6e1" opacity="0.61"/><circle cx="807.3" cy="116.6" r="2.0" fill="#e8e6e1" opacity="0.41"/><circle cx="806.8" cy="110.9" r="1.1" fill="#e8e6e1" opacity="0.42"/><circle cx="109.8" cy="174.4" r="1.4" fill="#e8e6e1" opacity="0.35"/><circle cx="849.8" cy="179.2" r="1.0" fill="#e8e6e1" opacity="0.63"/><circle cx="562.9" cy="295.4" r="0.9" fill="#e8e6e1" opacity="0.63"/><circle cx="135.2" cy="329.3" r="1.0" fill="#e8e6e1" opacity="0.35"/><circle cx="238.1" cy="422.5" r="0.7" fill="#e8e6e1" opacity="0.34"/><circle cx="489.5" cy="353.5" r="2.0" fill="#e8e6e1" opacity="0.45"/><circle cx="712.7" cy="92.9" r="1.1" fill="#e8e6e1" opacity="0.57"/><circle cx="762.7" cy="458.3" r="1.2" fill="#e8e6e1" opacity="0.32"/><circle cx="606.4" cy="198.5" r="2.2" fill="#e8e6e1" opacity="0.32"/><circle cx="408.0" cy="51.3" r="1.9" fill="#e8e6e1" opacity="0.42"/><circle cx="128.5" cy="444.3" r="1.0" fill="#e8e6e1" opacity="0.39"/><circle cx="460.9" cy="43.9" r="2.1" fill="#e8e6e1" opacity="0.53"/><circle cx="153.2" cy="357.2" r="0.9" fill="#e8e6e1" opacity="0.57"/><circle cx="439.5" cy="80.2" r="1.9" fill="#e8e6e1" opacity="0.55"/><circle cx="520.6" cy="85.4" r="1.5" fill="#e8e6e1" opacity="0.59"/><circle cx="537.9" cy="187.1" r="0.9" fill="#e8e6e1" opacity="0.33"/><circle cx="955.3" cy="493.8" r="1.9" fill="#e8e6e1" opacity="0.25"/><circle cx="294.4" cy="274.5" r="1.3" fill="#e8e6e1" opacity="0.60"/><circle cx="672.8" cy="186.5" r="1.4" fill="#e8e6e1" opacity="0.62"/><circle cx="863.5" cy="443.1" r="1.0" fill="#e8e6e1" opacity="0.29"/><circle cx="486.5" cy="504.0" r="2.2" fill="#e8e6e1" opacity="0.36"/><circle cx="537.0" cy="391.5" r="0.9" fill="#e8e6e1" opacity="0.54"/><circle cx="209.4" cy="110.2" r="1.1" fill="#e8e6e1" opacity="0.53"/><circle cx="117.5" cy="216.1" r="1.4" fill="#e8e6e1" opacity="0.52"/><circle cx="190.9" cy="286.8" r="0.8" fill="#e8e6e1" opacity="0.29"/><circle cx="935.6" cy="384.0" r="2.1" fill="#e8e6e1" opacity="0.46"/><circle cx="603.2" cy="280.8" r="1.5" fill="#e8e6e1" opacity="0.37"/><circle cx="745.6" cy="118.8" r="1.4" fill="#e8e6e1" opacity="0.16"/><circle cx="773.9" cy="57.3" r="0.7" fill="#e8e6e1" opacity="0.48"/><circle cx="339.9" cy="26.7" r="1.8" fill="#e8e6e1" opacity="0.44"/><circle cx="33.1" cy="106.3" r="1.9" fill="#e8e6e1" opacity="0.58"/><circle cx="202.9" cy="458.7" r="1.1" fill="#e8e6e1" opacity="0.40"/><circle cx="850.2" cy="440.3" r="1.1" fill="#e8e6e1" opacity="0.48"/><circle cx="4.9" cy="143.1" r="1.0" fill="#e8e6e1" opacity="0.43"/><circle cx="12.1" cy="59.4" r="1.2" fill="#e8e6e1" opacity="0.53"/><circle cx="236.1" cy="175.6" r="1.5" fill="#e8e6e1" opacity="0.16"/><circle cx="895.5" cy="19.3" r="1.0" fill="#e8e6e1" opacity="0.35"/><circle cx="303.1" cy="60.8" r="2.1" fill="#e8e6e1" opacity="0.34"/><circle cx="357.9" cy="212.1" r="1.6" fill="#e8e6e1" opacity="0.29"/><circle cx="648.3" cy="491.2" r="1.2" fill="#e8e6e1" opacity="0.21"/><circle cx="467.3" cy="363.3" r="1.1" fill="#e8e6e1" opacity="0.24"/><circle cx="865.9" cy="496.1" r="2.2" fill="#e8e6e1" opacity="0.48"/><circle cx="61.8" cy="178.8" r="1.0" fill="#e8e6e1" opacity="0.15"/><circle cx="366.3" cy="277.6" r="1.4" fill="#e8e6e1" opacity="0.60"/><circle cx="943.9" cy="505.2" r="1.7" fill="#e8e6e1" opacity="0.31"/><circle cx="738.9" cy="477.8" r="1.3" fill="#e8e6e1" opacity="0.60"/><circle cx="323.6" cy="196.5" r="0.7" fill="#e8e6e1" opacity="0.30"/><circle cx="526.6" cy="274.1" r="1.3" fill="#e8e6e1" opacity="0.29"/><circle cx="945.3" cy="15.9" r="1.2" fill="#e8e6e1" opacity="0.45"/><circle cx="445.5" cy="250.6" r="0.8" fill="#e8e6e1" opacity="0.28"/><circle cx="403.3" cy="213.1" r="0.8" fill="#e8e6e1" opacity="0.50"/><circle cx="591.9" cy="170.9" r="1.1" fill="#e8e6e1" opacity="0.34"/><circle cx="409.8" cy="54.4" r="1.0" fill="#e8e6e1" opacity="0.41"/><circle cx="626.7" cy="492.4" r="1.9" fill="#e8e6e1" opacity="0.50"/><circle cx="123.3" cy="516.9" r="1.2" fill="#e8e6e1" opacity="0.44"/><circle cx="790.3" cy="47.8" r="1.6" fill="#e8e6e1" opacity="0.30"/><circle cx="145.0" cy="91.3" r="1.6" fill="#e8e6e1" opacity="0.17"/><circle cx="394.8" cy="530.3" r="0.8" fill="#e8e6e1" opacity="0.29"/><circle cx="692.1" cy="154.2" r="2.0" fill="#e8e6e1" opacity="0.64"/><circle cx="709.1" cy="213.9" r="1.6" fill="#e8e6e1" opacity="0.60"/><circle cx="708.9" cy="302.7" r="2.1" fill="#e8e6e1" opacity="0.22"/><circle cx="368.4" cy="110.7" r="0.8" fill="#e8e6e1" opacity="0.61"/><circle cx="538.8" cy="150.9" r="1.3" fill="#e8e6e1" opacity="0.21"/><circle cx="20.5" cy="402.1" r="2.1" fill="#e8e6e1" opacity="0.55"/><circle cx="346.9" cy="310.4" r="1.7" fill="#e8e6e1" opacity="0.33"/><circle cx="249.1" cy="250.3" r="2.0" fill="#e8e6e1" opacity="0.56"/><circle cx="660.4" cy="146.9" r="2.1" fill="#e8e6e1" opacity="0.62"/><circle cx="640.2" cy="49.2" r="1.6" fill="#e8e6e1" opacity="0.31"/><circle cx="518.2" cy="468.1" r="0.7" fill="#e8e6e1" opacity="0.25"/><circle cx="372.9" cy="192.3" r="1.3" fill="#e8e6e1" opacity="0.25"/><circle cx="704.5" cy="227.2" r="1.1" fill="#e8e6e1" opacity="0.41"/><circle cx="242.0" cy="247.1" r="1.4" fill="#e8e6e1" opacity="0.36"/><circle cx="834.2" cy="24.1" r="2.0" fill="#e8e6e1" opacity="0.46"/><circle cx="85.5" cy="422.8" r="0.6" fill="#e8e6e1" opacity="0.31"/><circle cx="105.2" cy="401.0" r="1.6" fill="#e8e6e1" opacity="0.19"/><circle cx="132.0" cy="331.8" r="2.2" fill="#e8e6e1" opacity="0.64"/><circle cx="809.4" cy="497.2" r="1.8" fill="#e8e6e1" opacity="0.48"/><circle cx="782.8" cy="184.0" r="1.5" fill="#e8e6e1" opacity="0.35"/><circle cx="428.6" cy="308.3" r="1.6" fill="#e8e6e1" opacity="0.62"/><circle cx="887.6" cy="409.8" r="2.2" fill="#e8e6e1" opacity="0.30"/><circle cx="430.2" cy="436.6" r="2.2" fill="#e8e6e1" opacity="0.40"/><circle cx="194.2" cy="299.8" r="1.1" fill="#e8e6e1" opacity="0.59"/><circle cx="476.9" cy="127.8" r="1.2" fill="#e8e6e1" opacity="0.16"/><circle cx="873.3" cy="445.8" r="1.2" fill="#e8e6e1" opacity="0.38"/><circle cx="340.0" cy="157.2" r="2.1" fill="#e8e6e1" opacity="0.42"/><circle cx="176.2" cy="303.4" r="1.4" fill="#e8e6e1" opacity="0.22"/><circle cx="219.4" cy="304.9" r="1.9" fill="#e8e6e1" opacity="0.28"/><circle cx="909.0" cy="277.8" r="1.3" fill="#e8e6e1" opacity="0.59"/><circle cx="419.5" cy="309.4" r="0.7" fill="#e8e6e1" opacity="0.59"/><circle cx="76.4" cy="509.9" r="1.2" fill="#e8e6e1" opacity="0.63"/><circle cx="143.6" cy="269.6" r="1.1" fill="#e8e6e1" opacity="0.60"/><circle cx="376.7" cy="178.9" r="1.7" fill="#e8e6e1" opacity="0.36"/><circle cx="542.5" cy="354.0" r="2.0" fill="#e8e6e1" opacity="0.33"/><circle cx="309.6" cy="218.1" r="0.9" fill="#e8e6e1" opacity="0.52"/><circle cx="76.4" cy="412.9" r="2.0" fill="#e8e6e1" opacity="0.16"/><circle cx="312.5" cy="493.1" r="1.1" fill="#e8e6e1" opacity="0.38"/><circle cx="447.1" cy="116.6" r="1.3" fill="#e8e6e1" opacity="0.59"/><circle cx="245.5" cy="536.0" r="0.8" fill="#e8e6e1" opacity="0.60"/><circle cx="34.8" cy="497.6" r="1.7" fill="#e8e6e1" opacity="0.60"/>
  <text x="56" y="84" font-family="'SFMono-Regular','Menlo',monospace" font-size="20" fill="#7a6a92" letter-spacing="4">掩体纪元元年</text>
  <text x="56" y="300" font-family="'Noto Serif SC','Songti SC',serif" font-size="52" fill="#e8e6e1" letter-spacing="4">掩体纪元：躲进行星的阴影</text>
  <text x="58" y="352" font-family="'PingFang SC','Microsoft YaHei',sans-serif" font-size="24" fill="#9aa0a8">死神永生 · 掩体纪元</text>
  <polyline points="0,277 16,276 32,252 48,231 64,268 80,257 96,259 112,273 128,231 144,246 160,226 176,268 192,250 208,236 224,250 240,275 256,249 272,231 288,260 304,255 320,227 336,252 352,266 368,264 384,228 400,243 416,225 432,241 448,267 464,259 480,232 496,229 512,232 528,233 544,227 560,241 576,271 592,271 608,229 624,275 640,268 656,269 672,272 688,277 704,259 720,242 736,269 752,263 768,235 784,265 800,268 816,262 832,275 848,227 864,255 880,263 896,228 912,259 928,265 944,230 960,262" fill="none" stroke="#7a6a92" stroke-width="1.5" opacity="0.55"/>
</svg>