<svg xmlns="http://www.w3.org/2000/svg" width="960" height="540" viewBox="0 0 960 540">
  <rect width="960" height="540" fill="#0a0e14"/>
  <rect width="960" height="540" fill="#8a6d3b" opacity="0.12"/>
  <line x1="0" y1="0" x2="0" y2="540" stroke="#e8e6e1" stroke-width="0.5"/><line x1="80" y1="0" x2="80" y2="540" stroke="#e8e6e1" stroke-width="0.5"/><line x1="160" y1="0" x2="160" y2="540" stroke="#e8e6e1" stroke-width="0.5"/><line x1="240" y1="0" x2="240" y2="540" stroke="#e8e6e1" stroke-width="0.5"/><line x1="320" y1="0" x2="320" y2="540" stroke="#e8e6e1" stroke-width="0.5"/><line x1="400" y1="0" x2="400" y2="540" stroke="#e8e6e1" stroke-width="0.5"/><line x1="480" y1="0" x2="480" y2="540" stroke="#e8e6e1" stroke-width="0.5"/><line x1="560" y1="0" x2="560" y2="540" stroke="#e8e6e1" stroke-width="0.5"/><line x1="640" y1="0" x2="640" y2="540" stroke="#e8e6e1" stroke-width="0.5"/><line x1="720" y1="0" x2="720" y2="540" stroke="#e8e6e1" stroke-width="0.5"/><line x1="800" y1="0" x2="800" y2="540" stroke="#e8e6e1" stroke-width="0.5"/><line x1="880" y1="0" x2="880" y2="540" stroke="#e8e6e1" stroke-width="0.5"/><line x1="960" y1="0" x2="960" y2="540" stroke="#e8e6e1" stroke-width="0.5"/><line x1="0" y1="0" x2="960" y2="0" stroke="#e8e6e1" stroke-width="0.5"/><line x1="0" y1="80" x2="960" y2="80" stroke="#e8e6e1" stroke-width="0.5"/><line x1="0" y1="160" x2="960" y2="160" stroke="#e8e6e1" stroke-width="0.5"/><line x1="0" y1="240" x2="960" y2="240" stroke="#e8e6e1" stroke-width="0.5"/><line x1="0" y1="320" x2="960" y2="320" stroke="#e8e6e1" stroke-width="0.5"/><line x1="0" y1="400" x2="960" y2="400" stroke="#e8e6e1" stroke-width="0.5"/><line x1="0" y1="480" x2="960" y2="480" stroke="#e8e6e1" stroke-width="0.5"/>
  <circle cx="754.9" cy="277.0" r="2.2" fill="#e8e6e1" opacity="0.56"/><circle cx="712.5" cy="141.1" r="2.1" fill="#e8e6e1" opacity="0.49"/><circle cx="172.1" cy="308.1" r="1.0" fill="#e8e6e1" opacity="0.16"/><circle cx="330.2" cy="112.6" r="1.1" fill="#e8e6e1" opacity="0.23"/><circle cx="522.9" cy="322.3" r="1.5" fill="#e8e6e1" opacity="0.32"/><circle cx="528.3" cy="278.8" r="0.6" fill="#e8e6e1" opacity="0.54"/><circle cx="152.3" cy="52.6" r="1.5" fill="#e8e6e1" opacity="0.50"/><circle cx="462.6" cy="520.5" r="2.1" fill="#e8e6e1" opacity="0.32"/><circle cx="495.0" cy="449.2" r="1.8" fill="#e8e6e1" opacity="0.21"/><circle cx="685.0" cy="228.1" r="2.1" fill="#e8e6e1" opacity="0.63"/><circle cx="922.5" cy="242.0" r="0.6" fill="#e8e6e1" opacity="0.16"/><circle cx="38.2" cy="538.6" r="0.8" fill="#e8e6e1" opacity="0.34"/><circle cx="689.1" cy="500.5" r="1.0" fill="#e8e6e1" opacity="0.42"/><circle cx="663.5" cy="484.0" r="1.3" fill="#e8e6e1" opacity="0.47"/><circle cx="590.1" cy="535.6" r="2.0" fill="#e8e6e1" opacity="0.36"/><circle cx="866.0" cy="276.8" r="1.3" fill="#e8e6e1" opacity="0.42"/><circle cx="437.8" cy="517.8" r="1.2" fill="#e8e6e1" opacity="0.16"/><circle cx="566.7" cy="269.0" r="0.7" fill="#e8e6e1" opacity="0.60"/><circle cx="570.5" cy="326.3" r="1.8" fill="#e8e6e1" opacity="0.24"/><circle cx="658.7" cy="0.8" r="1.3" fill="#e8e6e1" opacity="0.22"/><circle cx="61.9" cy="426.0" r="1.0" fill="#e8e6e1" opacity="0.20"/><circle cx="492.2" cy="251.1" r="1.3" fill="#e8e6e1" opacity="0.52"/><circle cx="561.3" cy="240.4" r="1.8" fill="#e8e6e1" opacity="0.32"/><circle cx="215.0" cy="240.7" r="2.1" fill="#e8e6e1" opacity="0.20"/><circle cx="281.8" cy="223.9" r="2.0" fill="#e8e6e1" opacity="0.19"/><circle cx="783.7" cy="270.5" r="1.4" fill="#e8e6e1" opacity="0.52"/><circle cx="681.8" cy="32.9" r="1.2" fill="#e8e6e1" opacity="0.25"/><circle cx="669.4" cy="493.7" r="0.7" fill="#e8e6e1" opacity="0.23"/><circle cx="918.0" cy="142.5" r="1.7" fill="#e8e6e1" opacity="0.47"/><circle cx="84.0" cy="55.9" r="1.9" fill="#e8e6e1" opacity="0.61"/><circle cx="174.7" cy="192.8" r="0.6" fill="#e8e6e1" opacity="0.50"/><circle cx="415.6" cy="473.6" r="1.2" fill="#e8e6e1" opacity="0.58"/><circle cx="300.2" cy="57.9" r="1.6" fill="#e8e6e1" opacity="0.46"/><circle cx="471.8" cy="99.5" r="2.0" fill="#e8e6e1" opacity="0.35"/><circle cx="594.4" cy="520.6" r="1.6" fill="#e8e6e1" opacity="0.28"/><circle cx="322.3" cy="239.1" r="1.0" fill="#e8e6e1" opacity="0.58"/><circle cx="187.4" cy="187.9" r="2.1" fill="#e8e6e1" opacity="0.54"/><circle cx="887.8" cy="168.5" r="0.7" fill="#e8e6e1" opacity="0.53"/><circle cx="829.6" cy="158.8" r="1.8" fill="#e8e6e1" opacity="0.48"/><circle cx="333.1" cy="364.8" r="2.0" fill="#e8e6e1" opacity="0.39"/><circle cx="482.3" cy="503.2" r="1.8" fill="#e8e6e1" opacity="0.57"/><circle cx="235.0" cy="129.7" r="1.5" fill="#e8e6e1" opacity="0.25"/><circle cx="409.1" cy="435.5" r="1.4" fill="#e8e6e1" opacity="0.40"/><circle cx="539.4" cy="130.2" r="0.9" fill="#e8e6e1" opacity="0.27"/><circle cx="188.3" cy="177.5" r="2.1" fill="#e8e6e1" opacity="0.55"/><circle cx="132.2" cy="112.4" r="0.6" fill="#e8e6e1" opacity="0.37"/><circle cx="398.9" cy="199.6" r="1.5" fill="#e8e6e1" opacity="0.54"/><circle cx="37.1" cy="171.4" r="0.6" fill="#e8e6e1" opacity="0.34"/><circle cx="451.8" cy="136.2" r="0.9" fill="#e8e6e1" opacity="0.54"/><circle cx="767.7" cy="44.4" r="1.8" fill="#e8e6e1" opacity="0.23"/><circle cx="819.4" cy="493.4" r="0.8" fill="#e8e6e1" opacity="0.32"/><circle cx="533.1" cy="15.0" r="0.8" fill="#e8e6e1" opacity="0.42"/><circle cx="748.9" cy="381.4" r="2.1" fill="#e8e6e1" opacity="0.40"/><circle cx="112.6" cy="359.9" r="1.3" fill="#e8e6e1" opacity="0.64"/><circle cx="522.7" cy="271.4" r="1.3" fill="#e8e6e1" opacity="0.20"/><circle cx="74.4" cy="219.9" r="1.2" fill="#e8e6e1" opacity="0.31"/><circle cx="428.7" cy="491.1" r="1.9" fill="#e8e6e1" opacity="0.22"/><circle cx="942.6" cy="287.4" r="1.0" fill="#e8e6e1" opacity="0.21"/><circle cx="836.9" cy="369.0" r="0.8" fill="#e8e6e1" opacity="0.26"/><circle cx="573.3" cy="303.2" r="1.5" fill="#e8e6e1" opacity="0.17"/><circle cx="478.9" cy="149.4" r="1.0" fill="#e8e6e1" opacity="0.29"/><circle cx="36.1" cy="458.8" r="1.2" fill="#e8e6e1" opacity="0.48"/><circle cx="335.5" cy="218.4" r="0.6" fill="#e8e6e1" opacity="0.38"/><circle cx="462.3" cy="296.5" r="1.2" fill="#e8e6e1" opacity="0.30"/><circle cx="918.8" cy="281.5" r="2.1" fill="#e8e6e1" opacity="0.24"/><circle cx="376.4" cy="187.6" r="2.0" fill="#e8e6e1" opacity="0.27"/><circle cx="17.2" cy="247.1" r="0.7" fill="#e8e6e1" opacity="0.19"/><circle cx="813.5" cy="375.7" r="1.3" fill="#e8e6e1" opacity="0.36"/><circle cx="689.4" cy="503.7" r="0.6" fill="#e8e6e1" opacity="0.54"/><circle cx="762.0" cy="106.3" r="1.6" fill="#e8e6e1" opacity="0.38"/><circle cx="292.3" cy="220.8" r="1.0" fill="#e8e6e1" opacity="0.49"/><circle cx="127.9" cy="299.5" r="0.7" fill="#e8e6e1" opacity="0.35"/><circle cx="6.0" cy="411.4" r="1.8" fill="#e8e6e1" opacity="0.50"/><circle cx="806.9" cy="107.7" r="1.1" fill="#e8e6e1" opacity="0.55"/><circle cx="69.9" cy="231.4" r="1.2" fill="#e8e6e1" opacity="0.51"/><circle cx="783.9" cy="209.0" r="1.3" fill="#e8e6e1" opacity="0.19"/><circle cx="165.4" cy="58.5" r="1.6" fill="#e8e6e1" opacity="0.26"/><circle cx="190.8" cy="395.4" r="0.9" fill="#e8e6e1" opacity="0.26"/><circle cx="272.4" cy="377.5" r="1.9" fill="#e8e6e1" opacity="0.41"/><circle cx="352.0" cy="135.7" r="1.7" fill="#e8e6e1" opacity="0.54"/><circle cx="206.7" cy="276.6" r="1.6" fill="#e8e6e1" opacity="0.63"/><circle cx="42.0" cy="382.0" r="1.3" fill="#e8e6e1" opacity="0.32"/><circle cx="539.4" cy="49.3" r="1.6" fill="#e8e6e1" opacity="0.61"/><circle cx="450.2" cy="106.9" r="2.2" fill="#e8e6e1" opacity="0.45"/><circle cx="455.2" cy="204.1" r="1.0" fill="#e8e6e1" opacity="0.47"/><circle cx="452.7" cy="130.8" r="0.9" fill="#e8e6e1" opacity="0.64"/><circle cx="149.5" cy="362.3" r="2.1" fill="#e8e6e1" opacity="0.30"/><circle cx="92.0" cy="86.8" r="1.9" fill="#e8e6e1" opacity="0.26"/><circle cx="564.1" cy="247.1" r="0.8" fill="#e8e6e1" opacity="0.30"/><circle cx="506.8" cy="120.7" r="1.7" fill="#e8e6e1" opacity="0.21"/><circle cx="506.8" cy="316.2" r="1.1" fill="#e8e6e1" opacity="0.38"/><circle cx="301.9" cy="91.9" r="1.6" fill="#e8e6e1" opacity="0.26"/><circle cx="208.0" cy="16.2" r="1.0" fill="#e8e6e1" opacity="0.50"/><circle cx="474.7" cy="292.3" r="0.8" fill="#e8e6e1" opacity="0.63"/><circle cx="50.5" cy="305.9" r="1.7" fill="#e8e6e1" opacity="0.62"/><circle cx="394.5" cy="461.2" r="1.6" fill="#e8e6e1" opacity="0.44"/><circle cx="226.9" cy="193.6" r="1.8" fill="#e8e6e1" opacity="0.40"/><circle cx="599.9" cy="155.9" r="1.7" fill="#e8e6e1" opacity="0.38"/><circle cx="743.2" cy="189.7" r="1.1" fill="#e8e6e1" opacity="0.65"/><circle cx="516.4" cy="376.4" r="2.0" fill="#e8e6e1" opacity="0.28"/><circle cx="699.9" cy="13.9" r="1.1" fill="#e8e6e1" opacity="0.54"/><circle cx="425.6" cy="142.3" r="1.4" fill="#e8e6e1" opacity="0.39"/><circle cx="349.1" cy="44.4" r="2.0" fill="#e8e6e1" opacity="0.63"/><circle cx="832.8" cy="400.7" r="1.7" fill="#e8e6e1" opacity="0.36"/><circle cx="568.2" cy="488.5" r="1.0" fill="#e8e6e1" opacity="0.22"/><circle cx="449.2" cy="57.4" r="0.6" fill="#e8e6e1" opacity="0.36"/><circle cx="305.3" cy="444.4" r="1.7" fill="#e8e6e1" opacity="0.36"/><circle cx="404.7" cy="144.5" r="1.3" fill="#e8e6e1" opacity="0.26"/><circle cx="153.7" cy="98.6" r="2.0" fill="#e8e6e1" opacity="0.42"/><circle cx="706.7" cy="160.3" r="0.9" fill="#e8e6e1" opacity="0.23"/><circle cx="282.9" cy="461.5" r="1.0" fill="#e8e6e1" opacity="0.40"/><circle cx="408.9" cy="259.3" r="0.6" fill="#e8e6e1" opacity="0.53"/><circle cx="405.6" cy="433.4" r="1.3" fill="#e8e6e1" opacity="0.32"/><circle cx="314.4" cy="234.0" r="1.2" fill="#e8e6e1" opacity="0.45"/><circle cx="107.3" cy="338.8" r="2.1" fill="#e8e6e1" opacity="0.16"/><circle cx="676.7" cy="232.7" r="2.1" fill="#e8e6e1" opacity="0.19"/><circle cx="181.2" cy="420.1" r="2.1" fill="#e8e6e1" opacity="0.28"/><circle cx="674.5" cy="168.5" r="1.2" fill="#e8e6e1" opacity="0.50"/><circle cx="579.9" cy="150.1" r="1.1" fill="#e8e6e1" opacity="0.38"/><circle cx="777.2" cy="259.4" r="1.6" fill="#e8e6e1" opacity="0.65"/>
  <polyline points="0,281 16,241 32,292 48,259 64,252 80,248 96,291 112,282 128,251 144,282 160,250 176,292 192,257 208,239 224,283 240,243 256,252 272,282 288,303 304,276 320,250 336,297 352,240 368,242 384,300 400,290 416,267 432,255 448,296 464,245 480,247 496,274 512,252 528,286 544,294 560,246 576,265 592,294 608,243 624,299 640,257 656,280 672,250 688,246 704,248 720,246 736,268 752,239 768,254 784,251 800,288 816,252 832,294 848,261 864,286 880,276 896,247 912,266 928,257 944,247 960,282" fill="none" stroke="#8a6d3b" stroke-width="1.5" opacity="0.55"/>
  <text x="56" y="84" font-family="'SFMono-Regular','Menlo',monospace" font-size="20" fill="#8a6d3b" letter-spacing="4">2007</text>
  <text x="56" y="300" font-family="'Noto Serif SC','Songti SC',serif" font-size="52" fill="#e8e6e1" letter-spacing="4">ETO 覆灭与叶文洁被捕</text>
  <text x="58" y="352" font-family="'PingFang SC','Microsoft YaHei',sans-serif" font-size="24" fill="#9aa0a8">三体 · 红岸与危机纪元</text>
</svg>