<svg xmlns="http://www.w3.org/2000/svg" width="480" height="640" viewBox="0 0 480 640">
  <defs>
    <linearGradient id="bg" x1="0" y1="0" x2="0.6" y2="1">
      <stop offset="0" stop-color="#0a0e14"/><stop offset="1" stop-color="#2a3350"/>
    </linearGradient>
    <radialGradient id="glow" cx="0.78" cy="0.18" r="0.75">
      <stop offset="0" stop-color="#2a3350" stop-opacity="0.5"/><stop offset="1" stop-color="#2a3350" stop-opacity="0"/>
    </radialGradient>
  </defs><rect width="480" height="640" fill="url(#bg)"/><rect width="480" height="640" fill="url(#glow)"/>
  <circle cx="174.0" cy="84.5" r="1.7" fill="#e8e6e1" opacity="0.19"/><circle cx="414.9" cy="372.4" r="1.6" fill="#e8e6e1" opacity="0.39"/><circle cx="101.7" cy="132.2" r="1.1" fill="#e8e6e1" opacity="0.43"/><circle cx="217.8" cy="69.4" r="1.1" fill="#e8e6e1" opacity="0.46"/><circle cx="355.9" cy="194.1" r="2.0" fill="#e8e6e1" opacity="0.18"/><circle cx="335.4" cy="553.3" r="1.7" fill="#e8e6e1" opacity="0.20"/><circle cx="24.7" cy="427.0" r="0.6" fill="#e8e6e1" opacity="0.44"/><circle cx="447.6" cy="482.2" r="1.6" fill="#e8e6e1" opacity="0.40"/><circle cx="438.5" cy="343.2" r="0.7" fill="#e8e6e1" opacity="0.33"/><circle cx="104.9" cy="361.6" r="1.3" fill="#e8e6e1" opacity="0.16"/><circle cx="32.3" cy="417.4" r="1.7" fill="#e8e6e1" opacity="0.18"/><circle cx="35.3" cy="535.4" r="0.8" fill="#e8e6e1" opacity="0.33"/><circle cx="225.1" cy="156.6" r="1.9" fill="#e8e6e1" opacity="0.34"/><circle cx="401.3" cy="337.0" r="1.4" fill="#e8e6e1" opacity="0.29"/><circle cx="105.7" cy="524.8" r="0.6" fill="#e8e6e1" opacity="0.40"/><circle cx="327.7" cy="71.2" r="2.0" fill="#e8e6e1" opacity="0.27"/><circle cx="271.2" cy="459.2" r="1.1" fill="#e8e6e1" opacity="0.37"/><circle cx="71.0" cy="478.6" r="0.9" fill="#e8e6e1" opacity="0.30"/><circle cx="103.7" cy="314.7" r="1.1" fill="#e8e6e1" opacity="0.29"/><circle cx="207.7" cy="40.1" r="1.4" fill="#e8e6e1" opacity="0.43"/><circle cx="347.8" cy="467.8" r="1.2" fill="#e8e6e1" opacity="0.36"/><circle cx="192.7" cy="517.5" r="0.9" fill="#e8e6e1" opacity="0.38"/><circle cx="250.9" cy="148.7" r="1.0" fill="#e8e6e1" opacity="0.37"/><circle cx="246.2" cy="87.1" r="0.8" fill="#e8e6e1" opacity="0.24"/><circle cx="470.5" cy="232.3" r="1.3" fill="#e8e6e1" opacity="0.14"/><circle cx="478.9" cy="441.2" r="1.7" fill="#e8e6e1" opacity="0.44"/><circle cx="410.2" cy="180.4" r="1.0" fill="#e8e6e1" opacity="0.48"/><circle cx="69.3" cy="239.5" r="1.8" fill="#e8e6e1" opacity="0.29"/><circle cx="451.0" cy="82.3" r="1.8" fill="#e8e6e1" opacity="0.18"/><circle cx="315.2" cy="545.7" r="0.7" fill="#e8e6e1" opacity="0.30"/><circle cx="397.6" cy="396.5" r="0.7" fill="#e8e6e1" opacity="0.32"/><circle cx="225.6" cy="27.9" r="1.1" fill="#e8e6e1" opacity="0.30"/><circle cx="238.3" cy="397.3" r="0.9" fill="#e8e6e1" opacity="0.21"/><circle cx="32.8" cy="412.6" r="0.6" fill="#e8e6e1" opacity="0.49"/><circle cx="108.8" cy="145.0" r="1.7" fill="#e8e6e1" opacity="0.16"/><circle cx="126.9" cy="222.1" r="0.8" fill="#e8e6e1" opacity="0.41"/><circle cx="31.7" cy="44.0" r="1.5" fill="#e8e6e1" opacity="0.51"/><circle cx="93.6" cy="257.7" r="1.9" fill="#e8e6e1" opacity="0.26"/><circle cx="45.9" cy="301.5" r="0.8" fill="#e8e6e1" opacity="0.27"/><circle cx="285.4" cy="55.3" r="1.3" fill="#e8e6e1" opacity="0.29"/><circle cx="218.0" cy="197.1" r="0.7" fill="#e8e6e1" opacity="0.22"/><circle cx="7.5" cy="186.4" r="1.8" fill="#e8e6e1" opacity="0.19"/><circle cx="288.1" cy="510.1" r="2.0" fill="#e8e6e1" opacity="0.14"/><circle cx="332.0" cy="402.2" r="2.0" fill="#e8e6e1" opacity="0.48"/><circle cx="125.1" cy="389.9" r="1.9" fill="#e8e6e1" opacity="0.46"/><circle cx="205.2" cy="217.3" r="1.2" fill="#e8e6e1" opacity="0.43"/><circle cx="395.2" cy="144.0" r="1.3" fill="#e8e6e1" opacity="0.23"/><circle cx="44.3" cy="530.7" r="1.6" fill="#e8e6e1" opacity="0.37"/><circle cx="259.0" cy="311.0" r="0.7" fill="#e8e6e1" opacity="0.51"/><circle cx="143.7" cy="27.5" r="1.7" fill="#e8e6e1" opacity="0.50"/><circle cx="51.6" cy="33.2" r="1.1" fill="#e8e6e1" opacity="0.34"/><circle cx="413.4" cy="229.8" r="1.6" fill="#e8e6e1" opacity="0.43"/><circle cx="251.8" cy="271.8" r="1.0" fill="#e8e6e1" opacity="0.18"/><circle cx="182.6" cy="515.5" r="2.0" fill="#e8e6e1" opacity="0.35"/><circle cx="146.5" cy="145.0" r="1.3" fill="#e8e6e1" opacity="0.15"/><circle cx="397.8" cy="502.2" r="1.2" fill="#e8e6e1" opacity="0.43"/><circle cx="140.6" cy="634.1" r="1.5" fill="#e8e6e1" opacity="0.36"/><circle cx="326.7" cy="8.7" r="0.7" fill="#e8e6e1" opacity="0.51"/><circle cx="208.0" cy="314.0" r="0.7" fill="#e8e6e1" opacity="0.44"/><circle cx="82.7" cy="302.0" r="1.1" fill="#e8e6e1" opacity="0.26"/><circle cx="416.5" cy="21.1" r="0.7" fill="#e8e6e1" opacity="0.51"/><circle cx="450.2" cy="418.9" r="1.8" fill="#e8e6e1" opacity="0.20"/><circle cx="258.1" cy="184.8" r="1.6" fill="#e8e6e1" opacity="0.49"/><circle cx="269.6" cy="499.9" r="1.5" fill="#e8e6e1" opacity="0.12"/><circle cx="92.5" cy="460.5" r="0.9" fill="#e8e6e1" opacity="0.47"/><circle cx="130.5" cy="400.0" r="2.0" fill="#e8e6e1" opacity="0.26"/><circle cx="231.7" cy="631.6" r="0.9" fill="#e8e6e1" opacity="0.42"/><circle cx="245.0" cy="40.7" r="1.9" fill="#e8e6e1" opacity="0.31"/><circle cx="53.0" cy="610.1" r="2.0" fill="#e8e6e1" opacity="0.26"/><circle cx="299.4" cy="495.6" r="1.4" fill="#e8e6e1" opacity="0.27"/><circle cx="382.0" cy="190.9" r="1.0" fill="#e8e6e1" opacity="0.34"/><circle cx="259.8" cy="527.8" r="1.6" fill="#e8e6e1" opacity="0.14"/><circle cx="92.7" cy="292.0" r="0.8" fill="#e8e6e1" opacity="0.25"/><circle cx="188.3" cy="220.3" r="0.9" fill="#e8e6e1" opacity="0.21"/><circle cx="28.7" cy="561.0" r="0.9" fill="#e8e6e1" opacity="0.14"/><circle cx="193.6" cy="637.0" r="1.9" fill="#e8e6e1" opacity="0.34"/><circle cx="248.3" cy="230.4" r="0.7" fill="#e8e6e1" opacity="0.25"/><circle cx="7.8" cy="249.7" r="1.6" fill="#e8e6e1" opacity="0.34"/><circle cx="135.5" cy="244.8" r="0.9" fill="#e8e6e1" opacity="0.50"/><circle cx="437.6" cy="31.3" r="1.7" fill="#e8e6e1" opacity="0.48"/><circle cx="225.4" cy="357.7" r="0.8" fill="#e8e6e1" opacity="0.18"/><circle cx="63.8" cy="238.5" r="2.0" fill="#e8e6e1" opacity="0.39"/><circle cx="70.6" cy="464.3" r="1.1" fill="#e8e6e1" opacity="0.14"/><circle cx="270.3" cy="304.0" r="1.3" fill="#e8e6e1" opacity="0.37"/><circle cx="98.0" cy="563.0" r="1.8" fill="#e8e6e1" opacity="0.48"/><circle cx="79.2" cy="512.9" r="1.7" fill="#e8e6e1" opacity="0.47"/><circle cx="343.1" cy="66.4" r="1.6" fill="#e8e6e1" opacity="0.30"/><circle cx="158.7" cy="221.3" r="2.0" fill="#e8e6e1" opacity="0.38"/><circle cx="409.4" cy="473.2" r="0.7" fill="#e8e6e1" opacity="0.27"/><circle cx="229.5" cy="608.7" r="1.0" fill="#e8e6e1" opacity="0.12"/><circle cx="182.1" cy="463.8" r="2.0" fill="#e8e6e1" opacity="0.35"/><circle cx="289.1" cy="541.5" r="1.6" fill="#e8e6e1" opacity="0.24"/><circle cx="466.9" cy="242.2" r="2.0" fill="#e8e6e1" opacity="0.48"/><circle cx="353.8" cy="269.7" r="1.0" fill="#e8e6e1" opacity="0.39"/><circle cx="453.4" cy="43.5" r="1.8" fill="#e8e6e1" opacity="0.48"/><circle cx="68.0" cy="402.1" r="1.6" fill="#e8e6e1" opacity="0.37"/><circle cx="24.6" cy="376.0" r="1.2" fill="#e8e6e1" opacity="0.17"/><circle cx="351.3" cy="270.9" r="1.6" fill="#e8e6e1" opacity="0.39"/><circle cx="151.4" cy="508.5" r="1.3" fill="#e8e6e1" opacity="0.49"/><circle cx="367.3" cy="187.1" r="1.9" fill="#e8e6e1" opacity="0.45"/>
  <line x1="0" y1="0" x2="0" y2="640" stroke="#e8e6e1" stroke-width="0.5" opacity="0.05"/><line x1="96" y1="0" x2="96" y2="640" stroke="#e8e6e1" stroke-width="0.5" opacity="0.05"/><line x1="192" y1="0" x2="192" y2="640" stroke="#e8e6e1" stroke-width="0.5" opacity="0.05"/><line x1="288" y1="0" x2="288" y2="640" stroke="#e8e6e1" stroke-width="0.5" opacity="0.05"/><line x1="384" y1="0" x2="384" y2="640" stroke="#e8e6e1" stroke-width="0.5" opacity="0.05"/><line x1="480" y1="0" x2="480" y2="640" stroke="#e8e6e1" stroke-width="0.5" opacity="0.05"/><line x1="0" y1="0" x2="480" y2="0" stroke="#e8e6e1" stroke-width="0.5" opacity="0.05"/><line x1="0" y1="96" x2="480" y2="96" stroke="#e8e6e1" stroke-width="0.5" opacity="0.05"/><line x1="0" y1="192" x2="480" y2="192" stroke="#e8e6e1" stroke-width="0.5" opacity="0.05"/><line x1="0" y1="288" x2="480" y2="288" stroke="#e8e6e1" stroke-width="0.5" opacity="0.05"/><line x1="0" y1="384" x2="480" y2="384" stroke="#e8e6e1" stroke-width="0.5" opacity="0.05"/><line x1="0" y1="480" x2="480" y2="480" stroke="#e8e6e1" stroke-width="0.5" opacity="0.05"/><line x1="0" y1="576" x2="480" y2="576" stroke="#e8e6e1" stroke-width="0.5" opacity="0.05"/>
  <rect x="26" y="26" width="428" height="588" fill="none" stroke="#b8a877" stroke-width="1" opacity="0.4"/>
  <text x="48" y="90" font-family="'SFMono-Regular','Menlo','Consolas',monospace" font-size="15" fill="#b8a877" letter-spacing="3">AI-AA</text>
  <line x1="48" y1="106" x2="432" y2="106" stroke="#b8a877" stroke-width="1" opacity="0.5"/>
  <text x="48" y="400" font-family="'Noto Serif CJK SC','Songti SC','STSong','SimSun',serif" font-size="60" fill="#e8e6e1" letter-spacing="6">艾AA</text>
  <line x1="50" y1="436" x2="180" y2="436" stroke="#b8a877" stroke-width="2"/>
  <text x="48" y="486" font-family="'PingFang SC','Hiragino Sans GB','Microsoft YaHei',sans-serif" font-size="22" fill="#9aa0a8" letter-spacing="2">星环集团总裁助手 / 程心的同行</text>
  <text x="456" y="618" text-anchor="end" font-family="'SFMono-Regular','Menlo','Consolas',monospace" font-size="13" fill="#e8e6e1" opacity="0.45" letter-spacing="3">三体世界图鉴</text>
  <g><rect x="16" y="626" width="448" height="2" fill="#b8a877" opacity="0.8"/><rect x="28" y="626" width="424" height="2" fill="#b8a877" opacity="0.5800000000000001"/><rect x="40" y="626" width="400" height="2" fill="#b8a877" opacity="0.36000000000000004"/></g>
</svg>