<svg xmlns="http://www.w3.org/2000/svg" width="480" height="640" viewBox="0 0 480 640">
  <defs>
    <linearGradient id="bg" x1="0" y1="0" x2="0.6" y2="1">
      <stop offset="0" stop-color="#0a0e14"/><stop offset="1" stop-color="#2a3350"/>
    </linearGradient>
    <radialGradient id="glow" cx="0.78" cy="0.18" r="0.75">
      <stop offset="0" stop-color="#2a3350" stop-opacity="0.5"/><stop offset="1" stop-color="#2a3350" stop-opacity="0"/>
    </radialGradient>
  </defs><rect width="480" height="640" fill="url(#bg)"/><rect width="480" height="640" fill="url(#glow)"/>
  <circle cx="165.5" cy="237.4" r="1.7" fill="#e8e6e1" opacity="0.24"/><circle cx="93.2" cy="421.5" r="0.7" fill="#e8e6e1" opacity="0.17"/><circle cx="139.5" cy="230.4" r="1.5" fill="#e8e6e1" opacity="0.15"/><circle cx="18.2" cy="240.8" r="0.7" fill="#e8e6e1" opacity="0.15"/><circle cx="33.6" cy="599.9" r="0.7" fill="#e8e6e1" opacity="0.20"/><circle cx="193.2" cy="182.3" r="0.8" fill="#e8e6e1" opacity="0.41"/><circle cx="321.2" cy="41.0" r="2.0" fill="#e8e6e1" opacity="0.29"/><circle cx="323.2" cy="258.0" r="1.6" fill="#e8e6e1" opacity="0.33"/><circle cx="239.7" cy="476.0" r="1.8" fill="#e8e6e1" opacity="0.37"/><circle cx="221.4" cy="496.2" r="0.6" fill="#e8e6e1" opacity="0.24"/><circle cx="118.1" cy="529.8" r="1.7" fill="#e8e6e1" opacity="0.23"/><circle cx="235.5" cy="61.4" r="1.9" fill="#e8e6e1" opacity="0.28"/><circle cx="202.2" cy="65.0" r="1.0" fill="#e8e6e1" opacity="0.12"/><circle cx="344.2" cy="344.8" r="1.2" fill="#e8e6e1" opacity="0.27"/><circle cx="134.9" cy="39.9" r="1.4" fill="#e8e6e1" opacity="0.41"/><circle cx="196.2" cy="186.7" r="1.2" fill="#e8e6e1" opacity="0.38"/><circle cx="447.9" cy="422.8" r="0.6" fill="#e8e6e1" opacity="0.12"/><circle cx="159.1" cy="330.1" r="1.5" fill="#e8e6e1" opacity="0.30"/><circle cx="336.0" cy="54.1" r="1.9" fill="#e8e6e1" opacity="0.26"/><circle cx="448.4" cy="530.0" r="1.2" fill="#e8e6e1" opacity="0.30"/><circle cx="460.2" cy="522.0" r="0.6" fill="#e8e6e1" opacity="0.44"/><circle cx="8.7" cy="473.7" r="1.4" fill="#e8e6e1" opacity="0.23"/><circle cx="111.2" cy="46.5" r="0.6" fill="#e8e6e1" opacity="0.22"/><circle cx="49.2" cy="60.7" r="1.5" fill="#e8e6e1" opacity="0.22"/><circle cx="264.7" cy="380.9" r="1.0" fill="#e8e6e1" opacity="0.36"/><circle cx="246.1" cy="250.8" r="0.6" fill="#e8e6e1" opacity="0.31"/><circle cx="280.5" cy="471.2" r="1.2" fill="#e8e6e1" opacity="0.48"/><circle cx="440.0" cy="244.1" r="0.9" fill="#e8e6e1" opacity="0.33"/><circle cx="119.4" cy="391.1" r="1.7" fill="#e8e6e1" opacity="0.34"/><circle cx="421.6" cy="602.9" r="1.4" fill="#e8e6e1" opacity="0.40"/><circle cx="4.9" cy="604.1" r="0.9" fill="#e8e6e1" opacity="0.18"/><circle cx="33.5" cy="567.3" r="1.1" fill="#e8e6e1" opacity="0.21"/><circle cx="119.5" cy="546.5" r="0.9" fill="#e8e6e1" opacity="0.20"/><circle cx="265.0" cy="601.2" r="1.8" fill="#e8e6e1" opacity="0.35"/><circle cx="47.3" cy="70.3" r="1.4" fill="#e8e6e1" opacity="0.24"/><circle cx="161.1" cy="610.4" r="0.7" fill="#e8e6e1" opacity="0.25"/><circle cx="90.1" cy="504.0" r="0.8" fill="#e8e6e1" opacity="0.15"/><circle cx="412.6" cy="594.3" r="0.8" fill="#e8e6e1" opacity="0.17"/><circle cx="54.4" cy="34.6" r="1.5" fill="#e8e6e1" opacity="0.47"/><circle cx="419.8" cy="42.8" r="0.7" fill="#e8e6e1" opacity="0.44"/><circle cx="410.8" cy="81.4" r="2.0" fill="#e8e6e1" opacity="0.47"/><circle cx="298.3" cy="361.5" r="1.7" fill="#e8e6e1" opacity="0.33"/><circle cx="327.2" cy="388.4" r="1.2" fill="#e8e6e1" opacity="0.28"/><circle cx="0.1" cy="132.0" r="2.0" fill="#e8e6e1" opacity="0.46"/><circle cx="479.5" cy="117.9" r="1.2" fill="#e8e6e1" opacity="0.18"/><circle cx="259.2" cy="148.4" r="2.0" fill="#e8e6e1" opacity="0.14"/><circle cx="443.0" cy="159.8" r="1.4" fill="#e8e6e1" opacity="0.50"/><circle cx="130.1" cy="468.5" r="1.0" fill="#e8e6e1" opacity="0.19"/><circle cx="118.0" cy="414.5" r="1.2" fill="#e8e6e1" opacity="0.27"/><circle cx="286.7" cy="292.5" r="1.8" fill="#e8e6e1" opacity="0.29"/><circle cx="131.8" cy="76.1" r="1.6" fill="#e8e6e1" opacity="0.44"/><circle cx="125.2" cy="307.6" r="1.5" fill="#e8e6e1" opacity="0.49"/><circle cx="455.4" cy="170.1" r="1.6" fill="#e8e6e1" opacity="0.36"/><circle cx="339.0" cy="177.6" r="2.0" fill="#e8e6e1" opacity="0.16"/><circle cx="351.0" cy="242.6" r="1.0" fill="#e8e6e1" opacity="0.51"/><circle cx="395.5" cy="332.2" r="1.2" fill="#e8e6e1" opacity="0.22"/><circle cx="451.2" cy="456.3" r="2.0" fill="#e8e6e1" opacity="0.52"/><circle cx="189.5" cy="177.4" r="1.6" fill="#e8e6e1" opacity="0.37"/><circle cx="199.5" cy="421.9" r="1.3" fill="#e8e6e1" opacity="0.21"/><circle cx="12.0" cy="30.4" r="1.3" fill="#e8e6e1" opacity="0.41"/><circle cx="202.1" cy="205.6" r="1.0" fill="#e8e6e1" opacity="0.33"/><circle cx="368.2" cy="621.2" r="1.9" fill="#e8e6e1" opacity="0.21"/><circle cx="108.5" cy="299.3" r="1.2" fill="#e8e6e1" opacity="0.34"/><circle cx="46.1" cy="246.4" r="1.9" fill="#e8e6e1" opacity="0.35"/><circle cx="470.6" cy="104.9" r="0.8" fill="#e8e6e1" opacity="0.31"/><circle cx="366.3" cy="137.0" r="0.7" fill="#e8e6e1" opacity="0.24"/><circle cx="279.9" cy="261.3" r="0.8" fill="#e8e6e1" opacity="0.46"/><circle cx="365.8" cy="472.7" r="1.1" fill="#e8e6e1" opacity="0.51"/><circle cx="198.3" cy="442.3" r="1.6" fill="#e8e6e1" opacity="0.50"/><circle cx="354.5" cy="511.6" r="0.9" fill="#e8e6e1" opacity="0.16"/><circle cx="205.0" cy="6.9" r="1.0" fill="#e8e6e1" opacity="0.42"/><circle cx="94.6" cy="561.7" r="1.6" fill="#e8e6e1" opacity="0.30"/><circle cx="366.8" cy="489.9" r="1.5" fill="#e8e6e1" opacity="0.34"/><circle cx="182.5" cy="620.7" r="1.8" fill="#e8e6e1" opacity="0.41"/><circle cx="438.3" cy="536.8" r="1.3" fill="#e8e6e1" opacity="0.16"/><circle cx="163.6" cy="172.4" r="1.6" fill="#e8e6e1" opacity="0.34"/><circle cx="348.5" cy="232.0" r="0.9" fill="#e8e6e1" opacity="0.45"/><circle cx="69.0" cy="273.1" r="1.0" fill="#e8e6e1" opacity="0.21"/><circle cx="376.8" cy="152.5" r="0.8" fill="#e8e6e1" opacity="0.34"/><circle cx="203.6" cy="277.0" r="1.9" fill="#e8e6e1" opacity="0.26"/><circle cx="206.5" cy="227.5" r="2.0" fill="#e8e6e1" opacity="0.13"/><circle cx="349.3" cy="234.6" r="1.2" fill="#e8e6e1" opacity="0.19"/><circle cx="419.7" cy="429.4" r="0.9" fill="#e8e6e1" opacity="0.48"/><circle cx="208.7" cy="153.2" r="1.1" fill="#e8e6e1" opacity="0.43"/><circle cx="358.5" cy="231.5" r="0.9" fill="#e8e6e1" opacity="0.43"/><circle cx="119.3" cy="463.7" r="2.0" fill="#e8e6e1" opacity="0.30"/><circle cx="264.2" cy="571.7" r="0.9" fill="#e8e6e1" opacity="0.24"/><circle cx="118.2" cy="75.5" r="1.2" fill="#e8e6e1" opacity="0.52"/><circle cx="324.5" cy="100.0" r="1.5" fill="#e8e6e1" opacity="0.25"/><circle cx="203.3" cy="423.1" r="0.8" fill="#e8e6e1" opacity="0.38"/><circle cx="134.0" cy="563.7" r="1.1" fill="#e8e6e1" opacity="0.41"/><circle cx="13.2" cy="313.8" r="1.5" fill="#e8e6e1" opacity="0.24"/><circle cx="71.9" cy="283.9" r="1.3" fill="#e8e6e1" opacity="0.20"/><circle cx="269.4" cy="30.9" r="1.3" fill="#e8e6e1" opacity="0.27"/><circle cx="340.9" cy="279.3" r="1.0" fill="#e8e6e1" opacity="0.24"/><circle cx="0.2" cy="558.8" r="1.1" fill="#e8e6e1" opacity="0.45"/><circle cx="295.4" cy="11.2" r="2.0" fill="#e8e6e1" opacity="0.34"/><circle cx="237.5" cy="584.0" r="0.7" fill="#e8e6e1" opacity="0.35"/><circle cx="112.5" cy="483.8" r="1.9" fill="#e8e6e1" opacity="0.16"/><circle cx="275.5" cy="6.2" r="1.2" fill="#e8e6e1" opacity="0.44"/>
  <line x1="0" y1="0" x2="0" y2="640" stroke="#e8e6e1" stroke-width="0.5" opacity="0.05"/><line x1="96" y1="0" x2="96" y2="640" stroke="#e8e6e1" stroke-width="0.5" opacity="0.05"/><line x1="192" y1="0" x2="192" y2="640" stroke="#e8e6e1" stroke-width="0.5" opacity="0.05"/><line x1="288" y1="0" x2="288" y2="640" stroke="#e8e6e1" stroke-width="0.5" opacity="0.05"/><line x1="384" y1="0" x2="384" y2="640" stroke="#e8e6e1" stroke-width="0.5" opacity="0.05"/><line x1="480" y1="0" x2="480" y2="640" stroke="#e8e6e1" stroke-width="0.5" opacity="0.05"/><line x1="0" y1="0" x2="480" y2="0" stroke="#e8e6e1" stroke-width="0.5" opacity="0.05"/><line x1="0" y1="96" x2="480" y2="96" stroke="#e8e6e1" stroke-width="0.5" opacity="0.05"/><line x1="0" y1="192" x2="480" y2="192" stroke="#e8e6e1" stroke-width="0.5" opacity="0.05"/><line x1="0" y1="288" x2="480" y2="288" stroke="#e8e6e1" stroke-width="0.5" opacity="0.05"/><line x1="0" y1="384" x2="480" y2="384" stroke="#e8e6e1" stroke-width="0.5" opacity="0.05"/><line x1="0" y1="480" x2="480" y2="480" stroke="#e8e6e1" stroke-width="0.5" opacity="0.05"/><line x1="0" y1="576" x2="480" y2="576" stroke="#e8e6e1" stroke-width="0.5" opacity="0.05"/>
  <rect x="26" y="26" width="428" height="588" fill="none" stroke="#b8a877" stroke-width="1" opacity="0.4"/>
  <text x="48" y="90" font-family="'SFMono-Regular','Menlo','Consolas',monospace" font-size="15" fill="#b8a877" letter-spacing="3">EVANS</text>
  <line x1="48" y1="106" x2="432" y2="106" stroke="#b8a877" stroke-width="1" opacity="0.5"/>
  <text x="48" y="400" font-family="'Noto Serif CJK SC','Songti SC','STSong','SimSun',serif" font-size="60" fill="#e8e6e1" letter-spacing="6">伊文斯</text>
  <line x1="50" y1="436" x2="180" y2="436" stroke="#b8a877" stroke-width="2"/>
  <text x="48" y="486" font-family="'PingFang SC','Hiragino Sans GB','Microsoft YaHei',sans-serif" font-size="22" fill="#9aa0a8" letter-spacing="2">石油大亨之子 / ETO 的创立</text>
  <text x="456" y="618" text-anchor="end" font-family="'SFMono-Regular','Menlo','Consolas',monospace" font-size="13" fill="#e8e6e1" opacity="0.45" letter-spacing="3">三体世界图鉴</text>
  <g><rect x="16" y="626" width="448" height="2" fill="#b8a877" opacity="0.8"/><rect x="28" y="626" width="424" height="2" fill="#b8a877" opacity="0.5800000000000001"/><rect x="40" y="626" width="400" height="2" fill="#b8a877" opacity="0.36000000000000004"/></g>
</svg>