<svg xmlns="http://www.w3.org/2000/svg" width="480" height="640" viewBox="0 0 480 640">
  <defs>
    <linearGradient id="bg" x1="0" y1="0" x2="0.6" y2="1">
      <stop offset="0" stop-color="#0a0e14"/><stop offset="1" stop-color="#2a3350"/>
    </linearGradient>
    <radialGradient id="glow" cx="0.78" cy="0.18" r="0.75">
      <stop offset="0" stop-color="#2a3350" stop-opacity="0.5"/><stop offset="1" stop-color="#2a3350" stop-opacity="0"/>
    </radialGradient>
  </defs><rect width="480" height="640" fill="url(#bg)"/><rect width="480" height="640" fill="url(#glow)"/>
  <circle cx="294.0" cy="392.1" r="1.8" fill="#e8e6e1" opacity="0.35"/><circle cx="246.6" cy="291.7" r="1.9" fill="#e8e6e1" opacity="0.25"/><circle cx="227.8" cy="180.0" r="2.0" fill="#e8e6e1" opacity="0.46"/><circle cx="172.2" cy="67.4" r="1.8" fill="#e8e6e1" opacity="0.50"/><circle cx="281.9" cy="311.0" r="1.3" fill="#e8e6e1" opacity="0.37"/><circle cx="271.5" cy="183.7" r="1.5" fill="#e8e6e1" opacity="0.14"/><circle cx="199.4" cy="407.6" r="1.0" fill="#e8e6e1" opacity="0.14"/><circle cx="374.0" cy="48.2" r="0.8" fill="#e8e6e1" opacity="0.24"/><circle cx="317.2" cy="327.5" r="1.8" fill="#e8e6e1" opacity="0.35"/><circle cx="364.3" cy="556.8" r="0.6" fill="#e8e6e1" opacity="0.25"/><circle cx="392.7" cy="523.4" r="0.9" fill="#e8e6e1" opacity="0.32"/><circle cx="255.5" cy="286.7" r="0.6" fill="#e8e6e1" opacity="0.21"/><circle cx="206.8" cy="581.1" r="1.6" fill="#e8e6e1" opacity="0.13"/><circle cx="432.8" cy="374.0" r="1.6" fill="#e8e6e1" opacity="0.27"/><circle cx="310.7" cy="567.8" r="1.9" fill="#e8e6e1" opacity="0.30"/><circle cx="188.0" cy="182.8" r="1.7" fill="#e8e6e1" opacity="0.27"/><circle cx="120.8" cy="272.8" r="0.9" fill="#e8e6e1" opacity="0.39"/><circle cx="294.4" cy="11.7" r="1.6" fill="#e8e6e1" opacity="0.24"/><circle cx="351.0" cy="40.6" r="1.9" fill="#e8e6e1" opacity="0.33"/><circle cx="118.2" cy="441.6" r="1.2" fill="#e8e6e1" opacity="0.39"/><circle cx="7.5" cy="174.3" r="1.4" fill="#e8e6e1" opacity="0.19"/><circle cx="83.1" cy="318.7" r="1.0" fill="#e8e6e1" opacity="0.18"/><circle cx="57.9" cy="196.3" r="1.0" fill="#e8e6e1" opacity="0.22"/><circle cx="213.0" cy="357.8" r="1.1" fill="#e8e6e1" opacity="0.35"/><circle cx="22.2" cy="575.0" r="0.8" fill="#e8e6e1" opacity="0.45"/><circle cx="38.8" cy="366.3" r="1.1" fill="#e8e6e1" opacity="0.38"/><circle cx="214.7" cy="372.8" r="1.4" fill="#e8e6e1" opacity="0.47"/><circle cx="154.7" cy="251.8" r="1.9" fill="#e8e6e1" opacity="0.19"/><circle cx="269.8" cy="414.0" r="2.0" fill="#e8e6e1" opacity="0.26"/><circle cx="415.9" cy="247.5" r="1.5" fill="#e8e6e1" opacity="0.24"/><circle cx="404.2" cy="89.2" r="1.7" fill="#e8e6e1" opacity="0.26"/><circle cx="350.1" cy="114.8" r="1.1" fill="#e8e6e1" opacity="0.36"/><circle cx="71.5" cy="73.2" r="1.8" fill="#e8e6e1" opacity="0.18"/><circle cx="169.7" cy="393.6" r="0.9" fill="#e8e6e1" opacity="0.29"/><circle cx="257.2" cy="332.4" r="1.6" fill="#e8e6e1" opacity="0.35"/><circle cx="324.6" cy="47.0" r="1.2" fill="#e8e6e1" opacity="0.19"/><circle cx="119.9" cy="489.0" r="1.9" fill="#e8e6e1" opacity="0.38"/><circle cx="384.2" cy="385.9" r="1.4" fill="#e8e6e1" opacity="0.15"/><circle cx="45.0" cy="298.3" r="1.8" fill="#e8e6e1" opacity="0.31"/><circle cx="359.9" cy="346.3" r="1.8" fill="#e8e6e1" opacity="0.42"/><circle cx="145.7" cy="79.9" r="1.8" fill="#e8e6e1" opacity="0.38"/><circle cx="377.8" cy="21.7" r="1.5" fill="#e8e6e1" opacity="0.44"/><circle cx="18.9" cy="629.4" r="0.6" fill="#e8e6e1" opacity="0.45"/><circle cx="342.5" cy="585.1" r="1.8" fill="#e8e6e1" opacity="0.49"/><circle cx="137.7" cy="130.1" r="1.3" fill="#e8e6e1" opacity="0.35"/><circle cx="232.1" cy="308.6" r="0.7" fill="#e8e6e1" opacity="0.38"/><circle cx="357.0" cy="621.6" r="1.2" fill="#e8e6e1" opacity="0.39"/><circle cx="399.8" cy="164.7" r="0.9" fill="#e8e6e1" opacity="0.28"/><circle cx="412.3" cy="138.5" r="1.9" fill="#e8e6e1" opacity="0.52"/><circle cx="307.9" cy="633.4" r="0.8" fill="#e8e6e1" opacity="0.13"/><circle cx="214.4" cy="473.7" r="0.9" fill="#e8e6e1" opacity="0.24"/><circle cx="140.6" cy="170.7" r="2.0" fill="#e8e6e1" opacity="0.50"/><circle cx="291.3" cy="130.3" r="0.9" fill="#e8e6e1" opacity="0.51"/><circle cx="95.3" cy="453.6" r="0.7" fill="#e8e6e1" opacity="0.23"/><circle cx="153.8" cy="177.8" r="1.5" fill="#e8e6e1" opacity="0.32"/><circle cx="321.1" cy="450.9" r="1.6" fill="#e8e6e1" opacity="0.44"/><circle cx="3.8" cy="5.2" r="0.6" fill="#e8e6e1" opacity="0.23"/><circle cx="189.5" cy="47.4" r="1.9" fill="#e8e6e1" opacity="0.44"/><circle cx="67.6" cy="137.9" r="1.5" fill="#e8e6e1" opacity="0.47"/><circle cx="426.1" cy="132.5" r="2.0" fill="#e8e6e1" opacity="0.26"/><circle cx="330.0" cy="385.3" r="1.8" fill="#e8e6e1" opacity="0.44"/><circle cx="334.0" cy="227.9" r="1.5" fill="#e8e6e1" opacity="0.33"/><circle cx="330.0" cy="550.2" r="0.6" fill="#e8e6e1" opacity="0.13"/><circle cx="219.1" cy="177.4" r="1.2" fill="#e8e6e1" opacity="0.32"/><circle cx="3.3" cy="599.1" r="1.9" fill="#e8e6e1" opacity="0.16"/><circle cx="349.2" cy="129.5" r="1.9" fill="#e8e6e1" opacity="0.16"/><circle cx="40.5" cy="40.7" r="0.9" fill="#e8e6e1" opacity="0.38"/><circle cx="179.4" cy="292.8" r="1.1" fill="#e8e6e1" opacity="0.47"/><circle cx="219.6" cy="556.6" r="1.9" fill="#e8e6e1" opacity="0.27"/><circle cx="29.9" cy="74.9" r="0.7" fill="#e8e6e1" opacity="0.50"/><circle cx="455.7" cy="143.7" r="1.6" fill="#e8e6e1" opacity="0.20"/><circle cx="355.8" cy="412.3" r="0.9" fill="#e8e6e1" opacity="0.51"/><circle cx="404.6" cy="385.8" r="1.8" fill="#e8e6e1" opacity="0.12"/><circle cx="206.0" cy="322.8" r="1.0" fill="#e8e6e1" opacity="0.27"/><circle cx="261.0" cy="207.3" r="1.7" fill="#e8e6e1" opacity="0.46"/><circle cx="314.5" cy="282.9" r="0.8" fill="#e8e6e1" opacity="0.50"/><circle cx="237.7" cy="616.7" r="1.2" fill="#e8e6e1" opacity="0.31"/><circle cx="296.9" cy="583.3" r="1.3" fill="#e8e6e1" opacity="0.18"/><circle cx="411.7" cy="89.4" r="1.6" fill="#e8e6e1" opacity="0.28"/><circle cx="328.2" cy="501.1" r="0.8" fill="#e8e6e1" opacity="0.44"/><circle cx="424.4" cy="499.3" r="0.8" fill="#e8e6e1" opacity="0.46"/><circle cx="166.5" cy="382.1" r="1.9" fill="#e8e6e1" opacity="0.19"/><circle cx="346.4" cy="137.3" r="1.5" fill="#e8e6e1" opacity="0.16"/><circle cx="384.1" cy="322.1" r="1.0" fill="#e8e6e1" opacity="0.43"/><circle cx="188.4" cy="162.0" r="2.0" fill="#e8e6e1" opacity="0.15"/><circle cx="141.2" cy="248.3" r="1.1" fill="#e8e6e1" opacity="0.17"/><circle cx="408.9" cy="310.6" r="1.2" fill="#e8e6e1" opacity="0.27"/><circle cx="273.9" cy="463.5" r="1.0" fill="#e8e6e1" opacity="0.25"/><circle cx="377.7" cy="86.7" r="1.3" fill="#e8e6e1" opacity="0.17"/><circle cx="241.1" cy="259.4" r="1.1" fill="#e8e6e1" opacity="0.30"/><circle cx="237.3" cy="413.7" r="1.2" fill="#e8e6e1" opacity="0.15"/><circle cx="445.3" cy="45.6" r="0.8" fill="#e8e6e1" opacity="0.33"/><circle cx="256.2" cy="462.6" r="0.9" fill="#e8e6e1" opacity="0.43"/><circle cx="239.4" cy="301.3" r="0.6" fill="#e8e6e1" opacity="0.30"/><circle cx="275.0" cy="333.4" r="0.6" fill="#e8e6e1" opacity="0.40"/><circle cx="380.9" cy="346.8" r="1.3" fill="#e8e6e1" opacity="0.42"/><circle cx="194.3" cy="608.9" r="1.0" fill="#e8e6e1" opacity="0.21"/><circle cx="111.1" cy="411.4" r="1.6" fill="#e8e6e1" opacity="0.31"/><circle cx="434.7" cy="35.7" r="1.6" fill="#e8e6e1" opacity="0.14"/><circle cx="314.5" cy="273.3" r="1.3" fill="#e8e6e1" opacity="0.19"/>
  <line x1="0" y1="0" x2="0" y2="640" stroke="#e8e6e1" stroke-width="0.5" opacity="0.05"/><line x1="96" y1="0" x2="96" y2="640" stroke="#e8e6e1" stroke-width="0.5" opacity="0.05"/><line x1="192" y1="0" x2="192" y2="640" stroke="#e8e6e1" stroke-width="0.5" opacity="0.05"/><line x1="288" y1="0" x2="288" y2="640" stroke="#e8e6e1" stroke-width="0.5" opacity="0.05"/><line x1="384" y1="0" x2="384" y2="640" stroke="#e8e6e1" stroke-width="0.5" opacity="0.05"/><line x1="480" y1="0" x2="480" y2="640" stroke="#e8e6e1" stroke-width="0.5" opacity="0.05"/><line x1="0" y1="0" x2="480" y2="0" stroke="#e8e6e1" stroke-width="0.5" opacity="0.05"/><line x1="0" y1="96" x2="480" y2="96" stroke="#e8e6e1" stroke-width="0.5" opacity="0.05"/><line x1="0" y1="192" x2="480" y2="192" stroke="#e8e6e1" stroke-width="0.5" opacity="0.05"/><line x1="0" y1="288" x2="480" y2="288" stroke="#e8e6e1" stroke-width="0.5" opacity="0.05"/><line x1="0" y1="384" x2="480" y2="384" stroke="#e8e6e1" stroke-width="0.5" opacity="0.05"/><line x1="0" y1="480" x2="480" y2="480" stroke="#e8e6e1" stroke-width="0.5" opacity="0.05"/><line x1="0" y1="576" x2="480" y2="576" stroke="#e8e6e1" stroke-width="0.5" opacity="0.05"/>
  <rect x="26" y="26" width="428" height="588" fill="none" stroke="#b8a877" stroke-width="1" opacity="0.4"/>
  <text x="48" y="90" font-family="'SFMono-Regular','Menlo','Consolas',monospace" font-size="15" fill="#b8a877" letter-spacing="3">TYLER</text>
  <line x1="48" y1="106" x2="432" y2="106" stroke="#b8a877" stroke-width="1" opacity="0.5"/>
  <text x="48" y="400" font-family="'Noto Serif CJK SC','Songti SC','STSong','SimSun',serif" font-size="60" fill="#e8e6e1" letter-spacing="6">泰勒</text>
  <line x1="50" y1="436" x2="180" y2="436" stroke="#b8a877" stroke-width="2"/>
  <text x="48" y="486" font-family="'PingFang SC','Hiragino Sans GB','Microsoft YaHei',sans-serif" font-size="22" fill="#9aa0a8" letter-spacing="2">前国防部长 / 量子幽灵舰队的设</text>
  <text x="456" y="618" text-anchor="end" font-family="'SFMono-Regular','Menlo','Consolas',monospace" font-size="13" fill="#e8e6e1" opacity="0.45" letter-spacing="3">三体世界图鉴</text>
  <g><rect x="16" y="626" width="448" height="2" fill="#b8a877" opacity="0.8"/><rect x="28" y="626" width="424" height="2" fill="#b8a877" opacity="0.5800000000000001"/><rect x="40" y="626" width="400" height="2" fill="#b8a877" opacity="0.36000000000000004"/></g>
</svg>