<svg xmlns="http://www.w3.org/2000/svg" width="480" height="640" viewBox="0 0 480 640">
  <rect width="480" height="640" fill="#0a0e14"/>
  <rect width="480" height="640" fill="#b8a877" opacity="0.08"/>
  <circle cx="464.8" cy="39.1" r="1.0" fill="#e8e6e1" opacity="0.34"/><circle cx="361.1" cy="542.9" r="1.7" fill="#e8e6e1" opacity="0.48"/><circle cx="118.7" cy="626.2" r="1.7" fill="#e8e6e1" opacity="0.54"/><circle cx="176.8" cy="375.9" r="2.0" fill="#e8e6e1" opacity="0.40"/><circle cx="147.2" cy="56.3" r="0.7" fill="#e8e6e1" opacity="0.40"/><circle cx="285.4" cy="565.5" r="1.7" fill="#e8e6e1" opacity="0.38"/><circle cx="244.5" cy="599.3" r="1.8" fill="#e8e6e1" opacity="0.27"/><circle cx="336.6" cy="282.1" r="0.8" fill="#e8e6e1" opacity="0.41"/><circle cx="215.1" cy="305.0" r="1.9" fill="#e8e6e1" opacity="0.20"/><circle cx="192.3" cy="222.3" r="1.3" fill="#e8e6e1" opacity="0.35"/><circle cx="89.6" cy="466.2" r="2.0" fill="#e8e6e1" opacity="0.28"/><circle cx="95.1" cy="279.6" r="1.0" fill="#e8e6e1" opacity="0.33"/><circle cx="108.1" cy="441.4" r="1.2" fill="#e8e6e1" opacity="0.31"/><circle cx="323.7" cy="284.1" r="1.7" fill="#e8e6e1" opacity="0.16"/><circle cx="456.7" cy="79.3" r="2.0" fill="#e8e6e1" opacity="0.35"/><circle cx="322.0" cy="326.7" r="2.1" fill="#e8e6e1" opacity="0.41"/><circle cx="447.9" cy="270.8" r="1.4" fill="#e8e6e1" opacity="0.39"/><circle cx="37.9" cy="182.9" r="0.8" fill="#e8e6e1" opacity="0.61"/><circle cx="77.0" cy="113.0" r="2.0" fill="#e8e6e1" opacity="0.22"/><circle cx="94.8" cy="639.3" r="1.6" fill="#e8e6e1" opacity="0.28"/><circle cx="470.8" cy="334.6" r="1.8" fill="#e8e6e1" opacity="0.46"/><circle cx="172.7" cy="603.6" r="1.6" fill="#e8e6e1" opacity="0.42"/><circle cx="184.4" cy="403.8" r="2.1" fill="#e8e6e1" opacity="0.42"/><circle cx="342.1" cy="154.8" r="1.1" fill="#e8e6e1" opacity="0.18"/><circle cx="356.1" cy="29.4" r="1.7" fill="#e8e6e1" opacity="0.51"/><circle cx="135.1" cy="352.0" r="1.9" fill="#e8e6e1" opacity="0.18"/><circle cx="474.1" cy="341.1" r="1.3" fill="#e8e6e1" opacity="0.38"/><circle cx="73.1" cy="477.3" r="1.0" fill="#e8e6e1" opacity="0.26"/><circle cx="142.3" cy="580.7" r="1.4" fill="#e8e6e1" opacity="0.48"/><circle cx="370.6" cy="177.4" r="1.4" fill="#e8e6e1" opacity="0.52"/><circle cx="357.5" cy="16.1" r="1.0" fill="#e8e6e1" opacity="0.64"/><circle cx="250.7" cy="367.7" r="1.3" fill="#e8e6e1" opacity="0.45"/><circle cx="327.7" cy="119.8" r="0.8" fill="#e8e6e1" opacity="0.33"/><circle cx="186.9" cy="196.0" r="1.6" fill="#e8e6e1" opacity="0.53"/><circle cx="373.6" cy="634.9" r="1.6" fill="#e8e6e1" opacity="0.34"/><circle cx="108.5" cy="623.0" r="0.9" fill="#e8e6e1" opacity="0.28"/><circle cx="352.9" cy="423.9" r="1.6" fill="#e8e6e1" opacity="0.32"/><circle cx="375.8" cy="160.3" r="2.2" fill="#e8e6e1" opacity="0.62"/><circle cx="54.5" cy="373.4" r="1.9" fill="#e8e6e1" opacity="0.53"/><circle cx="355.0" cy="12.1" r="0.8" fill="#e8e6e1" opacity="0.60"/><circle cx="319.8" cy="581.9" r="1.4" fill="#e8e6e1" opacity="0.16"/><circle cx="440.5" cy="248.7" r="2.2" fill="#e8e6e1" opacity="0.32"/><circle cx="224.3" cy="134.0" r="1.7" fill="#e8e6e1" opacity="0.48"/><circle cx="174.7" cy="465.6" r="1.0" fill="#e8e6e1" opacity="0.52"/><circle cx="288.2" cy="383.5" r="1.2" fill="#e8e6e1" opacity="0.61"/><circle cx="436.1" cy="26.0" r="1.5" fill="#e8e6e1" opacity="0.53"/><circle cx="120.5" cy="7.6" r="0.9" fill="#e8e6e1" opacity="0.24"/><circle cx="444.4" cy="241.1" r="1.6" fill="#e8e6e1" opacity="0.52"/><circle cx="202.7" cy="84.3" r="0.7" fill="#e8e6e1" opacity="0.60"/><circle cx="220.6" cy="339.2" r="1.2" fill="#e8e6e1" opacity="0.43"/><circle cx="409.6" cy="466.0" r="2.0" fill="#e8e6e1" opacity="0.58"/><circle cx="84.5" cy="479.8" r="2.0" fill="#e8e6e1" opacity="0.47"/><circle cx="81.8" cy="170.5" r="2.1" fill="#e8e6e1" opacity="0.24"/><circle cx="1.2" cy="330.9" r="1.9" fill="#e8e6e1" opacity="0.15"/><circle cx="182.2" cy="427.4" r="0.9" fill="#e8e6e1" opacity="0.48"/><circle cx="103.7" cy="580.5" r="1.6" fill="#e8e6e1" opacity="0.53"/><circle cx="209.9" cy="188.7" r="1.1" fill="#e8e6e1" opacity="0.34"/><circle cx="184.9" cy="100.5" r="0.8" fill="#e8e6e1" opacity="0.47"/><circle cx="138.5" cy="502.0" r="2.1" fill="#e8e6e1" opacity="0.54"/><circle cx="37.0" cy="564.6" r="0.9" fill="#e8e6e1" opacity="0.34"/><circle cx="84.0" cy="14.5" r="2.0" fill="#e8e6e1" opacity="0.51"/><circle cx="226.1" cy="433.6" r="1.3" fill="#e8e6e1" opacity="0.41"/><circle cx="158.6" cy="7.8" r="0.7" fill="#e8e6e1" opacity="0.56"/><circle cx="330.1" cy="383.2" r="1.7" fill="#e8e6e1" opacity="0.54"/><circle cx="241.9" cy="319.8" r="1.1" fill="#e8e6e1" opacity="0.52"/><circle cx="312.5" cy="43.0" r="1.8" fill="#e8e6e1" opacity="0.44"/><circle cx="131.6" cy="510.7" r="1.6" fill="#e8e6e1" opacity="0.30"/><circle cx="294.1" cy="125.3" r="0.9" fill="#e8e6e1" opacity="0.59"/><circle cx="309.2" cy="279.4" r="2.1" fill="#e8e6e1" opacity="0.50"/><circle cx="273.3" cy="371.9" r="2.2" fill="#e8e6e1" opacity="0.43"/><circle cx="471.3" cy="316.4" r="1.7" fill="#e8e6e1" opacity="0.45"/><circle cx="231.7" cy="339.0" r="0.8" fill="#e8e6e1" opacity="0.31"/><circle cx="229.5" cy="498.5" r="0.9" fill="#e8e6e1" opacity="0.38"/><circle cx="19.2" cy="374.1" r="2.0" fill="#e8e6e1" opacity="0.22"/><circle cx="418.3" cy="412.2" r="0.7" fill="#e8e6e1" opacity="0.21"/><circle cx="385.6" cy="586.9" r="1.9" fill="#e8e6e1" opacity="0.53"/><circle cx="447.1" cy="252.6" r="1.0" fill="#e8e6e1" opacity="0.64"/><circle cx="9.2" cy="33.2" r="1.4" fill="#e8e6e1" opacity="0.46"/><circle cx="77.6" cy="301.4" r="1.1" fill="#e8e6e1" opacity="0.37"/><circle cx="96.7" cy="275.3" r="1.4" fill="#e8e6e1" opacity="0.28"/><circle cx="352.8" cy="113.7" r="1.1" fill="#e8e6e1" opacity="0.51"/><circle cx="105.7" cy="541.5" r="1.1" fill="#e8e6e1" opacity="0.32"/><circle cx="446.1" cy="260.5" r="2.1" fill="#e8e6e1" opacity="0.26"/><circle cx="244.1" cy="620.8" r="0.9" fill="#e8e6e1" opacity="0.43"/><circle cx="98.5" cy="116.9" r="1.7" fill="#e8e6e1" opacity="0.59"/><circle cx="194.7" cy="195.0" r="1.0" fill="#e8e6e1" opacity="0.31"/><circle cx="400.3" cy="398.1" r="1.0" fill="#e8e6e1" opacity="0.36"/><circle cx="356.7" cy="522.5" r="0.7" fill="#e8e6e1" opacity="0.17"/><circle cx="8.9" cy="431.8" r="1.5" fill="#e8e6e1" opacity="0.18"/><circle cx="269.3" cy="208.8" r="1.7" fill="#e8e6e1" opacity="0.26"/><circle cx="173.4" cy="415.0" r="1.6" fill="#e8e6e1" opacity="0.53"/><circle cx="248.8" cy="349.3" r="2.2" fill="#e8e6e1" opacity="0.49"/><circle cx="100.3" cy="54.0" r="1.9" fill="#e8e6e1" opacity="0.45"/><circle cx="153.1" cy="330.5" r="1.5" fill="#e8e6e1" opacity="0.53"/><circle cx="452.8" cy="578.6" r="0.6" fill="#e8e6e1" opacity="0.59"/><circle cx="299.5" cy="308.9" r="1.2" fill="#e8e6e1" opacity="0.23"/><circle cx="154.4" cy="349.9" r="0.7" fill="#e8e6e1" opacity="0.33"/><circle cx="471.4" cy="38.4" r="1.0" fill="#e8e6e1" opacity="0.32"/><circle cx="470.4" cy="314.7" r="1.6" fill="#e8e6e1" opacity="0.47"/><circle cx="64.1" cy="341.0" r="1.6" fill="#e8e6e1" opacity="0.16"/><circle cx="77.2" cy="399.9" r="2.2" fill="#e8e6e1" opacity="0.30"/><circle cx="89.3" cy="212.4" r="1.3" fill="#e8e6e1" opacity="0.39"/><circle cx="410.0" cy="164.7" r="1.2" fill="#e8e6e1" opacity="0.17"/><circle cx="424.9" cy="309.8" r="1.1" fill="#e8e6e1" opacity="0.38"/><circle cx="332.3" cy="444.4" r="0.7" fill="#e8e6e1" opacity="0.52"/><circle cx="421.5" cy="100.2" r="1.3" fill="#e8e6e1" opacity="0.32"/><circle cx="439.3" cy="250.1" r="2.1" fill="#e8e6e1" opacity="0.24"/><circle cx="65.7" cy="66.3" r="0.9" fill="#e8e6e1" opacity="0.37"/><circle cx="355.0" cy="458.9" r="1.5" fill="#e8e6e1" opacity="0.62"/><circle cx="393.6" cy="399.4" r="1.8" fill="#e8e6e1" opacity="0.44"/>
  <text x="56" y="60" font-family="'SFMono-Regular','Menlo',monospace" font-size="16" fill="#b8a877" letter-spacing="3">P/DING-YI</text>
  <text x="56" y="360" font-family="'Noto Serif SC','Songti SC',serif" font-size="56" fill="#e8e6e1" letter-spacing="4">丁仪</text>
  <text x="58" y="408" font-family="'PingFang SC','Microsoft YaHei',sans-serif" font-size="23" fill="#9aa0a8">物理学家 / 触摸水滴的人</text>
  <polyline points="0,294 16,278 32,282 48,266 64,287 80,274 96,298 112,298 128,290 144,269 160,299 176,267 192,299 208,286 224,291 240,291 256,263 272,283 288,262 304,288 320,268 336,267 352,270 368,290 384,286 400,266 416,295 432,270 448,289 464,273 480,273" fill="none" stroke="#b8a877" stroke-width="1.5" opacity="0.55"/>
</svg>