<svg xmlns="http://www.w3.org/2000/svg" width="480" height="640" viewBox="0 0 480 640">
  <rect width="480" height="640" fill="#0a0e14"/>
  <rect width="480" height="640" fill="#b8a877" opacity="0.08"/>
  <circle cx="358.3" cy="461.6" r="0.9" fill="#e8e6e1" opacity="0.24"/><circle cx="412.4" cy="506.3" r="1.1" fill="#e8e6e1" opacity="0.29"/><circle cx="165.8" cy="516.4" r="1.1" fill="#e8e6e1" opacity="0.29"/><circle cx="252.8" cy="471.0" r="1.8" fill="#e8e6e1" opacity="0.50"/><circle cx="426.7" cy="213.0" r="2.0" fill="#e8e6e1" opacity="0.32"/><circle cx="365.4" cy="32.8" r="1.3" fill="#e8e6e1" opacity="0.37"/><circle cx="283.7" cy="535.6" r="0.8" fill="#e8e6e1" opacity="0.33"/><circle cx="238.4" cy="271.5" r="0.9" fill="#e8e6e1" opacity="0.53"/><circle cx="286.5" cy="453.1" r="1.5" fill="#e8e6e1" opacity="0.63"/><circle cx="330.9" cy="90.5" r="1.2" fill="#e8e6e1" opacity="0.34"/><circle cx="130.8" cy="54.5" r="0.7" fill="#e8e6e1" opacity="0.48"/><circle cx="339.9" cy="528.4" r="1.6" fill="#e8e6e1" opacity="0.27"/><circle cx="159.5" cy="354.9" r="2.1" fill="#e8e6e1" opacity="0.24"/><circle cx="140.5" cy="189.7" r="1.4" fill="#e8e6e1" opacity="0.52"/><circle cx="144.3" cy="586.0" r="0.6" fill="#e8e6e1" opacity="0.16"/><circle cx="332.5" cy="42.2" r="1.3" fill="#e8e6e1" opacity="0.22"/><circle cx="154.8" cy="69.3" r="2.1" fill="#e8e6e1" opacity="0.17"/><circle cx="300.1" cy="412.6" r="1.2" fill="#e8e6e1" opacity="0.52"/><circle cx="268.4" cy="92.6" r="0.8" fill="#e8e6e1" opacity="0.42"/><circle cx="213.4" cy="342.2" r="1.9" fill="#e8e6e1" opacity="0.43"/><circle cx="304.0" cy="235.8" r="1.5" fill="#e8e6e1" opacity="0.34"/><circle cx="40.1" cy="259.1" r="0.8" fill="#e8e6e1" opacity="0.34"/><circle cx="41.8" cy="208.4" r="1.4" fill="#e8e6e1" opacity="0.60"/><circle cx="462.8" cy="367.8" r="0.7" fill="#e8e6e1" opacity="0.53"/><circle cx="206.1" cy="453.8" r="2.0" fill="#e8e6e1" opacity="0.30"/><circle cx="462.2" cy="632.8" r="2.1" fill="#e8e6e1" opacity="0.41"/><circle cx="334.9" cy="369.6" r="1.7" fill="#e8e6e1" opacity="0.16"/><circle cx="259.7" cy="434.8" r="1.1" fill="#e8e6e1" opacity="0.52"/><circle cx="110.6" cy="225.8" r="1.7" fill="#e8e6e1" opacity="0.19"/><circle cx="244.5" cy="48.9" r="1.5" fill="#e8e6e1" opacity="0.39"/><circle cx="174.1" cy="14.6" r="1.6" fill="#e8e6e1" opacity="0.45"/><circle cx="34.4" cy="570.9" r="1.0" fill="#e8e6e1" opacity="0.49"/><circle cx="450.7" cy="453.9" r="1.9" fill="#e8e6e1" opacity="0.30"/><circle cx="121.1" cy="422.5" r="1.6" fill="#e8e6e1" opacity="0.62"/><circle cx="403.3" cy="467.9" r="1.4" fill="#e8e6e1" opacity="0.47"/><circle cx="48.9" cy="102.5" r="1.3" fill="#e8e6e1" opacity="0.38"/><circle cx="270.5" cy="59.2" r="2.0" fill="#e8e6e1" opacity="0.25"/><circle cx="474.2" cy="383.2" r="1.6" fill="#e8e6e1" opacity="0.22"/><circle cx="187.5" cy="420.7" r="1.3" fill="#e8e6e1" opacity="0.51"/><circle cx="220.5" cy="111.4" r="1.3" fill="#e8e6e1" opacity="0.50"/><circle cx="386.6" cy="521.4" r="2.1" fill="#e8e6e1" opacity="0.21"/><circle cx="109.9" cy="479.9" r="2.1" fill="#e8e6e1" opacity="0.27"/><circle cx="164.5" cy="593.5" r="2.2" fill="#e8e6e1" opacity="0.54"/><circle cx="122.4" cy="160.9" r="1.4" fill="#e8e6e1" opacity="0.51"/><circle cx="40.2" cy="216.9" r="0.7" fill="#e8e6e1" opacity="0.29"/><circle cx="394.7" cy="592.7" r="1.0" fill="#e8e6e1" opacity="0.27"/><circle cx="131.1" cy="127.6" r="2.0" fill="#e8e6e1" opacity="0.23"/><circle cx="378.4" cy="76.2" r="1.6" fill="#e8e6e1" opacity="0.32"/><circle cx="111.0" cy="138.5" r="1.6" fill="#e8e6e1" opacity="0.60"/><circle cx="159.9" cy="81.9" r="0.8" fill="#e8e6e1" opacity="0.46"/><circle cx="360.9" cy="367.5" r="1.0" fill="#e8e6e1" opacity="0.27"/><circle cx="337.6" cy="566.9" r="1.8" fill="#e8e6e1" opacity="0.59"/><circle cx="52.2" cy="336.2" r="1.2" fill="#e8e6e1" opacity="0.44"/><circle cx="206.0" cy="276.2" r="1.1" fill="#e8e6e1" opacity="0.61"/><circle cx="431.1" cy="453.0" r="0.7" fill="#e8e6e1" opacity="0.41"/><circle cx="123.2" cy="556.0" r="1.1" fill="#e8e6e1" opacity="0.26"/><circle cx="50.2" cy="3.9" r="1.5" fill="#e8e6e1" opacity="0.49"/><circle cx="305.0" cy="483.9" r="1.4" fill="#e8e6e1" opacity="0.51"/><circle cx="67.7" cy="493.3" r="1.4" fill="#e8e6e1" opacity="0.53"/><circle cx="31.2" cy="269.6" r="0.6" fill="#e8e6e1" opacity="0.26"/><circle cx="163.0" cy="465.4" r="1.2" fill="#e8e6e1" opacity="0.28"/><circle cx="349.3" cy="112.4" r="1.0" fill="#e8e6e1" opacity="0.63"/><circle cx="201.5" cy="118.7" r="1.6" fill="#e8e6e1" opacity="0.19"/><circle cx="320.6" cy="546.7" r="1.1" fill="#e8e6e1" opacity="0.29"/><circle cx="136.3" cy="76.2" r="0.7" fill="#e8e6e1" opacity="0.27"/><circle cx="187.4" cy="474.0" r="0.6" fill="#e8e6e1" opacity="0.56"/><circle cx="423.2" cy="123.0" r="1.1" fill="#e8e6e1" opacity="0.39"/><circle cx="453.3" cy="629.5" r="2.2" fill="#e8e6e1" opacity="0.44"/><circle cx="84.7" cy="574.4" r="0.7" fill="#e8e6e1" opacity="0.50"/><circle cx="146.4" cy="64.6" r="0.6" fill="#e8e6e1" opacity="0.29"/><circle cx="316.7" cy="433.2" r="0.9" fill="#e8e6e1" opacity="0.39"/><circle cx="240.7" cy="486.2" r="1.2" fill="#e8e6e1" opacity="0.41"/><circle cx="65.6" cy="395.0" r="1.5" fill="#e8e6e1" opacity="0.19"/><circle cx="354.3" cy="600.1" r="1.3" fill="#e8e6e1" opacity="0.46"/><circle cx="292.9" cy="252.8" r="2.1" fill="#e8e6e1" opacity="0.39"/><circle cx="184.0" cy="77.8" r="1.9" fill="#e8e6e1" opacity="0.43"/><circle cx="396.9" cy="599.6" r="1.6" fill="#e8e6e1" opacity="0.60"/><circle cx="411.8" cy="55.0" r="1.9" fill="#e8e6e1" opacity="0.62"/><circle cx="400.7" cy="490.4" r="1.7" fill="#e8e6e1" opacity="0.39"/><circle cx="275.1" cy="617.0" r="0.7" fill="#e8e6e1" opacity="0.50"/><circle cx="354.6" cy="302.9" r="0.9" fill="#e8e6e1" opacity="0.37"/><circle cx="339.8" cy="615.4" r="2.0" fill="#e8e6e1" opacity="0.41"/><circle cx="104.7" cy="426.9" r="1.3" fill="#e8e6e1" opacity="0.55"/><circle cx="469.7" cy="630.1" r="1.3" fill="#e8e6e1" opacity="0.22"/><circle cx="120.5" cy="608.2" r="1.9" fill="#e8e6e1" opacity="0.37"/><circle cx="253.8" cy="455.8" r="1.0" fill="#e8e6e1" opacity="0.41"/><circle cx="277.5" cy="274.8" r="1.3" fill="#e8e6e1" opacity="0.16"/><circle cx="111.8" cy="336.3" r="1.6" fill="#e8e6e1" opacity="0.34"/><circle cx="228.5" cy="76.9" r="1.0" fill="#e8e6e1" opacity="0.52"/><circle cx="37.2" cy="542.8" r="1.2" fill="#e8e6e1" opacity="0.64"/><circle cx="302.7" cy="290.6" r="0.9" fill="#e8e6e1" opacity="0.35"/><circle cx="355.7" cy="269.1" r="2.0" fill="#e8e6e1" opacity="0.47"/><circle cx="205.3" cy="398.8" r="1.6" fill="#e8e6e1" opacity="0.29"/><circle cx="394.8" cy="524.7" r="2.1" fill="#e8e6e1" opacity="0.56"/><circle cx="195.6" cy="563.3" r="1.2" fill="#e8e6e1" opacity="0.19"/><circle cx="296.1" cy="129.9" r="1.9" fill="#e8e6e1" opacity="0.30"/><circle cx="384.9" cy="175.3" r="1.4" fill="#e8e6e1" opacity="0.42"/><circle cx="265.1" cy="152.7" r="1.9" fill="#e8e6e1" opacity="0.39"/><circle cx="89.1" cy="615.1" r="0.6" fill="#e8e6e1" opacity="0.55"/><circle cx="422.1" cy="622.9" r="1.4" fill="#e8e6e1" opacity="0.47"/><circle cx="198.6" cy="565.5" r="1.4" fill="#e8e6e1" opacity="0.56"/><circle cx="375.4" cy="496.8" r="0.7" fill="#e8e6e1" opacity="0.32"/><circle cx="332.7" cy="302.7" r="1.3" fill="#e8e6e1" opacity="0.23"/><circle cx="236.4" cy="503.2" r="0.9" fill="#e8e6e1" opacity="0.26"/><circle cx="345.6" cy="336.6" r="1.4" fill="#e8e6e1" opacity="0.26"/><circle cx="225.1" cy="144.8" r="2.2" fill="#e8e6e1" opacity="0.59"/><circle cx="227.1" cy="360.0" r="1.0" fill="#e8e6e1" opacity="0.64"/><circle cx="192.9" cy="209.0" r="1.7" fill="#e8e6e1" opacity="0.65"/><circle cx="25.5" cy="113.0" r="0.8" fill="#e8e6e1" opacity="0.60"/><circle cx="133.8" cy="14.6" r="1.7" fill="#e8e6e1" opacity="0.22"/>
  <text x="56" y="60" font-family="'SFMono-Regular','Menlo',monospace" font-size="16" fill="#b8a877" letter-spacing="3">P/GUAN-YIFAN</text>
  <text x="56" y="360" font-family="'Noto Serif SC','Songti SC',serif" font-size="56" fill="#e8e6e1" letter-spacing="4">关一帆</text>
  <text x="58" y="408" font-family="'PingFang SC','Microsoft YaHei',sans-serif" font-size="23" fill="#9aa0a8">万有引力号科学家 / 小宇宙的同行者</text>
  <polyline points="0,288 16,293 32,287 48,287 64,283 80,285 96,268 112,293 128,292 144,280 160,272 176,291 192,291 208,295 224,277 240,264 256,262 272,265 288,275 304,273 320,274 336,290 352,266 368,301 384,280 400,285 416,263 432,267 448,284 464,287 480,275" fill="none" stroke="#b8a877" stroke-width="1.5" opacity="0.55"/>
</svg>