<svg xmlns="http://www.w3.org/2000/svg" width="480" height="640" viewBox="0 0 480 640">
  <defs>
    <linearGradient id="bg" x1="0" y1="0" x2="0.6" y2="1">
      <stop offset="0" stop-color="#0a0e14"/><stop offset="1" stop-color="#2a3350"/>
    </linearGradient>
    <radialGradient id="glow" cx="0.78" cy="0.18" r="0.75">
      <stop offset="0" stop-color="#2a3350" stop-opacity="0.5"/><stop offset="1" stop-color="#2a3350" stop-opacity="0"/>
    </radialGradient>
  </defs><rect width="480" height="640" fill="url(#bg)"/><rect width="480" height="640" fill="url(#glow)"/>
  <circle cx="392.6" cy="398.3" r="1.2" fill="#e8e6e1" opacity="0.36"/><circle cx="217.4" cy="289.4" r="1.5" fill="#e8e6e1" opacity="0.40"/><circle cx="269.7" cy="180.3" r="1.5" fill="#e8e6e1" opacity="0.21"/><circle cx="353.3" cy="255.3" r="1.3" fill="#e8e6e1" opacity="0.44"/><circle cx="372.9" cy="577.2" r="1.3" fill="#e8e6e1" opacity="0.27"/><circle cx="386.0" cy="500.2" r="0.8" fill="#e8e6e1" opacity="0.37"/><circle cx="409.4" cy="602.6" r="1.4" fill="#e8e6e1" opacity="0.16"/><circle cx="35.3" cy="394.4" r="0.9" fill="#e8e6e1" opacity="0.23"/><circle cx="213.5" cy="455.3" r="1.5" fill="#e8e6e1" opacity="0.26"/><circle cx="25.8" cy="76.3" r="1.3" fill="#e8e6e1" opacity="0.19"/><circle cx="22.3" cy="262.4" r="1.0" fill="#e8e6e1" opacity="0.15"/><circle cx="260.9" cy="621.3" r="0.8" fill="#e8e6e1" opacity="0.24"/><circle cx="52.0" cy="11.1" r="0.7" fill="#e8e6e1" opacity="0.46"/><circle cx="453.3" cy="211.3" r="0.8" fill="#e8e6e1" opacity="0.46"/><circle cx="4.8" cy="61.4" r="1.8" fill="#e8e6e1" opacity="0.39"/><circle cx="129.7" cy="348.0" r="1.4" fill="#e8e6e1" opacity="0.13"/><circle cx="250.9" cy="488.0" r="1.2" fill="#e8e6e1" opacity="0.30"/><circle cx="335.0" cy="127.9" r="1.7" fill="#e8e6e1" opacity="0.42"/><circle cx="476.3" cy="499.2" r="1.6" fill="#e8e6e1" opacity="0.25"/><circle cx="93.8" cy="100.1" r="1.7" fill="#e8e6e1" opacity="0.35"/><circle cx="309.0" cy="230.0" r="1.9" fill="#e8e6e1" opacity="0.43"/><circle cx="44.1" cy="80.8" r="0.9" fill="#e8e6e1" opacity="0.41"/><circle cx="197.0" cy="266.3" r="0.9" fill="#e8e6e1" opacity="0.44"/><circle cx="122.4" cy="128.6" r="1.0" fill="#e8e6e1" opacity="0.23"/><circle cx="65.3" cy="65.0" r="1.8" fill="#e8e6e1" opacity="0.17"/><circle cx="212.5" cy="257.8" r="1.6" fill="#e8e6e1" opacity="0.12"/><circle cx="182.1" cy="251.7" r="1.1" fill="#e8e6e1" opacity="0.28"/><circle cx="421.3" cy="622.2" r="1.1" fill="#e8e6e1" opacity="0.51"/><circle cx="175.9" cy="491.3" r="1.3" fill="#e8e6e1" opacity="0.25"/><circle cx="277.0" cy="434.7" r="1.3" fill="#e8e6e1" opacity="0.52"/><circle cx="93.2" cy="634.0" r="2.0" fill="#e8e6e1" opacity="0.34"/><circle cx="364.8" cy="261.3" r="1.1" fill="#e8e6e1" opacity="0.38"/><circle cx="162.2" cy="531.1" r="0.8" fill="#e8e6e1" opacity="0.40"/><circle cx="249.8" cy="173.2" r="0.7" fill="#e8e6e1" opacity="0.34"/><circle cx="62.0" cy="216.7" r="1.0" fill="#e8e6e1" opacity="0.37"/><circle cx="244.5" cy="160.4" r="0.8" fill="#e8e6e1" opacity="0.20"/><circle cx="313.5" cy="262.4" r="1.8" fill="#e8e6e1" opacity="0.45"/><circle cx="42.1" cy="527.3" r="1.5" fill="#e8e6e1" opacity="0.36"/><circle cx="315.4" cy="415.9" r="0.8" fill="#e8e6e1" opacity="0.36"/><circle cx="236.9" cy="123.9" r="1.5" fill="#e8e6e1" opacity="0.17"/><circle cx="272.5" cy="501.9" r="1.1" fill="#e8e6e1" opacity="0.30"/><circle cx="395.5" cy="462.4" r="1.1" fill="#e8e6e1" opacity="0.37"/><circle cx="337.6" cy="501.5" r="0.7" fill="#e8e6e1" opacity="0.47"/><circle cx="223.7" cy="602.0" r="1.1" fill="#e8e6e1" opacity="0.48"/><circle cx="386.4" cy="451.3" r="1.9" fill="#e8e6e1" opacity="0.43"/><circle cx="334.2" cy="189.1" r="1.2" fill="#e8e6e1" opacity="0.52"/><circle cx="367.8" cy="612.3" r="1.5" fill="#e8e6e1" opacity="0.29"/><circle cx="107.1" cy="328.7" r="0.7" fill="#e8e6e1" opacity="0.47"/><circle cx="297.9" cy="109.1" r="0.9" fill="#e8e6e1" opacity="0.47"/><circle cx="131.7" cy="417.9" r="1.4" fill="#e8e6e1" opacity="0.30"/><circle cx="394.0" cy="158.2" r="1.8" fill="#e8e6e1" opacity="0.18"/><circle cx="9.0" cy="584.2" r="2.0" fill="#e8e6e1" opacity="0.50"/><circle cx="257.2" cy="191.5" r="1.5" fill="#e8e6e1" opacity="0.16"/><circle cx="310.3" cy="119.4" r="1.1" fill="#e8e6e1" opacity="0.24"/><circle cx="401.1" cy="551.5" r="1.6" fill="#e8e6e1" opacity="0.30"/><circle cx="65.8" cy="340.3" r="1.1" fill="#e8e6e1" opacity="0.46"/><circle cx="26.1" cy="275.1" r="1.2" fill="#e8e6e1" opacity="0.45"/><circle cx="202.1" cy="100.2" r="1.0" fill="#e8e6e1" opacity="0.31"/><circle cx="287.6" cy="267.5" r="1.3" fill="#e8e6e1" opacity="0.42"/><circle cx="471.8" cy="68.6" r="1.3" fill="#e8e6e1" opacity="0.19"/><circle cx="336.2" cy="557.1" r="0.9" fill="#e8e6e1" opacity="0.36"/><circle cx="205.5" cy="327.6" r="1.4" fill="#e8e6e1" opacity="0.46"/><circle cx="58.8" cy="131.7" r="1.6" fill="#e8e6e1" opacity="0.49"/><circle cx="286.1" cy="299.2" r="1.6" fill="#e8e6e1" opacity="0.27"/><circle cx="289.4" cy="180.0" r="0.6" fill="#e8e6e1" opacity="0.23"/><circle cx="454.6" cy="381.2" r="1.1" fill="#e8e6e1" opacity="0.36"/><circle cx="312.9" cy="628.0" r="1.1" fill="#e8e6e1" opacity="0.18"/><circle cx="16.7" cy="477.9" r="0.8" fill="#e8e6e1" opacity="0.42"/><circle cx="399.7" cy="61.3" r="0.9" fill="#e8e6e1" opacity="0.23"/><circle cx="101.5" cy="226.4" r="1.7" fill="#e8e6e1" opacity="0.50"/><circle cx="280.8" cy="135.2" r="1.8" fill="#e8e6e1" opacity="0.16"/><circle cx="409.2" cy="632.1" r="1.9" fill="#e8e6e1" opacity="0.33"/><circle cx="47.5" cy="147.3" r="0.9" fill="#e8e6e1" opacity="0.50"/><circle cx="399.6" cy="538.9" r="0.9" fill="#e8e6e1" opacity="0.47"/><circle cx="43.7" cy="318.3" r="1.5" fill="#e8e6e1" opacity="0.16"/><circle cx="341.6" cy="12.9" r="1.3" fill="#e8e6e1" opacity="0.48"/><circle cx="442.3" cy="338.3" r="2.0" fill="#e8e6e1" opacity="0.49"/><circle cx="202.6" cy="238.8" r="1.5" fill="#e8e6e1" opacity="0.50"/><circle cx="190.3" cy="48.0" r="1.5" fill="#e8e6e1" opacity="0.22"/><circle cx="159.7" cy="333.4" r="1.4" fill="#e8e6e1" opacity="0.33"/><circle cx="236.8" cy="508.4" r="0.6" fill="#e8e6e1" opacity="0.23"/><circle cx="4.9" cy="569.0" r="1.3" fill="#e8e6e1" opacity="0.31"/><circle cx="319.0" cy="618.1" r="1.8" fill="#e8e6e1" opacity="0.47"/><circle cx="71.4" cy="257.4" r="1.7" fill="#e8e6e1" opacity="0.21"/><circle cx="389.5" cy="282.9" r="1.1" fill="#e8e6e1" opacity="0.40"/><circle cx="274.3" cy="436.6" r="1.4" fill="#e8e6e1" opacity="0.13"/><circle cx="459.7" cy="108.0" r="1.1" fill="#e8e6e1" opacity="0.20"/><circle cx="306.8" cy="616.3" r="1.5" fill="#e8e6e1" opacity="0.50"/><circle cx="149.5" cy="5.9" r="1.4" fill="#e8e6e1" opacity="0.30"/><circle cx="32.6" cy="304.5" r="1.9" fill="#e8e6e1" opacity="0.18"/><circle cx="41.1" cy="549.9" r="1.2" fill="#e8e6e1" opacity="0.15"/><circle cx="276.1" cy="313.0" r="0.7" fill="#e8e6e1" opacity="0.33"/><circle cx="108.1" cy="451.9" r="1.7" fill="#e8e6e1" opacity="0.36"/><circle cx="23.9" cy="167.2" r="0.8" fill="#e8e6e1" opacity="0.42"/><circle cx="64.2" cy="200.3" r="1.6" fill="#e8e6e1" opacity="0.45"/><circle cx="470.7" cy="117.9" r="1.4" fill="#e8e6e1" opacity="0.19"/><circle cx="343.0" cy="313.8" r="1.4" fill="#e8e6e1" opacity="0.43"/><circle cx="257.9" cy="522.2" r="0.8" fill="#e8e6e1" opacity="0.20"/><circle cx="4.9" cy="123.7" r="1.8" fill="#e8e6e1" opacity="0.40"/><circle cx="212.7" cy="299.7" r="1.1" fill="#e8e6e1" opacity="0.24"/>
  <line x1="0" y1="0" x2="0" y2="640" stroke="#e8e6e1" stroke-width="0.5" opacity="0.05"/><line x1="96" y1="0" x2="96" y2="640" stroke="#e8e6e1" stroke-width="0.5" opacity="0.05"/><line x1="192" y1="0" x2="192" y2="640" stroke="#e8e6e1" stroke-width="0.5" opacity="0.05"/><line x1="288" y1="0" x2="288" y2="640" stroke="#e8e6e1" stroke-width="0.5" opacity="0.05"/><line x1="384" y1="0" x2="384" y2="640" stroke="#e8e6e1" stroke-width="0.5" opacity="0.05"/><line x1="480" y1="0" x2="480" y2="640" stroke="#e8e6e1" stroke-width="0.5" opacity="0.05"/><line x1="0" y1="0" x2="480" y2="0" stroke="#e8e6e1" stroke-width="0.5" opacity="0.05"/><line x1="0" y1="96" x2="480" y2="96" stroke="#e8e6e1" stroke-width="0.5" opacity="0.05"/><line x1="0" y1="192" x2="480" y2="192" stroke="#e8e6e1" stroke-width="0.5" opacity="0.05"/><line x1="0" y1="288" x2="480" y2="288" stroke="#e8e6e1" stroke-width="0.5" opacity="0.05"/><line x1="0" y1="384" x2="480" y2="384" stroke="#e8e6e1" stroke-width="0.5" opacity="0.05"/><line x1="0" y1="480" x2="480" y2="480" stroke="#e8e6e1" stroke-width="0.5" opacity="0.05"/><line x1="0" y1="576" x2="480" y2="576" stroke="#e8e6e1" stroke-width="0.5" opacity="0.05"/>
  <rect x="26" y="26" width="428" height="588" fill="none" stroke="#b8a877" stroke-width="1" opacity="0.4"/>
  <text x="48" y="90" font-family="'SFMono-Regular','Menlo','Consolas',monospace" font-size="15" fill="#b8a877" letter-spacing="3">REY-DIAZ</text>
  <line x1="48" y1="106" x2="432" y2="106" stroke="#b8a877" stroke-width="1" opacity="0.5"/>
  <text x="48" y="400" font-family="'Noto Serif CJK SC','Songti SC','STSong','SimSun',serif" font-size="60" fill="#e8e6e1" letter-spacing="6">雷迪亚兹</text>
  <line x1="50" y1="436" x2="180" y2="436" stroke="#b8a877" stroke-width="2"/>
  <text x="48" y="486" font-family="'PingFang SC','Hiragino Sans GB','Microsoft YaHei',sans-serif" font-size="22" fill="#9aa0a8" letter-spacing="2">前总统 / 水星核弹威慑者</text>
  <text x="456" y="618" text-anchor="end" font-family="'SFMono-Regular','Menlo','Consolas',monospace" font-size="13" fill="#e8e6e1" opacity="0.45" letter-spacing="3">三体世界图鉴</text>
  <g><rect x="16" y="626" width="448" height="2" fill="#b8a877" opacity="0.8"/><rect x="28" y="626" width="424" height="2" fill="#b8a877" opacity="0.5800000000000001"/><rect x="40" y="626" width="400" height="2" fill="#b8a877" opacity="0.36000000000000004"/></g>
</svg>